<svg width="230" height="288" viewBox="0 0 230 288" fill="none" xmlns="http://www.w3.org/2000/svg">
<rect width="230" height="288" fill="white"/>
<g clip-path="url(#clip0_4001_492)">
<g clip-path="url(#clip1_4001_492)">
<g clip-path="url(#clip2_4001_492)">
<g clip-path="url(#clip3_4001_492)">
<path d="M110.801 35C110.8 35 110.8 35 110.8 35H41.2C40.5375 34.9999 40.0002 35.5369 40 36.1994C40 36.1996 40 36.1999 40 36.2V60.2H42.4V37.4H109.6V63.8H67.6V66.2H110.8C111.463 66.2002 112 65.6632 112 65.0006C112 65.0005 112 65.0002 112 65V36.2C112 35.5375 111.463 35.0002 110.801 35Z" fill="#FF7B52"/>
</g>
</g>
<g clip-path="url(#clip4_4001_492)">
<g clip-path="url(#clip5_4001_492)">
<path d="M103.6 41H79.6001V43.4H103.6V41Z" fill="#FF7B52"/>
</g>
</g>
<g clip-path="url(#clip6_4001_492)">
<g clip-path="url(#clip7_4001_492)">
<path d="M107.2 48.2002H83.2V50.6002H107.2V48.2002Z" fill="#FF7B52"/>
</g>
</g>
<g clip-path="url(#clip8_4001_492)">
<g clip-path="url(#clip9_4001_492)">
<path d="M102.4 55.3999H78.3999V57.7999H102.4V55.3999Z" fill="#FF7B52"/>
</g>
</g>
<g clip-path="url(#clip10_4001_492)">
<g clip-path="url(#clip11_4001_492)">
<path d="M78.3043 45.3459C77.4827 43.3712 75.2159 42.4364 73.2413 43.2579C73.2076 43.272 73.174 43.2864 73.1407 43.3014L63.4105 48.3489C63.7942 47.5536 63.9956 46.6827 64 45.7998C64 42.4862 61.3136 39.7998 58 39.7998C54.6863 39.7998 52 42.4862 52 45.7998C52.0045 47.1023 52.4369 48.3672 53.2307 49.3998H53.1808C49.7746 49.4226 46.7339 51.5402 45.5314 54.7272L42.328 65.7686C41.5654 67.7495 42.553 69.9737 44.534 70.7363C45.4373 71.084 46.4386 71.0781 47.3378 70.7198C48.371 70.3035 49.175 69.4629 49.5451 68.4123L50.8 64.4186V81.786C49.7674 80.9924 48.5024 80.5599 47.2 80.5553C43.8913 80.5503 41.2049 83.2286 41.2 86.5374C41.1976 88.1579 41.8516 89.7101 43.013 90.8402C41.1698 91.7819 40.0072 93.6743 40 95.7439V105.8C39.9999 106.462 40.5368 107 41.1994 107C41.1995 107 41.1998 107 41.2 107H53.2C53.8625 107 54.3998 106.463 54.4 105.8C54.4 105.8 54.4 105.8 54.4 105.8V95.7439C54.3941 94.0431 53.6039 92.4402 52.2586 91.3998H61.3415C59.996 92.4402 59.2059 94.0431 59.2001 95.7439V105.8C59.2 106.462 59.737 107 60.3995 107C60.3997 107 60.4 107 60.4002 107H72.4002C73.0627 107 73.6 106.463 73.6001 105.8C73.6001 105.8 73.6001 105.8 73.6001 105.8V95.7439C73.5929 93.6743 72.4303 91.7819 70.5871 90.8402C72.9563 88.5276 73.0024 84.7322 70.6898 82.3629C69.2657 80.9039 67.1977 80.2686 65.2001 80.6766V56.1287L76.2163 50.4087C78.1909 49.5873 79.1257 47.3205 78.3043 45.3459ZM58 42.1998C59.9882 42.1998 61.6 43.8116 61.6 45.7998C61.6 47.7881 59.9882 49.3998 58 49.3998C56.0126 49.3977 54.4021 47.7872 54.4 45.7998C54.4 43.8116 56.0117 42.1998 58 42.1998ZM47.2 82.9553C49.1882 82.9553 50.8 84.567 50.8 86.5553C50.8 88.5435 49.1882 90.1553 47.2 90.1553C45.2117 90.1553 43.6 88.5435 43.6 86.5553C43.6021 84.5679 45.2126 82.9575 47.2 82.9553ZM52 104.6H42.4V95.7439C42.4024 94.0083 43.8089 92.6019 45.5447 92.5998H48.8552C50.5909 92.6019 51.9976 94.0083 52 95.7439V104.6ZM71.2 95.7439V104.6H61.6V95.7439C61.6024 94.0083 63.0089 92.6019 64.7447 92.5998H68.0552C69.791 92.6019 71.1976 94.0083 71.2 95.7439ZM66.4 82.9553C68.3873 82.9574 69.9979 84.5679 70 86.5553C70 88.5435 68.3882 90.1553 66.4 90.1553C64.4117 90.1553 62.8 88.5435 62.8 86.5553C62.8 84.567 64.4117 82.9553 66.4 82.9553ZM76.1084 47.3478C75.9478 47.76 75.618 48.0836 75.2026 48.2361L63.4475 54.3345C63.0497 54.5409 62.8 54.9518 62.8 55.3998V81.786C60.5522 83.448 59.7736 86.456 60.9328 88.9998H59.2V68.5998H56.8V88.9998H52.6672C53.0086 88.2453 53.1884 87.4278 53.1955 86.5998H53.2V56.5998C53.1998 55.937 52.6624 55.3998 51.9997 55.4C51.4757 55.4001 51.0124 55.7402 50.8552 56.2401L47.272 67.6424C47.0005 68.3912 46.1732 68.7782 45.4244 68.5065C45.3719 68.4875 45.3205 68.4654 45.2704 68.4404C44.5781 68.0826 44.2843 67.2474 44.6002 66.5349L47.8034 55.4936C48.6673 53.2751 50.7998 51.8102 53.1806 51.7998H61.6774C61.8697 51.8001 62.0593 51.7538 62.23 51.6651L74.1568 45.4742C74.8723 45.1757 75.697 45.4811 76.0453 46.1738C76.2299 46.5389 76.2529 46.9649 76.1084 47.3478Z" fill="#FF7B52"/>
</g>
</g>
<g clip-path="url(#clip12_4001_492)">
<g clip-path="url(#clip13_4001_492)">
<path d="M89.7869 90.8406C92.1603 88.5282 92.2098 84.7294 89.8974 82.3559C87.585 79.9825 83.7863 79.933 81.4128 82.2454C79.0394 84.5578 78.9899 88.3566 81.3023 90.73C81.3387 90.7674 81.3756 90.8043 81.413 90.8406C79.5699 91.7823 78.4071 93.6746 78.3999 95.7443V105.8C78.3998 106.463 78.9368 107 79.5993 107C79.5995 107 79.5998 107 79.5999 107H91.5999C92.2625 107 92.7998 106.463 92.7999 105.801C92.7999 105.801 92.7999 105.8 92.7999 105.8V95.7443C92.7927 93.6746 91.6301 91.7823 89.7869 90.8406ZM85.5999 82.9557C87.5882 82.9557 89.1999 84.5674 89.1999 86.5557C89.1999 88.5439 87.5882 90.1557 85.5999 90.1557C83.6117 90.1557 81.9999 88.5439 81.9999 86.5557C82.002 84.5683 83.6126 82.9579 85.5999 82.9557ZM90.3999 104.6H80.7999V95.7443C80.8023 94.0087 82.2089 92.6023 83.9447 92.6002H87.2552C88.9908 92.6023 90.3975 94.0087 90.3999 95.7443V104.6Z" fill="#FF7B52"/>
</g>
</g>
<g clip-path="url(#clip14_4001_492)">
<g clip-path="url(#clip15_4001_492)">
<path d="M108.987 90.8406C111.36 88.5282 111.41 84.7294 109.098 82.3559C106.785 79.9825 102.986 79.933 100.613 82.2454C98.2395 84.5578 98.19 88.3566 100.502 90.73C100.539 90.7674 100.576 90.8043 100.613 90.8406C98.7701 91.7823 97.6073 93.6746 97.6001 95.7443V105.8C97.5999 106.463 98.1369 107 98.7995 107C98.7996 107 98.7999 107 98.8001 107H110.8C111.463 107 112 106.463 112 105.801C112 105.801 112 105.8 112 105.8V95.7443C111.993 93.6746 110.83 91.7823 108.987 90.8406ZM104.8 82.9557C106.788 82.9557 108.4 84.5674 108.4 86.5557C108.4 88.5439 106.788 90.1557 104.8 90.1557C102.812 90.1557 101.2 88.5439 101.2 86.5557C101.202 84.5683 102.813 82.9579 104.8 82.9557ZM109.6 104.6H100V95.7443C100.002 94.0087 101.409 92.6023 103.145 92.6002H106.455C108.191 92.6023 109.598 94.0087 109.6 95.7443V104.6Z" fill="#FF7B52"/>
</g>
</g>
</g>
</g>
<path d="M43.536 145H41.296V133.656H43.536V145ZM48.1921 140.472V145H46.0641V137.128H48.1281V138.104C48.3521 137.72 48.6721 137.427 49.0881 137.224C49.5041 137.021 49.9415 136.92 50.4001 136.92C51.3281 136.92 52.0321 137.213 52.5121 137.8C53.0028 138.376 53.2481 139.123 53.2481 140.04V145H51.1201V140.408C51.1201 139.939 50.9975 139.56 50.7521 139.272C50.5175 138.984 50.1548 138.84 49.6641 138.84C49.2161 138.84 48.8588 138.995 48.5921 139.304C48.3255 139.613 48.1921 140.003 48.1921 140.472ZM58.1319 134.776V137.128H59.7159V139.016H58.1319V142.312C58.1319 142.643 58.2065 142.877 58.3559 143.016C58.5052 143.155 58.7399 143.224 59.0599 143.224C59.3479 143.224 59.5665 143.203 59.7159 143.16V144.92C59.4065 145.048 59.0065 145.112 58.5159 145.112C57.7479 145.112 57.1399 144.899 56.6919 144.472C56.2439 144.035 56.0199 143.437 56.0199 142.68V139.016H54.5959V137.128H54.9959C55.3905 137.128 55.6892 137.016 55.8919 136.792C56.1052 136.557 56.2119 136.253 56.2119 135.88V134.776H58.1319ZM63.0974 140.168H66.6174C66.596 139.731 66.436 139.363 66.1374 139.064C65.8494 138.765 65.4227 138.616 64.8574 138.616C64.3454 138.616 63.9294 138.776 63.6094 139.096C63.2894 139.416 63.1187 139.773 63.0974 140.168ZM66.8254 142.216L68.6014 142.744C68.388 143.469 67.9667 144.067 67.3374 144.536C66.7187 145.005 65.9454 145.24 65.0174 145.24C63.8867 145.24 62.9267 144.861 62.1374 144.104C61.348 143.336 60.9534 142.312 60.9534 141.032C60.9534 139.816 61.3374 138.824 62.1054 138.056C62.8734 137.277 63.78 136.888 64.8254 136.888C66.0414 136.888 66.9907 137.251 67.6734 137.976C68.3667 138.701 68.7134 139.699 68.7134 140.968C68.7134 141.053 68.708 141.149 68.6974 141.256C68.6974 141.363 68.6974 141.448 68.6974 141.512L68.6814 141.624H63.0494C63.0707 142.136 63.2734 142.563 63.6574 142.904C64.0414 143.245 64.5 143.416 65.0334 143.416C65.94 143.416 66.5374 143.016 66.8254 142.216ZM75.2891 137.096V139.24C75.0758 139.197 74.8625 139.176 74.6491 139.176C74.0411 139.176 73.5505 139.352 73.1771 139.704C72.8038 140.045 72.6171 140.611 72.6171 141.4V145H70.4891V137.128H72.5531V138.296C72.9371 137.475 73.6838 137.064 74.7931 137.064C74.9105 137.064 75.0758 137.075 75.2891 137.096ZM79.014 140.472V145H76.886V137.128H78.95V138.104C79.174 137.72 79.494 137.427 79.91 137.224C80.326 137.021 80.7633 136.92 81.222 136.92C82.15 136.92 82.854 137.213 83.334 137.8C83.8247 138.376 84.07 139.123 84.07 140.04V145H81.942V140.408C81.942 139.939 81.8193 139.56 81.574 139.272C81.3393 138.984 80.9767 138.84 80.486 138.84C80.038 138.84 79.6807 138.995 79.414 139.304C79.1473 139.613 79.014 140.003 79.014 140.472ZM85.8497 142.856C85.8497 142.184 86.0684 141.645 86.5057 141.24C86.9431 140.835 87.5084 140.579 88.2017 140.472L90.1377 140.184C90.5324 140.131 90.7297 139.944 90.7297 139.624C90.7297 139.325 90.6124 139.08 90.3777 138.888C90.1537 138.696 89.8284 138.6 89.4017 138.6C88.9537 138.6 88.5964 138.723 88.3297 138.968C88.0737 139.213 87.9297 139.517 87.8977 139.88L86.0097 139.48C86.0844 138.797 86.4204 138.195 87.0177 137.672C87.6151 137.149 88.4044 136.888 89.3857 136.888C90.5591 136.888 91.4231 137.171 91.9777 137.736C92.5324 138.291 92.8097 139.005 92.8097 139.88V143.752C92.8097 144.221 92.8417 144.637 92.9057 145H90.9537C90.9004 144.765 90.8737 144.451 90.8737 144.056C90.3724 144.835 89.5991 145.224 88.5537 145.224C87.7431 145.224 87.0871 144.989 86.5857 144.52C86.0951 144.051 85.8497 143.496 85.8497 142.856ZM89.0017 143.64C89.5031 143.64 89.9137 143.501 90.2337 143.224C90.5644 142.936 90.7297 142.467 90.7297 141.816V141.464L88.9537 141.736C88.3031 141.832 87.9777 142.163 87.9777 142.728C87.9777 142.984 88.0684 143.203 88.2497 143.384C88.4311 143.555 88.6817 143.64 89.0017 143.64ZM97.1828 145H95.0548V133.416H97.1828V145ZM111.47 145L110.526 142.408H105.918L104.974 145H102.638L106.99 133.656H109.55L113.87 145H111.47ZM108.222 136.104L106.654 140.392H109.79L108.222 136.104ZM120.116 145C120.073 144.787 120.052 144.504 120.052 144.152C119.849 144.504 119.545 144.771 119.14 144.952C118.745 145.123 118.324 145.208 117.876 145.208C116.948 145.208 116.217 144.915 115.684 144.328C115.151 143.731 114.884 142.989 114.884 142.104V137.128H117.012V141.672C117.012 142.141 117.135 142.525 117.38 142.824C117.625 143.112 117.983 143.256 118.452 143.256C118.911 143.256 119.273 143.117 119.54 142.84C119.807 142.552 119.94 142.173 119.94 141.704V137.128H122.068V143.576C122.068 144.077 122.095 144.552 122.148 145H120.116ZM131.912 133.416V143.576C131.912 144.099 131.933 144.573 131.976 145H129.944C129.891 144.733 129.864 144.429 129.864 144.088C129.683 144.419 129.395 144.685 129 144.888C128.616 145.091 128.168 145.192 127.656 145.192C126.536 145.192 125.613 144.803 124.888 144.024C124.173 143.235 123.816 142.243 123.816 141.048C123.816 139.885 124.168 138.909 124.872 138.12C125.587 137.331 126.493 136.936 127.592 136.936C128.723 136.936 129.464 137.261 129.816 137.912V133.416H131.912ZM125.96 141.048C125.96 141.741 126.141 142.291 126.504 142.696C126.867 143.091 127.336 143.288 127.912 143.288C128.477 143.288 128.941 143.085 129.304 142.68C129.667 142.275 129.848 141.725 129.848 141.032C129.848 140.349 129.667 139.816 129.304 139.432C128.941 139.037 128.477 138.84 127.912 138.84C127.347 138.84 126.877 139.037 126.504 139.432C126.141 139.827 125.96 140.365 125.96 141.048ZM136.448 145H134.32V137.128H136.448V145ZM134.064 134.552C134.064 134.189 134.192 133.88 134.448 133.624C134.704 133.357 135.014 133.224 135.376 133.224C135.739 133.224 136.048 133.352 136.304 133.608C136.56 133.864 136.688 134.179 136.688 134.552C136.688 134.904 136.56 135.208 136.304 135.464C136.048 135.72 135.739 135.848 135.376 135.848C135.014 135.848 134.704 135.72 134.448 135.464C134.192 135.208 134.064 134.904 134.064 134.552ZM141.451 134.776V137.128H143.035V139.016H141.451V142.312C141.451 142.643 141.525 142.877 141.675 143.016C141.824 143.155 142.059 143.224 142.379 143.224C142.667 143.224 142.885 143.203 143.035 143.16V144.92C142.725 145.048 142.325 145.112 141.835 145.112C141.067 145.112 140.459 144.899 140.011 144.472C139.563 144.035 139.339 143.437 139.339 142.68V139.016H137.915V137.128H138.315C138.709 137.128 139.008 137.016 139.211 136.792C139.424 136.557 139.531 136.253 139.531 135.88V134.776H141.451ZM48.928 160.36L46.944 160.968C46.8693 160.563 46.6667 160.195 46.336 159.864C46.0053 159.533 45.52 159.368 44.88 159.368C44.3573 159.368 43.9307 159.512 43.6 159.8C43.2693 160.077 43.104 160.413 43.104 160.808C43.104 161.501 43.5147 161.928 44.336 162.088L45.92 162.392C46.9227 162.584 47.7013 162.984 48.256 163.592C48.8107 164.2 49.088 164.915 49.088 165.736C49.088 166.675 48.7147 167.496 47.968 168.2C47.232 168.893 46.24 169.24 44.992 169.24C44.2773 169.24 43.632 169.133 43.056 168.92C42.48 168.707 42.016 168.424 41.664 168.072C41.312 167.709 41.0347 167.331 40.832 166.936C40.64 166.531 40.5227 166.115 40.48 165.688L42.528 165.144C42.5813 165.752 42.816 166.259 43.232 166.664C43.6587 167.069 44.2507 167.272 45.008 167.272C45.584 167.272 46.032 167.144 46.352 166.888C46.6827 166.632 46.848 166.296 46.848 165.88C46.848 165.549 46.7253 165.267 46.48 165.032C46.2453 164.787 45.9093 164.621 45.472 164.536L43.888 164.216C42.9707 164.024 42.2453 163.645 41.712 163.08C41.1787 162.515 40.912 161.811 40.912 160.968C40.912 159.965 41.296 159.123 42.064 158.44C42.8427 157.757 43.776 157.416 44.864 157.416C45.5147 157.416 46.096 157.507 46.608 157.688C47.12 157.869 47.5307 158.115 47.84 158.424C48.1493 158.723 48.3893 159.032 48.56 159.352C48.7307 159.672 48.8533 160.008 48.928 160.36ZM53.5944 158.776V161.128H55.1784V163.016H53.5944V166.312C53.5944 166.643 53.669 166.877 53.8184 167.016C53.9677 167.155 54.2024 167.224 54.5224 167.224C54.8104 167.224 55.029 167.203 55.1784 167.16V168.92C54.869 169.048 54.469 169.112 53.9784 169.112C53.2104 169.112 52.6024 168.899 52.1544 168.472C51.7064 168.035 51.4824 167.437 51.4824 166.68V163.016H50.0584V161.128H50.4584C50.853 161.128 51.1517 161.016 51.3544 160.792C51.5677 160.557 51.6744 160.253 51.6744 159.88V158.776H53.5944ZM61.7766 161.096V163.24C61.5633 163.197 61.35 163.176 61.1366 163.176C60.5286 163.176 60.038 163.352 59.6646 163.704C59.2913 164.045 59.1046 164.611 59.1046 165.4V169H56.9766V161.128H59.0406V162.296C59.4246 161.475 60.1713 161.064 61.2806 161.064C61.398 161.064 61.5633 161.075 61.7766 161.096ZM64.8474 164.168H68.3674C68.346 163.731 68.186 163.363 67.8874 163.064C67.5994 162.765 67.1727 162.616 66.6074 162.616C66.0954 162.616 65.6794 162.776 65.3594 163.096C65.0394 163.416 64.8687 163.773 64.8474 164.168ZM68.5754 166.216L70.3514 166.744C70.138 167.469 69.7167 168.067 69.0874 168.536C68.4687 169.005 67.6954 169.24 66.7674 169.24C65.6367 169.24 64.6767 168.861 63.8874 168.104C63.098 167.336 62.7034 166.312 62.7034 165.032C62.7034 163.816 63.0874 162.824 63.8554 162.056C64.6234 161.277 65.53 160.888 66.5754 160.888C67.7914 160.888 68.7407 161.251 69.4234 161.976C70.1167 162.701 70.4634 163.699 70.4634 164.968C70.4634 165.053 70.458 165.149 70.4474 165.256C70.4474 165.363 70.4474 165.448 70.4474 165.512L70.4314 165.624H64.7994C64.8207 166.136 65.0234 166.563 65.4074 166.904C65.7914 167.245 66.25 167.416 66.7834 167.416C67.69 167.416 68.2874 167.016 68.5754 166.216ZM71.7591 166.856C71.7591 166.184 71.9778 165.645 72.4151 165.24C72.8525 164.835 73.4178 164.579 74.1111 164.472L76.0471 164.184C76.4418 164.131 76.6391 163.944 76.6391 163.624C76.6391 163.325 76.5218 163.08 76.2871 162.888C76.0631 162.696 75.7378 162.6 75.3111 162.6C74.8631 162.6 74.5058 162.723 74.2391 162.968C73.9831 163.213 73.8391 163.517 73.8071 163.88L71.9191 163.48C71.9938 162.797 72.3298 162.195 72.9271 161.672C73.5245 161.149 74.3138 160.888 75.2951 160.888C76.4685 160.888 77.3325 161.171 77.8871 161.736C78.4418 162.291 78.7191 163.005 78.7191 163.88V167.752C78.7191 168.221 78.7511 168.637 78.8151 169H76.8631C76.8098 168.765 76.7831 168.451 76.7831 168.056C76.2818 168.835 75.5085 169.224 74.4631 169.224C73.6525 169.224 72.9965 168.989 72.4951 168.52C72.0045 168.051 71.7591 167.496 71.7591 166.856ZM74.9111 167.64C75.4125 167.64 75.8231 167.501 76.1431 167.224C76.4738 166.936 76.6391 166.467 76.6391 165.816V165.464L74.8631 165.736C74.2125 165.832 73.8871 166.163 73.8871 166.728C73.8871 166.984 73.9778 167.203 74.1591 167.384C74.3405 167.555 74.5911 167.64 74.9111 167.64ZM83.0921 169H80.9641V161.128H82.9961V162.088C83.1988 161.725 83.5188 161.437 83.9561 161.224C84.3935 161.011 84.8415 160.904 85.3001 160.904C86.4415 160.904 87.2201 161.341 87.6361 162.216C88.2015 161.341 89.0335 160.904 90.1321 160.904C90.9321 160.904 91.6041 161.155 92.1481 161.656C92.7028 162.157 92.9801 162.904 92.9801 163.896V169H90.9161V164.328C90.9161 163.88 90.7988 163.523 90.5641 163.256C90.3401 162.979 89.9935 162.84 89.5241 162.84C89.0868 162.84 88.7348 162.989 88.4681 163.288C88.2015 163.587 88.0681 163.955 88.0681 164.392V169H85.9561V164.328C85.9561 163.88 85.8388 163.523 85.6041 163.256C85.3695 162.979 85.0228 162.84 84.5641 162.84C84.1161 162.84 83.7588 162.989 83.4921 163.288C83.2255 163.576 83.0921 163.944 83.0921 164.392V169ZM97.364 169H95.236V157.416H97.364V169ZM101.87 169H99.7423V161.128H101.87V169ZM99.4863 158.552C99.4863 158.189 99.6143 157.88 99.8703 157.624C100.126 157.357 100.436 157.224 100.798 157.224C101.161 157.224 101.47 157.352 101.726 157.608C101.982 157.864 102.11 158.179 102.11 158.552C102.11 158.904 101.982 159.208 101.726 159.464C101.47 159.72 101.161 159.848 100.798 159.848C100.436 159.848 100.126 159.72 99.8703 159.464C99.6143 159.208 99.4863 158.904 99.4863 158.552ZM106.376 164.472V169H104.248V161.128H106.312V162.104C106.536 161.72 106.856 161.427 107.272 161.224C107.688 161.021 108.126 160.92 108.584 160.92C109.512 160.92 110.216 161.213 110.696 161.8C111.187 162.376 111.432 163.123 111.432 164.04V169H109.304V164.408C109.304 163.939 109.182 163.56 108.936 163.272C108.702 162.984 108.339 162.84 107.848 162.84C107.4 162.84 107.043 162.995 106.776 163.304C106.51 163.613 106.376 164.003 106.376 164.472ZM115.244 164.168H118.764C118.743 163.731 118.583 163.363 118.284 163.064C117.996 162.765 117.57 162.616 117.004 162.616C116.492 162.616 116.076 162.776 115.756 163.096C115.436 163.416 115.266 163.773 115.244 164.168ZM118.972 166.216L120.748 166.744C120.535 167.469 120.114 168.067 119.484 168.536C118.866 169.005 118.092 169.24 117.164 169.24C116.034 169.24 115.074 168.861 114.284 168.104C113.495 167.336 113.1 166.312 113.1 165.032C113.1 163.816 113.484 162.824 114.252 162.056C115.02 161.277 115.927 160.888 116.972 160.888C118.188 160.888 119.138 161.251 119.82 161.976C120.514 162.701 120.86 163.699 120.86 164.968C120.86 165.053 120.855 165.149 120.844 165.256C120.844 165.363 120.844 165.448 120.844 165.512L120.828 165.624H115.196C115.218 166.136 115.42 166.563 115.804 166.904C116.188 167.245 116.647 167.416 117.18 167.416C118.087 167.416 118.684 167.016 118.972 166.216ZM130.14 157.416V167.576C130.14 168.099 130.161 168.573 130.204 169H128.172C128.119 168.733 128.092 168.429 128.092 168.088C127.911 168.419 127.623 168.685 127.228 168.888C126.844 169.091 126.396 169.192 125.884 169.192C124.764 169.192 123.841 168.803 123.116 168.024C122.401 167.235 122.044 166.243 122.044 165.048C122.044 163.885 122.396 162.909 123.1 162.12C123.815 161.331 124.721 160.936 125.82 160.936C126.951 160.936 127.692 161.261 128.044 161.912V157.416H130.14ZM124.188 165.048C124.188 165.741 124.369 166.291 124.732 166.696C125.095 167.091 125.564 167.288 126.14 167.288C126.705 167.288 127.169 167.085 127.532 166.68C127.895 166.275 128.076 165.725 128.076 165.032C128.076 164.349 127.895 163.816 127.532 163.432C127.169 163.037 126.705 162.84 126.14 162.84C125.575 162.84 125.105 163.037 124.732 163.432C124.369 163.827 124.188 164.365 124.188 165.048Z" fill="#252B42"/>
<rect x="40" y="195" width="50" height="2" fill="#E74040"/>
<path d="M45.054 223.726V232H43.402V223.726H40.434V222.214H48.022V223.726H45.054ZM51.2829 227.968V232H49.7149V221.626H51.2829V225.91C51.5069 225.453 51.8429 225.093 52.2909 224.832C52.7482 224.571 53.2382 224.44 53.7609 224.44C54.6009 224.44 55.2775 224.697 55.7909 225.21C56.3135 225.723 56.5749 226.465 56.5749 227.436V232H55.0069V227.912C55.0069 226.54 54.4375 225.854 53.2989 225.854C52.7575 225.854 52.2862 226.036 51.8849 226.4C51.4835 226.755 51.2829 227.277 51.2829 227.968ZM65.8956 228.962H60.0576C60.095 229.503 60.3423 229.942 60.7996 230.278C61.257 230.605 61.7796 230.768 62.3676 230.768C63.301 230.768 64.0103 230.474 64.4956 229.886L65.3916 230.866C64.589 231.697 63.5436 232.112 62.2556 232.112C61.2103 232.112 60.319 231.767 59.5816 231.076C58.8536 230.376 58.4896 229.443 58.4896 228.276C58.4896 227.1 58.863 226.167 59.6096 225.476C60.3563 224.785 61.2336 224.44 62.2416 224.44C63.259 224.44 64.1223 224.748 64.8316 225.364C65.541 225.971 65.8956 226.811 65.8956 227.884V228.962ZM60.0576 227.73H64.3276C64.3276 227.105 64.1316 226.624 63.7396 226.288C63.3476 225.952 62.8623 225.784 62.2836 225.784C61.7143 225.784 61.201 225.961 60.7436 226.316C60.2863 226.661 60.0576 227.133 60.0576 227.73ZM78.7497 224.552V231.048C78.7497 232.364 78.3904 233.349 77.6717 234.002C76.9624 234.665 76.0477 234.996 74.9277 234.996C73.8077 234.996 72.7951 234.646 71.8897 233.946L72.6317 232.756C73.3597 233.307 74.0924 233.582 74.8297 233.582C75.5764 233.582 76.1644 233.391 76.5937 233.008C77.0324 232.625 77.2517 232.014 77.2517 231.174V230.222C77.0184 230.661 76.6824 231.011 76.2437 231.272C75.8144 231.533 75.3291 231.664 74.7877 231.664C73.7984 231.664 72.9864 231.319 72.3517 230.628C71.7171 229.937 71.3997 229.079 71.3997 228.052C71.3997 227.025 71.7171 226.167 72.3517 225.476C72.9864 224.785 73.7937 224.44 74.7737 224.44C75.7631 224.44 76.5657 224.846 77.1817 225.658V224.552H78.7497ZM72.9397 227.996C72.9397 228.603 73.1264 229.13 73.4997 229.578C73.8824 230.017 74.3911 230.236 75.0257 230.236C75.6697 230.236 76.1877 230.021 76.5797 229.592C76.9811 229.163 77.1817 228.631 77.1817 227.996C77.1817 227.352 76.9811 226.811 76.5797 226.372C76.1784 225.924 75.6604 225.7 75.0257 225.7C74.3911 225.7 73.8824 225.929 73.4997 226.386C73.1264 226.843 72.9397 227.38 72.9397 227.996ZM85.1279 226.022C84.3532 226.022 83.7699 226.274 83.3779 226.778C82.9859 227.282 82.7899 227.959 82.7899 228.808V232H81.2219V224.552H82.7899V226.05C83.0419 225.583 83.3826 225.201 83.8119 224.902C84.2506 224.603 84.7126 224.449 85.1979 224.44L85.2119 226.022C85.1839 226.022 85.1559 226.022 85.1279 226.022ZM92.952 232H91.524V231.006C90.908 231.743 90.082 232.112 89.046 232.112C88.2713 232.112 87.6273 231.893 87.114 231.454C86.61 231.015 86.358 230.432 86.358 229.704C86.358 228.967 86.6287 228.416 87.17 228.052C87.7113 227.688 88.444 227.506 89.368 227.506H91.398V227.226C91.398 226.237 90.8473 225.742 89.746 225.742C89.0553 225.742 88.3367 225.994 87.59 226.498L86.89 225.518C87.7953 224.799 88.822 224.44 89.97 224.44C90.8473 224.44 91.5613 224.664 92.112 225.112C92.672 225.551 92.952 226.246 92.952 227.198V232ZM91.384 229.228V228.598H89.62C88.4907 228.598 87.926 228.953 87.926 229.662C87.926 230.026 88.066 230.306 88.346 230.502C88.626 230.689 89.0133 230.782 89.508 230.782C90.012 230.782 90.4507 230.642 90.824 230.362C91.1973 230.082 91.384 229.704 91.384 229.228ZM98.3728 232.112C97.4301 232.112 96.6088 231.757 95.9088 231.048C95.2088 230.339 94.8588 229.405 94.8588 228.248C94.8588 227.091 95.2181 226.167 95.9368 225.476C96.6554 224.785 97.5094 224.44 98.4988 224.44C99.4974 224.44 100.3 224.86 100.907 225.7V221.612H102.475V232H100.907V230.88C100.328 231.701 99.4834 232.112 98.3728 232.112ZM96.4268 228.318C96.4268 229.027 96.6554 229.606 97.1128 230.054C97.5701 230.502 98.1068 230.726 98.7228 230.726C99.3388 230.726 99.8614 230.502 100.291 230.054C100.72 229.597 100.935 229.013 100.935 228.304C100.935 227.595 100.72 227.002 100.291 226.526C99.8614 226.05 99.3341 225.812 98.7088 225.812C98.0834 225.812 97.5468 226.05 97.0988 226.526C96.6508 227.002 96.4268 227.599 96.4268 228.318ZM110.149 228.584V224.552H111.717V232H110.149V230.642C109.897 231.099 109.547 231.459 109.099 231.72C108.66 231.981 108.184 232.112 107.671 232.112C106.831 232.112 106.15 231.855 105.627 231.342C105.114 230.829 104.857 230.087 104.857 229.116V224.552H106.425V228.64C106.425 230.012 106.994 230.698 108.133 230.698C108.674 230.698 109.146 230.521 109.547 230.166C109.948 229.802 110.149 229.275 110.149 228.584ZM120.226 232H118.798V231.006C118.182 231.743 117.356 232.112 116.32 232.112C115.545 232.112 114.901 231.893 114.388 231.454C113.884 231.015 113.632 230.432 113.632 229.704C113.632 228.967 113.902 228.416 114.444 228.052C114.985 227.688 115.718 227.506 116.642 227.506H118.672V227.226C118.672 226.237 118.121 225.742 117.02 225.742C116.329 225.742 115.61 225.994 114.864 226.498L114.164 225.518C115.069 224.799 116.096 224.44 117.244 224.44C118.121 224.44 118.835 224.664 119.386 225.112C119.946 225.551 120.226 226.246 120.226 227.198V232ZM118.658 229.228V228.598H116.894C115.764 228.598 115.2 228.953 115.2 229.662C115.2 230.026 115.34 230.306 115.62 230.502C115.9 230.689 116.287 230.782 116.782 230.782C117.286 230.782 117.724 230.642 118.098 230.362C118.471 230.082 118.658 229.704 118.658 229.228ZM124.177 232H122.609V221.612H124.177V232ZM47.168 252H45.74V251.006C45.124 251.743 44.298 252.112 43.262 252.112C42.4873 252.112 41.8433 251.893 41.33 251.454C40.826 251.015 40.574 250.432 40.574 249.704C40.574 248.967 40.8447 248.416 41.386 248.052C41.9273 247.688 42.66 247.506 43.584 247.506H45.614V247.226C45.614 246.237 45.0633 245.742 43.962 245.742C43.2713 245.742 42.5527 245.994 41.806 246.498L41.106 245.518C42.0113 244.799 43.038 244.44 44.186 244.44C45.0633 244.44 45.7773 244.664 46.328 245.112C46.888 245.551 47.168 246.246 47.168 247.198V252ZM45.6 249.228V248.598H43.836C42.7067 248.598 42.142 248.953 42.142 249.662C42.142 250.026 42.282 250.306 42.562 250.502C42.842 250.689 43.2293 250.782 43.724 250.782C44.228 250.782 44.6667 250.642 45.04 250.362C45.4133 250.082 45.6 249.704 45.6 249.228ZM52.8548 252.112C51.8188 252.112 50.9275 251.762 50.1808 251.062C49.4341 250.353 49.0608 249.429 49.0608 248.29C49.0608 247.151 49.4481 246.227 50.2228 245.518C51.0068 244.799 51.9588 244.44 53.0788 244.44C54.1988 244.44 55.1461 244.827 55.9208 245.602L54.9968 246.736C54.3528 246.176 53.7041 245.896 53.0508 245.896C52.3975 245.896 51.8281 246.115 51.3428 246.554C50.8668 246.983 50.6288 247.543 50.6288 248.234C50.6288 248.915 50.8668 249.494 51.3428 249.97C51.8188 250.446 52.4021 250.684 53.0928 250.684C53.7928 250.684 54.4508 250.367 55.0668 249.732L55.9908 250.74C55.0855 251.655 54.0401 252.112 52.8548 252.112ZM61.1212 252.112C60.0852 252.112 59.1939 251.762 58.4472 251.062C57.7005 250.353 57.3272 249.429 57.3272 248.29C57.3272 247.151 57.7145 246.227 58.4892 245.518C59.2732 244.799 60.2252 244.44 61.3452 244.44C62.4652 244.44 63.4125 244.827 64.1872 245.602L63.2632 246.736C62.6192 246.176 61.9705 245.896 61.3172 245.896C60.6639 245.896 60.0945 246.115 59.6092 246.554C59.1332 246.983 58.8952 247.543 58.8952 248.234C58.8952 248.915 59.1332 249.494 59.6092 249.97C60.0852 250.446 60.6685 250.684 61.3592 250.684C62.0592 250.684 62.7172 250.367 63.3332 249.732L64.2572 250.74C63.3519 251.655 62.3065 252.112 61.1212 252.112ZM71.2916 248.584V244.552H72.8596V252H71.2916V250.642C71.0396 251.099 70.6896 251.459 70.2416 251.72C69.8029 251.981 69.3269 252.112 68.8136 252.112C67.9736 252.112 67.2923 251.855 66.7696 251.342C66.2563 250.829 65.9996 250.087 65.9996 249.116V244.552H67.5676V248.64C67.5676 250.012 68.1369 250.698 69.2756 250.698C69.8169 250.698 70.2883 250.521 70.6896 250.166C71.0909 249.802 71.2916 249.275 71.2916 248.584ZM76.9024 247.968V252H75.3344V244.552H76.9024V245.91C77.1264 245.453 77.4624 245.093 77.9104 244.832C78.3677 244.571 78.8577 244.44 79.3804 244.44C80.5564 244.44 81.3544 244.925 81.7744 245.896C82.5117 244.925 83.4311 244.44 84.5324 244.44C85.3724 244.44 86.0491 244.697 86.5624 245.21C87.0851 245.723 87.3464 246.465 87.3464 247.436V252H85.7784V247.912C85.7784 246.54 85.2091 245.854 84.0704 245.854C83.5384 245.854 83.0717 246.027 82.6704 246.372C82.2784 246.708 82.0731 247.203 82.0544 247.856V252H80.4864V247.912C80.4864 247.203 80.3604 246.685 80.1084 246.358C79.8564 246.022 79.4597 245.854 78.9184 245.854C78.3771 245.854 77.9057 246.036 77.5044 246.4C77.1031 246.755 76.9024 247.277 76.9024 247.968ZM94.9338 248.584V244.552H96.5018V252H94.9338V250.642C94.6818 251.099 94.3318 251.459 93.8838 251.72C93.4451 251.981 92.9691 252.112 92.4558 252.112C91.6158 252.112 90.9345 251.855 90.4118 251.342C89.8985 250.829 89.6418 250.087 89.6418 249.116V244.552H91.2098V248.64C91.2098 250.012 91.7791 250.698 92.9178 250.698C93.4591 250.698 93.9305 250.521 94.3318 250.166C94.7331 249.802 94.9338 249.275 94.9338 248.584ZM100.545 252H98.9766V241.612H100.545V252ZM109.052 252H107.624V251.006C107.008 251.743 106.182 252.112 105.146 252.112C104.372 252.112 103.728 251.893 103.214 251.454C102.71 251.015 102.458 250.432 102.458 249.704C102.458 248.967 102.729 248.416 103.27 248.052C103.812 247.688 104.544 247.506 105.468 247.506H107.498V247.226C107.498 246.237 106.948 245.742 105.846 245.742C105.156 245.742 104.437 245.994 103.69 246.498L102.99 245.518C103.896 244.799 104.922 244.44 106.07 244.44C106.948 244.44 107.662 244.664 108.212 245.112C108.772 245.551 109.052 246.246 109.052 247.198V252ZM107.484 249.228V248.598H105.72C104.591 248.598 104.026 248.953 104.026 249.662C104.026 250.026 104.166 250.306 104.446 250.502C104.726 250.689 105.114 250.782 105.608 250.782C106.112 250.782 106.551 250.642 106.924 250.362C107.298 250.082 107.484 249.704 107.484 249.228ZM113.285 245.812V249.592C113.285 249.947 113.378 250.231 113.565 250.446C113.752 250.651 114.013 250.754 114.349 250.754C114.685 250.754 115.007 250.591 115.315 250.264L115.959 251.37C115.408 251.865 114.797 252.112 114.125 252.112C113.462 252.112 112.893 251.883 112.417 251.426C111.95 250.959 111.717 250.334 111.717 249.55V245.812H110.779V244.552H111.717V242.214H113.285V244.552H115.245V245.812H113.285ZM118.973 252H117.405V244.552H118.973V252ZM117.503 243.068C117.307 242.872 117.209 242.639 117.209 242.368C117.209 242.097 117.307 241.864 117.503 241.668C117.699 241.472 117.932 241.374 118.203 241.374C118.473 241.374 118.707 241.472 118.903 241.668C119.099 241.864 119.197 242.097 119.197 242.368C119.197 242.639 119.099 242.872 118.903 243.068C118.707 243.264 118.473 243.362 118.203 243.362C117.932 243.362 117.699 243.264 117.503 243.068ZM123.183 250.04C123.631 250.488 124.195 250.712 124.877 250.712C125.558 250.712 126.118 250.488 126.557 250.04C127.005 249.583 127.229 248.995 127.229 248.276C127.229 247.557 127.005 246.974 126.557 246.526C126.118 246.069 125.558 245.84 124.877 245.84C124.195 245.84 123.631 246.069 123.183 246.526C122.744 246.974 122.525 247.557 122.525 248.276C122.525 248.995 122.744 249.583 123.183 250.04ZM127.677 251.006C126.93 251.743 125.997 252.112 124.877 252.112C123.757 252.112 122.823 251.743 122.077 251.006C121.33 250.259 120.957 249.349 120.957 248.276C120.957 247.203 121.33 246.297 122.077 245.56C122.823 244.813 123.757 244.44 124.877 244.44C125.997 244.44 126.93 244.813 127.677 245.56C128.423 246.297 128.797 247.203 128.797 248.276C128.797 249.349 128.423 250.259 127.677 251.006ZM132.347 247.968V252H130.779V244.552H132.347V245.91C132.599 245.453 132.945 245.093 133.383 244.832C133.831 244.571 134.312 244.44 134.825 244.44C135.665 244.44 136.342 244.697 136.855 245.21C137.378 245.723 137.639 246.465 137.639 247.436V252H136.071V247.912C136.071 246.54 135.502 245.854 134.363 245.854C133.822 245.854 133.351 246.036 132.949 246.4C132.548 246.755 132.347 247.277 132.347 247.968ZM145.808 250.04C146.256 250.488 146.821 250.712 147.502 250.712C148.183 250.712 148.743 250.488 149.182 250.04C149.63 249.583 149.854 248.995 149.854 248.276C149.854 247.557 149.63 246.974 149.182 246.526C148.743 246.069 148.183 245.84 147.502 245.84C146.821 245.84 146.256 246.069 145.808 246.526C145.369 246.974 145.15 247.557 145.15 248.276C145.15 248.995 145.369 249.583 145.808 250.04ZM150.302 251.006C149.555 251.743 148.622 252.112 147.502 252.112C146.382 252.112 145.449 251.743 144.702 251.006C143.955 250.259 143.582 249.349 143.582 248.276C143.582 247.203 143.955 246.297 144.702 245.56C145.449 244.813 146.382 244.44 147.502 244.44C148.622 244.44 149.555 244.813 150.302 245.56C151.049 246.297 151.422 247.203 151.422 248.276C151.422 249.349 151.049 250.259 150.302 251.006ZM155.227 243.936V244.552H157.187V245.812H155.227V252H153.659V245.812H152.721V244.552H153.659V243.978C153.659 243.194 153.893 242.573 154.359 242.116C154.835 241.649 155.405 241.416 156.067 241.416C156.739 241.416 157.351 241.663 157.901 242.158L157.257 243.264C156.949 242.937 156.627 242.774 156.291 242.774C155.955 242.774 155.694 242.881 155.507 243.096C155.321 243.301 155.227 243.581 155.227 243.936ZM42.702 272H41.134V264.552H42.702V272ZM41.232 263.068C41.036 262.872 40.938 262.639 40.938 262.368C40.938 262.097 41.036 261.864 41.232 261.668C41.428 261.472 41.6613 261.374 41.932 261.374C42.2027 261.374 42.436 261.472 42.632 261.668C42.828 261.864 42.926 262.097 42.926 262.368C42.926 262.639 42.828 262.872 42.632 263.068C42.436 263.264 42.2027 263.362 41.932 263.362C41.6613 263.362 41.428 263.264 41.232 263.068ZM46.7438 267.968V272H45.1758V264.552H46.7438V265.91C46.9958 265.453 47.3411 265.093 47.7798 264.832C48.2278 264.571 48.7085 264.44 49.2218 264.44C50.0618 264.44 50.7385 264.697 51.2518 265.21C51.7745 265.723 52.0358 266.465 52.0358 267.436V272H50.4678V267.912C50.4678 266.54 49.8985 265.854 48.7598 265.854C48.2185 265.854 47.7471 266.036 47.3458 266.4C46.9445 266.755 46.7438 267.277 46.7438 267.968ZM56.2902 263.936V264.552H58.2502V265.812H56.2902V272H54.7222V265.812H53.7842V264.552H54.7222V263.978C54.7222 263.194 54.9556 262.573 55.4222 262.116C55.8982 261.649 56.4676 261.416 57.1302 261.416C57.8022 261.416 58.4136 261.663 58.9642 262.158L58.3202 263.264C58.0122 262.937 57.6902 262.774 57.3542 262.774C57.0182 262.774 56.7569 262.881 56.5702 263.096C56.3836 263.301 56.2902 263.581 56.2902 263.936ZM61.5169 270.04C61.9649 270.488 62.5295 270.712 63.2109 270.712C63.8922 270.712 64.4522 270.488 64.8909 270.04C65.3389 269.583 65.5629 268.995 65.5629 268.276C65.5629 267.557 65.3389 266.974 64.8909 266.526C64.4522 266.069 63.8922 265.84 63.2109 265.84C62.5295 265.84 61.9649 266.069 61.5169 266.526C61.0782 266.974 60.8589 267.557 60.8589 268.276C60.8589 268.995 61.0782 269.583 61.5169 270.04ZM66.0109 271.006C65.2642 271.743 64.3309 272.112 63.2109 272.112C62.0909 272.112 61.1575 271.743 60.4109 271.006C59.6642 270.259 59.2909 269.349 59.2909 268.276C59.2909 267.203 59.6642 266.297 60.4109 265.56C61.1575 264.813 62.0909 264.44 63.2109 264.44C64.3309 264.44 65.2642 264.813 66.0109 265.56C66.7575 266.297 67.1309 267.203 67.1309 268.276C67.1309 269.349 66.7575 270.259 66.0109 271.006ZM73.0197 266.022C72.245 266.022 71.6617 266.274 71.2697 266.778C70.8777 267.282 70.6817 267.959 70.6817 268.808V272H69.1137V264.552H70.6817V266.05C70.9337 265.583 71.2744 265.201 71.7037 264.902C72.1424 264.603 72.6044 264.449 73.0897 264.44L73.1037 266.022C73.0757 266.022 73.0477 266.022 73.0197 266.022ZM76.4461 267.968V272H74.8781V264.552H76.4461V265.91C76.6701 265.453 77.0061 265.093 77.4541 264.832C77.9115 264.571 78.4015 264.44 78.9241 264.44C80.1001 264.44 80.8981 264.925 81.3181 265.896C82.0555 264.925 82.9748 264.44 84.0761 264.44C84.9161 264.44 85.5928 264.697 86.1061 265.21C86.6288 265.723 86.8901 266.465 86.8901 267.436V272H85.3221V267.912C85.3221 266.54 84.7528 265.854 83.6141 265.854C83.0821 265.854 82.6155 266.027 82.2141 266.372C81.8221 266.708 81.6168 267.203 81.5981 267.856V272H80.0301V267.912C80.0301 267.203 79.9041 266.685 79.6521 266.358C79.4001 266.022 79.0035 265.854 78.4621 265.854C77.9208 265.854 77.4495 266.036 77.0481 266.4C76.6468 266.755 76.4461 267.277 76.4461 267.968ZM95.3035 272H93.8755V271.006C93.2595 271.743 92.4335 272.112 91.3975 272.112C90.6229 272.112 89.9789 271.893 89.4655 271.454C88.9615 271.015 88.7095 270.432 88.7095 269.704C88.7095 268.967 88.9802 268.416 89.5215 268.052C90.0629 267.688 90.7955 267.506 91.7195 267.506H93.7495V267.226C93.7495 266.237 93.1989 265.742 92.0975 265.742C91.4069 265.742 90.6882 265.994 89.9415 266.498L89.2415 265.518C90.1469 264.799 91.1735 264.44 92.3215 264.44C93.1989 264.44 93.9129 264.664 94.4635 265.112C95.0235 265.551 95.3035 266.246 95.3035 267.198V272ZM93.7355 269.228V268.598H91.9715C90.8422 268.598 90.2775 268.953 90.2775 269.662C90.2775 270.026 90.4175 270.306 90.6975 270.502C90.9775 270.689 91.3649 270.782 91.8595 270.782C92.3635 270.782 92.8022 270.642 93.1755 270.362C93.5489 270.082 93.7355 269.704 93.7355 269.228ZM99.5363 265.812V269.592C99.5363 269.947 99.6296 270.231 99.8163 270.446C100.003 270.651 100.264 270.754 100.6 270.754C100.936 270.754 101.258 270.591 101.566 270.264L102.21 271.37C101.66 271.865 101.048 272.112 100.376 272.112C99.7136 272.112 99.1443 271.883 98.6683 271.426C98.2016 270.959 97.9683 270.334 97.9683 269.55V265.812H97.0303V264.552H97.9683V262.214H99.5363V264.552H101.496V265.812H99.5363ZM105.224 272H103.656V264.552H105.224V272ZM103.754 263.068C103.558 262.872 103.46 262.639 103.46 262.368C103.46 262.097 103.558 261.864 103.754 261.668C103.95 261.472 104.183 261.374 104.454 261.374C104.725 261.374 104.958 261.472 105.154 261.668C105.35 261.864 105.448 262.097 105.448 262.368C105.448 262.639 105.35 262.872 105.154 263.068C104.958 263.264 104.725 263.362 104.454 263.362C104.183 263.362 103.95 263.264 103.754 263.068ZM109.434 270.04C109.882 270.488 110.446 270.712 111.128 270.712C111.809 270.712 112.369 270.488 112.808 270.04C113.256 269.583 113.48 268.995 113.48 268.276C113.48 267.557 113.256 266.974 112.808 266.526C112.369 266.069 111.809 265.84 111.128 265.84C110.446 265.84 109.882 266.069 109.434 266.526C108.995 266.974 108.776 267.557 108.776 268.276C108.776 268.995 108.995 269.583 109.434 270.04ZM113.928 271.006C113.181 271.743 112.248 272.112 111.128 272.112C110.008 272.112 109.074 271.743 108.328 271.006C107.581 270.259 107.208 269.349 107.208 268.276C107.208 267.203 107.581 266.297 108.328 265.56C109.074 264.813 110.008 264.44 111.128 264.44C112.248 264.44 113.181 264.813 113.928 265.56C114.674 266.297 115.048 267.203 115.048 268.276C115.048 269.349 114.674 270.259 113.928 271.006ZM118.598 267.968V272H117.03V264.552H118.598V265.91C118.85 265.453 119.196 265.093 119.634 264.832C120.082 264.571 120.563 264.44 121.076 264.44C121.916 264.44 122.593 264.697 123.106 265.21C123.629 265.723 123.89 266.465 123.89 267.436V272H122.322V267.912C122.322 266.54 121.753 265.854 120.614 265.854C120.073 265.854 119.602 266.036 119.2 266.4C118.799 266.755 118.598 267.277 118.598 267.968ZM136.357 272H134.929V271.006C134.313 271.743 133.487 272.112 132.451 272.112C131.676 272.112 131.032 271.893 130.519 271.454C130.015 271.015 129.763 270.432 129.763 269.704C129.763 268.967 130.034 268.416 130.575 268.052C131.116 267.688 131.849 267.506 132.773 267.506H134.803V267.226C134.803 266.237 134.252 265.742 133.151 265.742C132.46 265.742 131.742 265.994 130.995 266.498L130.295 265.518C131.2 264.799 132.227 264.44 133.375 264.44C134.252 264.44 134.966 264.664 135.517 265.112C136.077 265.551 136.357 266.246 136.357 267.198V272ZM134.789 269.228V268.598H133.025C131.896 268.598 131.331 268.953 131.331 269.662C131.331 270.026 131.471 270.306 131.751 270.502C132.031 270.689 132.418 270.782 132.913 270.782C133.417 270.782 133.856 270.642 134.229 270.362C134.602 270.082 134.789 269.704 134.789 269.228ZM142.73 264.44C143.729 264.44 144.583 264.785 145.292 265.476C146.001 266.167 146.356 267.086 146.356 268.234C146.356 269.382 146.001 270.315 145.292 271.034C144.592 271.753 143.771 272.112 142.828 272.112C141.895 272.112 141.055 271.701 140.308 270.88V272H138.74V261.612H140.308V265.854C140.924 264.911 141.731 264.44 142.73 264.44ZM140.28 268.29C140.28 268.999 140.495 269.583 140.924 270.04C141.353 270.488 141.876 270.712 142.492 270.712C143.108 270.712 143.645 270.488 144.102 270.04C144.559 269.592 144.788 269.013 144.788 268.304C144.788 267.585 144.564 266.993 144.116 266.526C143.668 266.05 143.131 265.812 142.506 265.812C141.881 265.812 141.353 266.05 140.924 266.526C140.495 266.993 140.28 267.581 140.28 268.29ZM150.082 270.04C150.53 270.488 151.095 270.712 151.776 270.712C152.457 270.712 153.017 270.488 153.456 270.04C153.904 269.583 154.128 268.995 154.128 268.276C154.128 267.557 153.904 266.974 153.456 266.526C153.017 266.069 152.457 265.84 151.776 265.84C151.095 265.84 150.53 266.069 150.082 266.526C149.643 266.974 149.424 267.557 149.424 268.276C149.424 268.995 149.643 269.583 150.082 270.04ZM154.576 271.006C153.829 271.743 152.896 272.112 151.776 272.112C150.656 272.112 149.723 271.743 148.976 271.006C148.229 270.259 147.856 269.349 147.856 268.276C147.856 267.203 148.229 266.297 148.976 265.56C149.723 264.813 150.656 264.44 151.776 264.44C152.896 264.44 153.829 264.813 154.576 265.56C155.323 266.297 155.696 267.203 155.696 268.276C155.696 269.349 155.323 270.259 154.576 271.006ZM162.887 268.584V264.552H164.455V272H162.887V270.642C162.635 271.099 162.285 271.459 161.837 271.72C161.398 271.981 160.922 272.112 160.409 272.112C159.569 272.112 158.888 271.855 158.365 271.342C157.852 270.829 157.595 270.087 157.595 269.116V264.552H159.163V268.64C159.163 270.012 159.732 270.698 160.871 270.698C161.412 270.698 161.884 270.521 162.285 270.166C162.686 269.802 162.887 269.275 162.887 268.584ZM168.862 265.812V269.592C168.862 269.947 168.955 270.231 169.142 270.446C169.328 270.651 169.59 270.754 169.926 270.754C170.262 270.754 170.584 270.591 170.892 270.264L171.536 271.37C170.985 271.865 170.374 272.112 169.702 272.112C169.039 272.112 168.47 271.883 167.994 271.426C167.527 270.959 167.294 270.334 167.294 269.55V265.812H166.356V264.552H167.294V262.214H168.862V264.552H170.822V265.812H168.862Z" fill="#737373"/>
<defs>
<clipPath id="clip0_4001_492">
<rect width="72" height="72" fill="white" transform="translate(40 35)"/>
</clipPath>
<clipPath id="clip1_4001_492">
<rect width="72" height="72" fill="white" transform="translate(40 35)"/>
</clipPath>
<clipPath id="clip2_4001_492">
<rect width="72" height="31.2" fill="white" transform="translate(40 35)"/>
</clipPath>
<clipPath id="clip3_4001_492">
<rect width="72" height="31.2" fill="white" transform="translate(40 35)"/>
</clipPath>
<clipPath id="clip4_4001_492">
<rect width="24" height="2.4" fill="white" transform="translate(79.6001 41)"/>
</clipPath>
<clipPath id="clip5_4001_492">
<rect width="24" height="2.4" fill="white" transform="translate(79.6001 41)"/>
</clipPath>
<clipPath id="clip6_4001_492">
<rect width="24" height="2.4" fill="white" transform="translate(83.2 48.2002)"/>
</clipPath>
<clipPath id="clip7_4001_492">
<rect width="24" height="2.4" fill="white" transform="translate(83.2 48.2002)"/>
</clipPath>
<clipPath id="clip8_4001_492">
<rect width="24" height="2.4" fill="white" transform="translate(78.3999 55.3999)"/>
</clipPath>
<clipPath id="clip9_4001_492">
<rect width="24" height="2.4" fill="white" transform="translate(78.3999 55.3999)"/>
</clipPath>
<clipPath id="clip10_4001_492">
<rect width="38.6023" height="67.2" fill="white" transform="translate(40 39.7998)"/>
</clipPath>
<clipPath id="clip11_4001_492">
<rect width="38.6023" height="67.2" fill="white" transform="translate(40 39.7998)"/>
</clipPath>
<clipPath id="clip12_4001_492">
<rect width="14.4" height="26.4572" fill="white" transform="translate(78.3999 80.543)"/>
</clipPath>
<clipPath id="clip13_4001_492">
<rect width="14.4" height="26.4572" fill="white" transform="translate(78.3999 80.543)"/>
</clipPath>
<clipPath id="clip14_4001_492">
<rect width="14.4" height="26.4572" fill="white" transform="translate(97.6001 80.543)"/>
</clipPath>
<clipPath id="clip15_4001_492">
<rect width="14.4" height="26.4572" fill="white" transform="translate(97.6001 80.543)"/>
</clipPath>
</defs>
</svg>
