<svg width="231" height="288" viewBox="0 0 231 288" fill="none" xmlns="http://www.w3.org/2000/svg">
<rect width="230" height="288" transform="translate(0.5)" fill="white"/>
<g clip-path="url(#clip0_4001_460)">
<g clip-path="url(#clip1_4001_460)">
<g clip-path="url(#clip2_4001_460)">
<path d="M106.671 72.7439C106.455 71.614 105.466 70.7969 104.316 70.7963H101.999L101.828 69.7751C101.658 68.7494 100.85 67.948 99.823 67.7867C99.595 67.7507 99.3646 67.7267 99.1378 67.6955C99.5308 65.8609 99.2043 63.9455 98.2258 62.3447C98.7428 61.0036 98.6463 59.5034 97.9618 58.2397C97.2773 56.9759 96.0735 56.0755 94.6678 55.7759C93.7691 50.9662 89.585 47.4701 84.6922 47.4406C84.5722 47.4406 84.4654 47.4563 84.3514 47.4599C83.5696 46.2321 82.2807 45.4172 80.8363 45.2376C79.3918 45.0579 77.9426 45.5322 76.8838 46.5311C75.5501 45.6641 73.9938 45.2019 72.403 45.2003C69.8399 45.2107 67.4242 46.4004 65.8534 48.4259C64.1093 47.9172 62.2285 48.2295 60.7422 49.2745C59.256 50.3195 58.3258 51.9837 58.2142 53.7971C56.3822 54.5671 55.1902 56.3602 55.189 58.3475C55.1928 58.6919 55.233 59.035 55.309 59.3711C53.6889 61.8134 53.2655 64.8594 54.1582 67.6511C53.8366 67.6954 53.5078 67.7351 53.1982 67.7807C52.1658 67.9364 51.3505 68.7382 51.1774 69.7679L51.007 70.7927H48.6838C47.5352 70.7934 46.5482 71.6079 46.3294 72.7355L41.0746 99.7139C40.8694 100.77 41.1477 101.863 41.8332 102.693C42.5187 103.523 43.5395 104.002 44.6158 104H69.6406C70.6342 105.639 73.6534 106.4 76.4998 106.4C79.3162 106.4 82.3066 105.657 83.329 104H108.384C109.46 104.002 110.48 103.523 111.166 102.694C111.851 101.864 112.13 100.771 111.925 99.7151L106.671 72.7439ZM58.8178 60.5195C57.8435 59.9336 57.3785 58.7707 57.6803 57.6746C57.9822 56.5785 58.9769 55.8175 60.1138 55.8131C60.9095 55.8107 61.6583 56.1889 62.1286 56.8307C62.3841 57.1749 62.8039 57.3567 63.2298 57.3076C63.6557 57.2584 64.023 56.9858 64.1934 56.5924C64.3638 56.1989 64.3113 55.7445 64.0558 55.4003C63.241 54.3112 62.0061 53.6145 60.6526 53.4803C61.0104 51.7997 62.4924 50.5966 64.2106 50.5919C64.357 50.5993 64.5029 50.6153 64.6474 50.6399C64.5509 50.8859 64.4668 51.1366 64.3954 51.3911C64.2461 52.0263 64.6317 52.6644 65.2635 52.8276C65.8953 52.9908 66.5417 52.6191 66.7186 51.9911C66.8551 51.4636 67.0647 50.9579 67.3414 50.4886C68.4059 48.7054 70.3262 47.6095 72.403 47.6003C73.5333 47.6053 74.6377 47.9388 75.5818 48.5603C75.402 49.0656 75.3067 49.5971 75.2998 50.1335C75.2998 50.7962 75.8371 51.3335 76.4998 51.3335C77.1626 51.3335 77.6998 50.7962 77.6998 50.1335C77.6998 48.7394 78.8299 47.6093 80.224 47.6093C81.6181 47.6093 82.7482 48.7394 82.7482 50.1335C82.7482 50.7962 83.2855 51.3335 83.9482 51.3335C84.611 51.3335 85.1482 50.7962 85.1482 50.1335C85.1482 50.0411 85.1254 49.9535 85.1206 49.8611C88.5566 50.0731 91.446 52.5155 92.227 55.8682C91.6673 56.0312 91.1413 56.2934 90.6742 56.6423C90.3312 56.8995 90.1516 57.3201 90.2028 57.7458C90.2541 58.1714 90.5286 58.5374 90.9228 58.7058C91.3171 58.8742 91.7712 58.8195 92.1142 58.5623C93.0732 57.8523 94.3978 57.9089 95.2926 58.6981C96.1875 59.4873 96.4092 60.7945 95.8246 61.8347C95.5634 62.2939 95.1664 62.6611 94.6882 62.8859C94.1867 63.1287 93.9183 63.6847 94.0402 64.2284C94.1621 64.7721 94.6423 65.1604 95.1994 65.1659C95.3754 65.1661 95.5492 65.1272 95.7082 65.0518C96.0262 64.8977 96.3268 64.7099 96.6046 64.4915C97.2249 66.2549 96.8359 68.2163 95.5894 69.6095L95.5606 69.6395C93.9973 71.333 91.5034 71.7907 89.4406 70.7627C89.2386 70.6559 89.0445 70.5348 88.8598 70.4003C89.7437 69.1611 89.8658 67.5334 89.1766 66.1763C88.9837 65.7932 88.6011 65.5422 88.1729 65.5177C87.7447 65.4932 87.3359 65.6991 87.1007 66.0577C86.8654 66.4163 86.8393 66.8732 87.0322 67.2563C87.4268 68.0494 87.1807 69.0119 86.4538 69.5183C86.027 69.8024 85.4996 69.8923 85.0028 69.7656C84.5059 69.6388 84.086 69.3074 83.8474 68.8535C83.6556 68.47 83.2737 68.218 82.8457 68.1924C82.4176 68.1668 82.0084 68.3715 81.7723 68.7294C81.5361 69.0873 81.5088 69.544 81.7006 69.9275C82.4044 71.3481 83.8544 72.2453 85.4398 72.2411C85.956 72.2376 86.4668 72.137 86.9458 71.9447C87.3744 72.3199 87.8466 72.6422 88.3522 72.9047C90.0625 73.7912 92.0512 73.975 93.895 73.4171C92.7091 75.0363 90.9344 76.1245 88.9534 76.4471C88.3371 76.5474 87.9008 77.1035 87.95 77.726C87.9991 78.3484 88.5174 78.8292 89.1418 78.8315C89.2057 78.8314 89.2695 78.8266 89.3326 78.8171C90.0633 78.6906 90.7774 78.482 91.4614 78.1954C91.8311 78.849 92.1311 79.5396 92.3566 80.2559C92.3979 80.3809 92.419 80.5118 92.419 80.6435C92.4187 81.1621 92.109 81.6305 91.6318 81.8339C91.0798 82.0473 90.4532 81.8789 90.0826 81.4174C89.1533 80.3261 87.9363 79.5175 86.5702 79.0835C83.977 78.2147 82.9762 77.4383 82.5514 76.5935C83.1741 76.5158 83.7893 76.3873 84.391 76.2095C84.8009 76.0834 85.1124 75.7483 85.2081 75.3303C85.3039 74.9123 85.1694 74.475 84.8553 74.1831C84.5412 73.8912 84.0953 73.789 83.6854 73.9151C83.0121 74.1216 82.317 74.2493 81.6142 74.2955C80.2602 74.4013 78.8999 74.196 77.6374 73.6955C77.1634 73.5106 76.6243 73.6448 76.2922 74.0303C74.5451 76.0372 71.5548 76.3783 69.4005 74.8164C67.2463 73.2545 66.6408 70.3064 68.005 68.0219C68.226 67.6529 68.2334 67.1941 68.0244 66.8183C67.8155 66.4424 67.4218 66.2066 66.9918 66.1997C66.5619 66.1928 66.1608 66.4157 65.9398 66.7847C65.6535 67.2719 65.4233 67.79 65.2534 68.3291C64.3084 68.2793 63.5633 67.5064 63.5482 66.5602V66.5303C63.5476 66.2136 63.4205 65.9103 63.1951 65.6879C62.9697 65.4655 62.6648 65.3423 62.3482 65.3459C61.6826 65.3524 61.1469 65.8946 61.1482 66.5602C61.1536 68.6884 62.7584 70.4721 64.8742 70.7015C64.8785 71.1037 64.915 71.505 64.9834 71.9015C62.3041 72.4812 59.5251 71.5181 57.7791 69.4047C56.0331 67.2913 55.6117 64.3805 56.6866 61.8587C56.9551 62.1303 57.2548 62.3691 57.5794 62.5703C58.1463 62.9023 58.8748 62.7168 59.2138 62.1541C59.5529 61.5913 59.3763 60.8606 58.8178 60.5146V60.5195ZM53.5378 70.1591C54.091 70.0775 54.6622 70.0055 55.2298 69.9311C57.4485 73.4766 61.692 75.1982 65.7538 74.2007C66.8452 76.2721 68.8395 77.7166 71.1479 78.1078C73.4563 78.4991 75.8152 77.7923 77.5282 76.1963C78.3437 76.4395 79.1836 76.5916 80.0326 76.6499C80.6122 78.8483 82.2874 80.1803 85.807 81.3599C86.7558 81.6573 87.6023 82.2148 88.2502 82.9691C88.9706 83.8257 90.0302 84.3235 91.1494 84.3311C91.6389 84.3309 92.1233 84.2321 92.5738 84.0407C93.9341 83.4593 94.8165 82.1227 94.8166 80.6435C94.8177 80.2577 94.7561 79.8743 94.6342 79.5083C94.3644 78.6604 94.0089 77.8422 93.5734 77.0663C95.614 75.5993 97.0355 73.4254 97.561 70.9679C97.8166 70.6642 98.0477 70.3408 98.2522 70.0007C98.6542 70.0523 99.0562 70.0979 99.4606 70.1651L103.793 96.2219C95.3248 93.3943 86.1676 93.3943 77.6998 96.2219V81.2003C77.6998 80.5375 77.1626 80.0003 76.4998 80.0003C75.8371 80.0003 75.2998 80.5375 75.2998 81.2003V96.2267C66.833 93.3965 57.6759 93.3931 49.207 96.2171L53.5378 70.1591ZM43.681 101.159C43.4543 100.885 43.3618 100.524 43.429 100.175L48.6838 73.1963H50.6038L46.8382 95.8271C46.7058 96.6508 47.0091 97.4844 47.6399 98.0304C48.2707 98.5764 49.1392 98.757 49.9354 98.5079C56.3326 96.4353 63.148 96.0028 69.7558 97.2503L69.3982 101.6H44.6158C44.2538 101.601 43.9107 101.438 43.681 101.159ZM76.4998 104C73.609 104 71.9506 103.146 71.707 102.765L72.1198 97.7854C73.4393 98.114 74.7306 98.547 75.9814 99.0803C76.1432 99.1582 76.3203 99.1992 76.4998 99.2003C76.6799 99.2 76.8575 99.159 77.0194 99.0803C78.2695 98.5438 79.5604 98.108 80.8798 97.7771L81.2926 102.764C81.049 103.146 79.3906 104 76.4998 104ZM109.319 101.159C109.089 101.438 108.746 101.601 108.384 101.6H83.605L83.245 97.2419C89.8565 95.997 96.6748 96.4332 103.074 98.5103C103.87 98.7562 104.736 98.573 105.365 98.0259C105.993 97.4789 106.294 96.6458 106.16 95.8235L102.398 73.1975H104.318L109.574 100.173C109.641 100.524 109.547 100.885 109.319 101.159Z" fill="#2DC071"/>
<path d="M72.5228 62.822C72.0316 63.2664 71.9935 64.0249 72.4376 64.5164C73.4556 65.6403 74.8009 66.416 76.2836 66.734C75.6121 67.6802 74.5231 68.2417 73.3628 68.24C72.7001 68.24 72.1628 68.7772 72.1628 69.44C72.1628 70.1027 72.7001 70.64 73.3628 70.64C75.847 70.6499 78.076 69.1156 78.9536 66.7916C81.9375 66.2971 84.2998 64.0003 84.878 61.0316C84.9674 60.6069 84.8205 60.1671 84.4939 59.8814C84.1674 59.5957 83.712 59.5085 83.303 59.6534C82.894 59.7983 82.595 60.1528 82.5212 60.5804C82.2859 61.818 81.5718 62.9129 80.534 63.6272C78.5375 64.9718 75.8599 64.6666 74.2172 62.9072C73.7728 62.4159 73.0143 62.3778 72.5228 62.822Z" fill="#2DC071"/>
<path d="M68.3396 61.5203C69.0024 61.5203 69.5396 60.983 69.5396 60.3203C69.5396 59.4928 69.8684 58.6992 70.4535 58.1141C71.0386 57.529 71.8322 57.2003 72.6596 57.2003C73.3224 57.2003 73.8596 56.663 73.8596 56.0003C73.8596 55.3376 73.3224 54.8003 72.6596 54.8003C69.6124 54.8036 67.143 57.2731 67.1396 60.3203C67.1396 60.6386 67.2661 60.9438 67.4911 61.1688C67.7162 61.3939 68.0214 61.5203 68.3396 61.5203Z" fill="#2DC071"/>
<path d="M77.6998 38.0001V36.8001C77.6998 36.1374 77.1625 35.6001 76.4998 35.6001C75.8371 35.6001 75.2998 36.1374 75.2998 36.8001V38.0001C75.2998 38.6628 75.8371 39.2001 76.4998 39.2001C77.1625 39.2001 77.6998 38.6628 77.6998 38.0001Z" fill="#2DC071"/>
<path d="M96.1919 44.2111L94.9919 45.4111C94.6799 45.7124 94.5548 46.1586 94.6646 46.5781C94.7744 46.9977 95.1021 47.3253 95.5217 47.4351C95.9412 47.545 96.3874 47.4198 96.6887 47.1079L97.8887 45.9079C98.2006 45.6066 98.3257 45.1604 98.2159 44.7409C98.1061 44.3213 97.7784 43.9937 97.3589 43.8839C96.9393 43.774 96.4932 43.8992 96.1919 44.2111Z" fill="#2DC071"/>
<path d="M57.1594 47.4595C57.6447 47.4594 58.0821 47.167 58.2678 46.7187C58.4535 46.2703 58.3509 45.7543 58.0078 45.4111L56.8078 44.2111C56.5065 43.8992 56.0604 43.774 55.6408 43.8839C55.2212 43.9937 54.8936 44.3213 54.7838 44.7409C54.6739 45.1604 54.7991 45.6066 55.111 45.9079L56.311 47.1079C56.536 47.333 56.8412 47.4594 57.1594 47.4595Z" fill="#2DC071"/>
<path d="M66.3971 42.4103C66.5548 42.41 66.7109 42.379 66.8567 42.3191C67.1509 42.1973 67.3845 41.9636 67.5063 41.6694C67.628 41.3753 67.6279 41.0448 67.5059 40.7507L66.1271 37.4243C65.9692 37.0192 65.6044 36.7312 65.1737 36.6715C64.743 36.6119 64.3137 36.7899 64.0516 37.1369C63.7895 37.4839 63.7356 37.9455 63.9107 38.3435L65.2883 41.6699C65.4742 42.1182 65.9118 42.4104 66.3971 42.4103Z" fill="#2DC071"/>
<path d="M88.4399 36.775C87.8278 36.5219 87.1264 36.8124 86.8727 37.4242L85.4938 40.7506C85.3715 41.0449 85.3712 41.3756 85.493 41.6701C85.6147 41.9645 85.8486 42.1984 86.143 42.3202C86.2889 42.3801 86.445 42.4111 86.6026 42.4114C87.088 42.4116 87.5256 42.1194 87.7114 41.671L89.0891 38.3446C89.2114 38.0504 89.2117 37.7197 89.0899 37.4252C88.9682 37.1308 88.7343 36.8969 88.4399 36.775Z" fill="#2DC071"/>
<path d="M100.89 56.6988C101.048 56.6985 101.204 56.6671 101.349 56.6064L104.675 55.2288C105.071 55.0648 105.349 54.7019 105.405 54.2769C105.461 53.8518 105.286 53.4291 104.946 53.1681C104.606 52.907 104.153 52.8472 103.757 53.0112L100.43 54.3888C99.8994 54.6068 99.5972 55.1701 99.7092 55.7329C99.8212 56.2958 100.316 56.7005 100.89 56.6988Z" fill="#2DC071"/>
<path d="M51.6503 56.6062C52.2627 56.86 52.9649 56.5694 53.2187 55.957C53.4725 55.3446 53.1819 54.6424 52.5695 54.3886L49.2431 53.011C48.6307 52.7575 47.9288 53.0484 47.6753 53.6608C47.4218 54.2732 47.7127 54.9751 48.3251 55.2286L51.6503 56.6062Z" fill="#2DC071"/>
</g>
</g>
</g>
<path d="M46.932 145.24C45.3 145.24 43.924 144.696 42.804 143.608C41.684 142.52 41.124 141.096 41.124 139.336C41.124 137.587 41.6893 136.163 42.82 135.064C43.9613 133.965 45.3213 133.416 46.9 133.416C48.3507 133.416 49.5133 133.784 50.388 134.52C51.2733 135.256 51.844 136.141 52.1 137.176L50.02 137.832C49.86 137.192 49.524 136.653 49.012 136.216C48.5 135.768 47.796 135.544 46.9 135.544C45.972 135.544 45.156 135.875 44.452 136.536C43.7587 137.197 43.412 138.131 43.412 139.336C43.412 140.488 43.7533 141.4 44.436 142.072C45.1293 142.744 45.9613 143.08 46.932 143.08C47.8173 143.08 48.5213 142.851 49.044 142.392C49.5773 141.933 49.9347 141.389 50.116 140.76L52.18 141.384C52.0627 141.843 51.8707 142.291 51.604 142.728C51.348 143.165 51.012 143.576 50.596 143.96C50.18 144.344 49.652 144.653 49.012 144.888C48.3827 145.123 47.6893 145.24 46.932 145.24ZM55.8011 142.712C56.1958 143.107 56.6705 143.304 57.2251 143.304C57.7798 143.304 58.2491 143.107 58.6331 142.712C59.0278 142.317 59.2251 141.768 59.2251 141.064C59.2251 140.36 59.0278 139.811 58.6331 139.416C58.2491 139.021 57.7798 138.824 57.2251 138.824C56.6705 138.824 56.1958 139.021 55.8011 139.416C55.4171 139.811 55.2251 140.36 55.2251 141.064C55.2251 141.768 55.4171 142.317 55.8011 142.712ZM54.2651 138.072C55.0545 137.283 56.0411 136.888 57.2251 136.888C58.4091 136.888 59.3905 137.283 60.1691 138.072C60.9585 138.861 61.3531 139.859 61.3531 141.064C61.3531 142.269 60.9585 143.267 60.1691 144.056C59.3905 144.845 58.4091 145.24 57.2251 145.24C56.0411 145.24 55.0545 144.845 54.2651 144.056C53.4865 143.267 53.0971 142.269 53.0971 141.064C53.0971 139.859 53.4865 138.861 54.2651 138.072ZM65.2609 145H63.1329V137.128H65.1649V138.088C65.3675 137.725 65.6875 137.437 66.1249 137.224C66.5622 137.011 67.0102 136.904 67.4689 136.904C68.6102 136.904 69.3889 137.341 69.8049 138.216C70.3702 137.341 71.2022 136.904 72.3009 136.904C73.1009 136.904 73.7729 137.155 74.3169 137.656C74.8715 138.157 75.1489 138.904 75.1489 139.896V145H73.0849V140.328C73.0849 139.88 72.9675 139.523 72.7329 139.256C72.5089 138.979 72.1622 138.84 71.6929 138.84C71.2555 138.84 70.9035 138.989 70.6369 139.288C70.3702 139.587 70.2369 139.955 70.2369 140.392V145H68.1249V140.328C68.1249 139.88 68.0075 139.523 67.7729 139.256C67.5382 138.979 67.1915 138.84 66.7329 138.84C66.2849 138.84 65.9275 138.989 65.6609 139.288C65.3942 139.576 65.2609 139.944 65.2609 140.392V145ZM79.5327 148.04H77.4047V137.128H79.4687V138.088C79.6607 137.768 79.9701 137.501 80.3967 137.288C80.8234 137.064 81.3194 136.952 81.8847 136.952C83.0047 136.952 83.8901 137.336 84.5407 138.104C85.1914 138.861 85.5167 139.843 85.5167 141.048C85.5167 142.253 85.1701 143.245 84.4767 144.024C83.7941 144.803 82.9034 145.192 81.8047 145.192C80.7594 145.192 80.0021 144.872 79.5327 144.232V148.04ZM82.8607 142.696C83.2341 142.291 83.4207 141.747 83.4207 141.064C83.4207 140.381 83.2341 139.843 82.8607 139.448C82.4981 139.053 82.0341 138.856 81.4687 138.856C80.9034 138.856 80.4341 139.059 80.0607 139.464C79.6874 139.859 79.5007 140.392 79.5007 141.064C79.5007 141.736 79.6874 142.275 80.0607 142.68C80.4341 143.085 80.9034 143.288 81.4687 143.288C82.0341 143.288 82.4981 143.091 82.8607 142.696ZM89.4296 145H87.3016V133.416H89.4296V145ZM93.9359 145H91.8079V137.128H93.9359V145ZM91.5519 134.552C91.5519 134.189 91.6799 133.88 91.9359 133.624C92.1919 133.357 92.5012 133.224 92.8639 133.224C93.2265 133.224 93.5359 133.352 93.7919 133.608C94.0479 133.864 94.1759 134.179 94.1759 134.552C94.1759 134.904 94.0479 135.208 93.7919 135.464C93.5359 135.72 93.2265 135.848 92.8639 135.848C92.5012 135.848 92.1919 135.72 91.9359 135.464C91.6799 135.208 91.5519 134.904 91.5519 134.552ZM95.8341 142.856C95.8341 142.184 96.0528 141.645 96.4901 141.24C96.9275 140.835 97.4928 140.579 98.1861 140.472L100.122 140.184C100.517 140.131 100.714 139.944 100.714 139.624C100.714 139.325 100.597 139.08 100.362 138.888C100.138 138.696 99.8128 138.6 99.3861 138.6C98.9381 138.6 98.5808 138.723 98.3141 138.968C98.0581 139.213 97.9141 139.517 97.8821 139.88L95.9941 139.48C96.0688 138.797 96.4048 138.195 97.0021 137.672C97.5995 137.149 98.3888 136.888 99.3701 136.888C100.543 136.888 101.407 137.171 101.962 137.736C102.517 138.291 102.794 139.005 102.794 139.88V143.752C102.794 144.221 102.826 144.637 102.89 145H100.938C100.885 144.765 100.858 144.451 100.858 144.056C100.357 144.835 99.5835 145.224 98.5381 145.224C97.7275 145.224 97.0715 144.989 96.5701 144.52C96.0795 144.051 95.8341 143.496 95.8341 142.856ZM98.9861 143.64C99.4875 143.64 99.8981 143.501 100.218 143.224C100.549 142.936 100.714 142.467 100.714 141.816V141.464L98.9381 141.736C98.2875 141.832 97.9621 142.163 97.9621 142.728C97.9621 142.984 98.0528 143.203 98.2341 143.384C98.4155 143.555 98.6661 143.64 98.9861 143.64ZM107.167 140.472V145H105.039V137.128H107.103V138.104C107.327 137.72 107.647 137.427 108.063 137.224C108.479 137.021 108.916 136.92 109.375 136.92C110.303 136.92 111.007 137.213 111.487 137.8C111.978 138.376 112.223 139.123 112.223 140.04V145H110.095V140.408C110.095 139.939 109.972 139.56 109.727 139.272C109.492 138.984 109.13 138.84 108.639 138.84C108.191 138.84 107.834 138.995 107.567 139.304C107.3 139.613 107.167 140.003 107.167 140.472ZM118.019 138.856C117.454 138.856 116.979 139.053 116.595 139.448C116.211 139.843 116.019 140.381 116.019 141.064C116.019 141.747 116.211 142.291 116.595 142.696C116.99 143.091 117.47 143.288 118.035 143.288C118.536 143.288 118.936 143.16 119.235 142.904C119.534 142.637 119.736 142.323 119.843 141.96L121.715 142.584C121.523 143.309 121.107 143.933 120.467 144.456C119.827 144.979 119.016 145.24 118.035 145.24C116.862 145.24 115.875 144.845 115.075 144.056C114.286 143.256 113.891 142.259 113.891 141.064C113.891 139.859 114.28 138.861 115.059 138.072C115.848 137.283 116.819 136.888 117.971 136.888C118.974 136.888 119.795 137.149 120.435 137.672C121.075 138.184 121.486 138.808 121.667 139.544L119.763 140.184C119.507 139.299 118.926 138.856 118.019 138.856ZM124.854 140.168H128.374C128.352 139.731 128.192 139.363 127.894 139.064C127.606 138.765 127.179 138.616 126.614 138.616C126.102 138.616 125.686 138.776 125.366 139.096C125.046 139.416 124.875 139.773 124.854 140.168ZM128.582 142.216L130.358 142.744C130.144 143.469 129.723 144.067 129.094 144.536C128.475 145.005 127.702 145.24 126.774 145.24C125.643 145.24 124.683 144.861 123.894 144.104C123.104 143.336 122.71 142.312 122.71 141.032C122.71 139.816 123.094 138.824 123.862 138.056C124.63 137.277 125.536 136.888 126.582 136.888C127.798 136.888 128.747 137.251 129.43 137.976C130.123 138.701 130.47 139.699 130.47 140.968C130.47 141.053 130.464 141.149 130.454 141.256C130.454 141.363 130.454 141.448 130.454 141.512L130.438 141.624H124.806C124.827 142.136 125.03 142.563 125.414 142.904C125.798 143.245 126.256 143.416 126.79 143.416C127.696 143.416 128.294 143.016 128.582 142.216ZM54.452 169H52.276V161.048L49.012 169H47.172L43.908 161.112V169H41.796V157.656H44.708L48.116 165.848L51.444 157.656H54.452V169ZM56.4748 166.856C56.4748 166.184 56.6934 165.645 57.1308 165.24C57.5681 164.835 58.1334 164.579 58.8268 164.472L60.7628 164.184C61.1574 164.131 61.3548 163.944 61.3548 163.624C61.3548 163.325 61.2374 163.08 61.0028 162.888C60.7788 162.696 60.4534 162.6 60.0268 162.6C59.5788 162.6 59.2214 162.723 58.9548 162.968C58.6988 163.213 58.5548 163.517 58.5228 163.88L56.6348 163.48C56.7094 162.797 57.0454 162.195 57.6428 161.672C58.2401 161.149 59.0294 160.888 60.0108 160.888C61.1841 160.888 62.0481 161.171 62.6028 161.736C63.1574 162.291 63.4348 163.005 63.4348 163.88V167.752C63.4348 168.221 63.4668 168.637 63.5308 169H61.5788C61.5254 168.765 61.4988 168.451 61.4988 168.056C60.9974 168.835 60.2241 169.224 59.1788 169.224C58.3681 169.224 57.7121 168.989 57.2108 168.52C56.7201 168.051 56.4748 167.496 56.4748 166.856ZM59.6268 167.64C60.1281 167.64 60.5388 167.501 60.8588 167.224C61.1894 166.936 61.3548 166.467 61.3548 165.816V165.464L59.5788 165.736C58.9281 165.832 58.6028 166.163 58.6028 166.728C58.6028 166.984 58.6934 167.203 58.8748 167.384C59.0561 167.555 59.3068 167.64 59.6268 167.64ZM67.8078 164.472V169H65.6798V161.128H67.7438V162.104C67.9678 161.72 68.2878 161.427 68.7038 161.224C69.1198 161.021 69.5571 160.92 70.0158 160.92C70.9438 160.92 71.6478 161.213 72.1278 161.8C72.6184 162.376 72.8638 163.123 72.8638 164.04V169H70.7358V164.408C70.7358 163.939 70.6131 163.56 70.3678 163.272C70.1331 162.984 69.7704 162.84 69.2798 162.84C68.8318 162.84 68.4744 162.995 68.2078 163.304C67.9411 163.613 67.8078 164.003 67.8078 164.472ZM74.6435 166.856C74.6435 166.184 74.8622 165.645 75.2995 165.24C75.7368 164.835 76.3022 164.579 76.9955 164.472L78.9315 164.184C79.3262 164.131 79.5235 163.944 79.5235 163.624C79.5235 163.325 79.4062 163.08 79.1715 162.888C78.9475 162.696 78.6222 162.6 78.1955 162.6C77.7475 162.6 77.3902 162.723 77.1235 162.968C76.8675 163.213 76.7235 163.517 76.6915 163.88L74.8035 163.48C74.8782 162.797 75.2142 162.195 75.8115 161.672C76.4088 161.149 77.1982 160.888 78.1795 160.888C79.3528 160.888 80.2168 161.171 80.7715 161.736C81.3262 162.291 81.6035 163.005 81.6035 163.88V167.752C81.6035 168.221 81.6355 168.637 81.6995 169H79.7475C79.6942 168.765 79.6675 168.451 79.6675 168.056C79.1662 168.835 78.3928 169.224 77.3475 169.224C76.5368 169.224 75.8808 168.989 75.3795 168.52C74.8888 168.051 74.6435 167.496 74.6435 166.856ZM77.7955 167.64C78.2968 167.64 78.7075 167.501 79.0275 167.224C79.3582 166.936 79.5235 166.467 79.5235 165.816V165.464L77.7475 165.736C77.0968 165.832 76.7715 166.163 76.7715 166.728C76.7715 166.984 76.8622 167.203 77.0435 167.384C77.2248 167.555 77.4755 167.64 77.7955 167.64ZM83.2573 169.432L85.1773 168.92C85.2519 169.357 85.4546 169.715 85.7853 169.992C86.1159 170.269 86.5266 170.408 87.0173 170.408C88.4146 170.408 89.1133 169.677 89.1133 168.216V167.64C88.9319 167.928 88.6546 168.168 88.2813 168.36C87.9079 168.552 87.4546 168.648 86.9213 168.648C85.8759 168.648 85.0013 168.285 84.2973 167.56C83.6039 166.835 83.2573 165.923 83.2573 164.824C83.2573 163.757 83.6039 162.851 84.2973 162.104C84.9906 161.357 85.8653 160.984 86.9213 160.984C87.4973 160.984 87.9773 161.091 88.3613 161.304C88.7453 161.507 89.0119 161.757 89.1613 162.056V161.128H91.2093V168.152C91.2093 169.336 90.8679 170.317 90.1853 171.096C89.5026 171.885 88.4679 172.28 87.0813 172.28C86.0466 172.28 85.1773 172.003 84.4733 171.448C83.7799 170.893 83.3746 170.221 83.2573 169.432ZM87.2893 166.824C87.8333 166.824 88.2759 166.643 88.6173 166.28C88.9693 165.917 89.1453 165.432 89.1453 164.824C89.1453 164.227 88.9639 163.747 88.6013 163.384C88.2493 163.021 87.8119 162.84 87.2893 162.84C86.7453 162.84 86.2919 163.021 85.9293 163.384C85.5773 163.747 85.4013 164.227 85.4013 164.824C85.4013 165.432 85.5773 165.917 85.9293 166.28C86.2813 166.643 86.7346 166.824 87.2893 166.824ZM95.0161 164.168H98.5361C98.5148 163.731 98.3548 163.363 98.0561 163.064C97.7681 162.765 97.3415 162.616 96.7761 162.616C96.2641 162.616 95.8481 162.776 95.5281 163.096C95.2081 163.416 95.0375 163.773 95.0161 164.168ZM98.7441 166.216L100.52 166.744C100.307 167.469 99.8855 168.067 99.2561 168.536C98.6375 169.005 97.8641 169.24 96.9361 169.24C95.8055 169.24 94.8455 168.861 94.0561 168.104C93.2668 167.336 92.8721 166.312 92.8721 165.032C92.8721 163.816 93.2561 162.824 94.0241 162.056C94.7921 161.277 95.6988 160.888 96.7441 160.888C97.9601 160.888 98.9095 161.251 99.5921 161.976C100.285 162.701 100.632 163.699 100.632 164.968C100.632 165.053 100.627 165.149 100.616 165.256C100.616 165.363 100.616 165.448 100.616 165.512L100.6 165.624H94.9681C94.9895 166.136 95.1921 166.563 95.5761 166.904C95.9601 167.245 96.4188 167.416 96.9521 167.416C97.8588 167.416 98.4561 167.016 98.7441 166.216ZM104.536 169H102.408V161.128H104.44V162.088C104.643 161.725 104.963 161.437 105.4 161.224C105.837 161.011 106.285 160.904 106.744 160.904C107.885 160.904 108.664 161.341 109.08 162.216C109.645 161.341 110.477 160.904 111.576 160.904C112.376 160.904 113.048 161.155 113.592 161.656C114.147 162.157 114.424 162.904 114.424 163.896V169H112.36V164.328C112.36 163.88 112.243 163.523 112.008 163.256C111.784 162.979 111.437 162.84 110.968 162.84C110.531 162.84 110.179 162.989 109.912 163.288C109.645 163.587 109.512 163.955 109.512 164.392V169H107.4V164.328C107.4 163.88 107.283 163.523 107.048 163.256C106.813 162.979 106.467 162.84 106.008 162.84C105.56 162.84 105.203 162.989 104.936 163.288C104.669 163.576 104.536 163.944 104.536 164.392V169ZM118.232 164.168H121.752C121.73 163.731 121.57 163.363 121.272 163.064C120.984 162.765 120.557 162.616 119.992 162.616C119.48 162.616 119.064 162.776 118.744 163.096C118.424 163.416 118.253 163.773 118.232 164.168ZM121.96 166.216L123.736 166.744C123.522 167.469 123.101 168.067 122.472 168.536C121.853 169.005 121.08 169.24 120.152 169.24C119.021 169.24 118.061 168.861 117.272 168.104C116.482 167.336 116.088 166.312 116.088 165.032C116.088 163.816 116.472 162.824 117.24 162.056C118.008 161.277 118.914 160.888 119.96 160.888C121.176 160.888 122.125 161.251 122.808 161.976C123.501 162.701 123.848 163.699 123.848 164.968C123.848 165.053 123.842 165.149 123.832 165.256C123.832 165.363 123.832 165.448 123.832 165.512L123.816 165.624H118.184C118.205 166.136 118.408 166.563 118.792 166.904C119.176 167.245 119.634 167.416 120.168 167.416C121.074 167.416 121.672 167.016 121.96 166.216ZM127.752 164.472V169H125.624V161.128H127.688V162.104C127.912 161.72 128.232 161.427 128.648 161.224C129.064 161.021 129.501 160.92 129.96 160.92C130.888 160.92 131.592 161.213 132.072 161.8C132.562 162.376 132.808 163.123 132.808 164.04V169H130.68V164.408C130.68 163.939 130.557 163.56 130.312 163.272C130.077 162.984 129.714 162.84 129.224 162.84C128.776 162.84 128.418 162.995 128.152 163.304C127.885 163.613 127.752 164.003 127.752 164.472ZM137.691 158.776V161.128H139.275V163.016H137.691V166.312C137.691 166.643 137.766 166.877 137.915 167.016C138.065 167.155 138.299 167.224 138.619 167.224C138.907 167.224 139.126 167.203 139.275 167.16V168.92C138.966 169.048 138.566 169.112 138.075 169.112C137.307 169.112 136.699 168.899 136.251 168.472C135.803 168.035 135.579 167.437 135.579 166.68V163.016H134.155V161.128H134.555C134.95 161.128 135.249 161.016 135.451 160.792C135.665 160.557 135.771 160.253 135.771 159.88V158.776H137.691Z" fill="#252B42"/>
<rect x="40.5" y="195" width="50" height="2" fill="#E74040"/>
<path d="M45.554 223.726V232H43.902V223.726H40.934V222.214H48.522V223.726H45.554ZM51.7829 227.968V232H50.2149V221.626H51.7829V225.91C52.0069 225.453 52.3429 225.093 52.7909 224.832C53.2482 224.571 53.7382 224.44 54.2609 224.44C55.1009 224.44 55.7775 224.697 56.2909 225.21C56.8135 225.723 57.0749 226.465 57.0749 227.436V232H55.5069V227.912C55.5069 226.54 54.9375 225.854 53.7989 225.854C53.2575 225.854 52.7862 226.036 52.3849 226.4C51.9835 226.755 51.7829 227.277 51.7829 227.968ZM66.3956 228.962H60.5576C60.595 229.503 60.8423 229.942 61.2996 230.278C61.757 230.605 62.2796 230.768 62.8676 230.768C63.801 230.768 64.5103 230.474 64.9956 229.886L65.8916 230.866C65.089 231.697 64.0436 232.112 62.7556 232.112C61.7103 232.112 60.819 231.767 60.0816 231.076C59.3536 230.376 58.9896 229.443 58.9896 228.276C58.9896 227.1 59.363 226.167 60.1096 225.476C60.8563 224.785 61.7336 224.44 62.7416 224.44C63.759 224.44 64.6223 224.748 65.3316 225.364C66.041 225.971 66.3956 226.811 66.3956 227.884V228.962ZM60.5576 227.73H64.8276C64.8276 227.105 64.6316 226.624 64.2396 226.288C63.8476 225.952 63.3623 225.784 62.7836 225.784C62.2143 225.784 61.701 225.961 61.2436 226.316C60.7863 226.661 60.5576 227.133 60.5576 227.73ZM79.2497 224.552V231.048C79.2497 232.364 78.8904 233.349 78.1717 234.002C77.4624 234.665 76.5477 234.996 75.4277 234.996C74.3077 234.996 73.2951 234.646 72.3897 233.946L73.1317 232.756C73.8597 233.307 74.5924 233.582 75.3297 233.582C76.0764 233.582 76.6644 233.391 77.0937 233.008C77.5324 232.625 77.7517 232.014 77.7517 231.174V230.222C77.5184 230.661 77.1824 231.011 76.7437 231.272C76.3144 231.533 75.8291 231.664 75.2877 231.664C74.2984 231.664 73.4864 231.319 72.8517 230.628C72.2171 229.937 71.8997 229.079 71.8997 228.052C71.8997 227.025 72.2171 226.167 72.8517 225.476C73.4864 224.785 74.2937 224.44 75.2737 224.44C76.2631 224.44 77.0657 224.846 77.6817 225.658V224.552H79.2497ZM73.4397 227.996C73.4397 228.603 73.6264 229.13 73.9997 229.578C74.3824 230.017 74.8911 230.236 75.5257 230.236C76.1697 230.236 76.6877 230.021 77.0797 229.592C77.4811 229.163 77.6817 228.631 77.6817 227.996C77.6817 227.352 77.4811 226.811 77.0797 226.372C76.6784 225.924 76.1604 225.7 75.5257 225.7C74.8911 225.7 74.3824 225.929 73.9997 226.386C73.6264 226.843 73.4397 227.38 73.4397 227.996ZM85.6279 226.022C84.8532 226.022 84.2699 226.274 83.8779 226.778C83.4859 227.282 83.2899 227.959 83.2899 228.808V232H81.7219V224.552H83.2899V226.05C83.5419 225.583 83.8826 225.201 84.3119 224.902C84.7506 224.603 85.2126 224.449 85.6979 224.44L85.7119 226.022C85.6839 226.022 85.6559 226.022 85.6279 226.022ZM93.452 232H92.024V231.006C91.408 231.743 90.582 232.112 89.546 232.112C88.7713 232.112 88.1273 231.893 87.614 231.454C87.11 231.015 86.858 230.432 86.858 229.704C86.858 228.967 87.1287 228.416 87.67 228.052C88.2113 227.688 88.944 227.506 89.868 227.506H91.898V227.226C91.898 226.237 91.3473 225.742 90.246 225.742C89.5553 225.742 88.8367 225.994 88.09 226.498L87.39 225.518C88.2953 224.799 89.322 224.44 90.47 224.44C91.3473 224.44 92.0613 224.664 92.612 225.112C93.172 225.551 93.452 226.246 93.452 227.198V232ZM91.884 229.228V228.598H90.12C88.9907 228.598 88.426 228.953 88.426 229.662C88.426 230.026 88.566 230.306 88.846 230.502C89.126 230.689 89.5133 230.782 90.008 230.782C90.512 230.782 90.9507 230.642 91.324 230.362C91.6973 230.082 91.884 229.704 91.884 229.228ZM98.8728 232.112C97.9301 232.112 97.1088 231.757 96.4088 231.048C95.7088 230.339 95.3588 229.405 95.3588 228.248C95.3588 227.091 95.7181 226.167 96.4368 225.476C97.1554 224.785 98.0094 224.44 98.9988 224.44C99.9974 224.44 100.8 224.86 101.407 225.7V221.612H102.975V232H101.407V230.88C100.828 231.701 99.9834 232.112 98.8728 232.112ZM96.9268 228.318C96.9268 229.027 97.1554 229.606 97.6128 230.054C98.0701 230.502 98.6068 230.726 99.2228 230.726C99.8388 230.726 100.361 230.502 100.791 230.054C101.22 229.597 101.435 229.013 101.435 228.304C101.435 227.595 101.22 227.002 100.791 226.526C100.361 226.05 99.8341 225.812 99.2088 225.812C98.5834 225.812 98.0468 226.05 97.5988 226.526C97.1508 227.002 96.9268 227.599 96.9268 228.318ZM110.649 228.584V224.552H112.217V232H110.649V230.642C110.397 231.099 110.047 231.459 109.599 231.72C109.16 231.981 108.684 232.112 108.171 232.112C107.331 232.112 106.65 231.855 106.127 231.342C105.614 230.829 105.357 230.087 105.357 229.116V224.552H106.925V228.64C106.925 230.012 107.494 230.698 108.633 230.698C109.174 230.698 109.646 230.521 110.047 230.166C110.448 229.802 110.649 229.275 110.649 228.584ZM120.726 232H119.298V231.006C118.682 231.743 117.856 232.112 116.82 232.112C116.045 232.112 115.401 231.893 114.888 231.454C114.384 231.015 114.132 230.432 114.132 229.704C114.132 228.967 114.402 228.416 114.944 228.052C115.485 227.688 116.218 227.506 117.142 227.506H119.172V227.226C119.172 226.237 118.621 225.742 117.52 225.742C116.829 225.742 116.11 225.994 115.364 226.498L114.664 225.518C115.569 224.799 116.596 224.44 117.744 224.44C118.621 224.44 119.335 224.664 119.886 225.112C120.446 225.551 120.726 226.246 120.726 227.198V232ZM119.158 229.228V228.598H117.394C116.264 228.598 115.7 228.953 115.7 229.662C115.7 230.026 115.84 230.306 116.12 230.502C116.4 230.689 116.787 230.782 117.282 230.782C117.786 230.782 118.224 230.642 118.598 230.362C118.971 230.082 119.158 229.704 119.158 229.228ZM124.677 232H123.109V221.612H124.677V232ZM47.668 252H46.24V251.006C45.624 251.743 44.798 252.112 43.762 252.112C42.9873 252.112 42.3433 251.893 41.83 251.454C41.326 251.015 41.074 250.432 41.074 249.704C41.074 248.967 41.3447 248.416 41.886 248.052C42.4273 247.688 43.16 247.506 44.084 247.506H46.114V247.226C46.114 246.237 45.5633 245.742 44.462 245.742C43.7713 245.742 43.0527 245.994 42.306 246.498L41.606 245.518C42.5113 244.799 43.538 244.44 44.686 244.44C45.5633 244.44 46.2773 244.664 46.828 245.112C47.388 245.551 47.668 246.246 47.668 247.198V252ZM46.1 249.228V248.598H44.336C43.2067 248.598 42.642 248.953 42.642 249.662C42.642 250.026 42.782 250.306 43.062 250.502C43.342 250.689 43.7293 250.782 44.224 250.782C44.728 250.782 45.1667 250.642 45.54 250.362C45.9133 250.082 46.1 249.704 46.1 249.228ZM53.3548 252.112C52.3188 252.112 51.4275 251.762 50.6808 251.062C49.9341 250.353 49.5608 249.429 49.5608 248.29C49.5608 247.151 49.9481 246.227 50.7228 245.518C51.5068 244.799 52.4588 244.44 53.5788 244.44C54.6988 244.44 55.6461 244.827 56.4208 245.602L55.4968 246.736C54.8528 246.176 54.2041 245.896 53.5508 245.896C52.8975 245.896 52.3281 246.115 51.8428 246.554C51.3668 246.983 51.1288 247.543 51.1288 248.234C51.1288 248.915 51.3668 249.494 51.8428 249.97C52.3188 250.446 52.9021 250.684 53.5928 250.684C54.2928 250.684 54.9508 250.367 55.5668 249.732L56.4908 250.74C55.5855 251.655 54.5401 252.112 53.3548 252.112ZM61.6212 252.112C60.5852 252.112 59.6939 251.762 58.9472 251.062C58.2005 250.353 57.8272 249.429 57.8272 248.29C57.8272 247.151 58.2145 246.227 58.9892 245.518C59.7732 244.799 60.7252 244.44 61.8452 244.44C62.9652 244.44 63.9125 244.827 64.6872 245.602L63.7632 246.736C63.1192 246.176 62.4705 245.896 61.8172 245.896C61.1639 245.896 60.5945 246.115 60.1092 246.554C59.6332 246.983 59.3952 247.543 59.3952 248.234C59.3952 248.915 59.6332 249.494 60.1092 249.97C60.5852 250.446 61.1685 250.684 61.8592 250.684C62.5592 250.684 63.2172 250.367 63.8332 249.732L64.7572 250.74C63.8519 251.655 62.8065 252.112 61.6212 252.112ZM71.7916 248.584V244.552H73.3596V252H71.7916V250.642C71.5396 251.099 71.1896 251.459 70.7416 251.72C70.3029 251.981 69.8269 252.112 69.3136 252.112C68.4736 252.112 67.7923 251.855 67.2696 251.342C66.7563 250.829 66.4996 250.087 66.4996 249.116V244.552H68.0676V248.64C68.0676 250.012 68.6369 250.698 69.7756 250.698C70.3169 250.698 70.7883 250.521 71.1896 250.166C71.5909 249.802 71.7916 249.275 71.7916 248.584ZM77.4024 247.968V252H75.8344V244.552H77.4024V245.91C77.6264 245.453 77.9624 245.093 78.4104 244.832C78.8677 244.571 79.3577 244.44 79.8804 244.44C81.0564 244.44 81.8544 244.925 82.2744 245.896C83.0117 244.925 83.9311 244.44 85.0324 244.44C85.8724 244.44 86.5491 244.697 87.0624 245.21C87.5851 245.723 87.8464 246.465 87.8464 247.436V252H86.2784V247.912C86.2784 246.54 85.7091 245.854 84.5704 245.854C84.0384 245.854 83.5717 246.027 83.1704 246.372C82.7784 246.708 82.5731 247.203 82.5544 247.856V252H80.9864V247.912C80.9864 247.203 80.8604 246.685 80.6084 246.358C80.3564 246.022 79.9597 245.854 79.4184 245.854C78.8771 245.854 78.4057 246.036 78.0044 246.4C77.6031 246.755 77.4024 247.277 77.4024 247.968ZM95.4338 248.584V244.552H97.0018V252H95.4338V250.642C95.1818 251.099 94.8318 251.459 94.3838 251.72C93.9451 251.981 93.4691 252.112 92.9558 252.112C92.1158 252.112 91.4345 251.855 90.9118 251.342C90.3985 250.829 90.1418 250.087 90.1418 249.116V244.552H91.7098V248.64C91.7098 250.012 92.2791 250.698 93.4178 250.698C93.9591 250.698 94.4305 250.521 94.8318 250.166C95.2331 249.802 95.4338 249.275 95.4338 248.584ZM101.045 252H99.4766V241.612H101.045V252ZM109.552 252H108.124V251.006C107.508 251.743 106.682 252.112 105.646 252.112C104.872 252.112 104.228 251.893 103.714 251.454C103.21 251.015 102.958 250.432 102.958 249.704C102.958 248.967 103.229 248.416 103.77 248.052C104.312 247.688 105.044 247.506 105.968 247.506H107.998V247.226C107.998 246.237 107.448 245.742 106.346 245.742C105.656 245.742 104.937 245.994 104.19 246.498L103.49 245.518C104.396 244.799 105.422 244.44 106.57 244.44C107.448 244.44 108.162 244.664 108.712 245.112C109.272 245.551 109.552 246.246 109.552 247.198V252ZM107.984 249.228V248.598H106.22C105.091 248.598 104.526 248.953 104.526 249.662C104.526 250.026 104.666 250.306 104.946 250.502C105.226 250.689 105.614 250.782 106.108 250.782C106.612 250.782 107.051 250.642 107.424 250.362C107.798 250.082 107.984 249.704 107.984 249.228ZM113.785 245.812V249.592C113.785 249.947 113.878 250.231 114.065 250.446C114.252 250.651 114.513 250.754 114.849 250.754C115.185 250.754 115.507 250.591 115.815 250.264L116.459 251.37C115.908 251.865 115.297 252.112 114.625 252.112C113.962 252.112 113.393 251.883 112.917 251.426C112.45 250.959 112.217 250.334 112.217 249.55V245.812H111.279V244.552H112.217V242.214H113.785V244.552H115.745V245.812H113.785ZM119.473 252H117.905V244.552H119.473V252ZM118.003 243.068C117.807 242.872 117.709 242.639 117.709 242.368C117.709 242.097 117.807 241.864 118.003 241.668C118.199 241.472 118.432 241.374 118.703 241.374C118.973 241.374 119.207 241.472 119.403 241.668C119.599 241.864 119.697 242.097 119.697 242.368C119.697 242.639 119.599 242.872 119.403 243.068C119.207 243.264 118.973 243.362 118.703 243.362C118.432 243.362 118.199 243.264 118.003 243.068ZM123.683 250.04C124.131 250.488 124.695 250.712 125.377 250.712C126.058 250.712 126.618 250.488 127.057 250.04C127.505 249.583 127.729 248.995 127.729 248.276C127.729 247.557 127.505 246.974 127.057 246.526C126.618 246.069 126.058 245.84 125.377 245.84C124.695 245.84 124.131 246.069 123.683 246.526C123.244 246.974 123.025 247.557 123.025 248.276C123.025 248.995 123.244 249.583 123.683 250.04ZM128.177 251.006C127.43 251.743 126.497 252.112 125.377 252.112C124.257 252.112 123.323 251.743 122.577 251.006C121.83 250.259 121.457 249.349 121.457 248.276C121.457 247.203 121.83 246.297 122.577 245.56C123.323 244.813 124.257 244.44 125.377 244.44C126.497 244.44 127.43 244.813 128.177 245.56C128.923 246.297 129.297 247.203 129.297 248.276C129.297 249.349 128.923 250.259 128.177 251.006ZM132.847 247.968V252H131.279V244.552H132.847V245.91C133.099 245.453 133.445 245.093 133.883 244.832C134.331 244.571 134.812 244.44 135.325 244.44C136.165 244.44 136.842 244.697 137.355 245.21C137.878 245.723 138.139 246.465 138.139 247.436V252H136.571V247.912C136.571 246.54 136.002 245.854 134.863 245.854C134.322 245.854 133.851 246.036 133.449 246.4C133.048 246.755 132.847 247.277 132.847 247.968ZM146.308 250.04C146.756 250.488 147.321 250.712 148.002 250.712C148.683 250.712 149.243 250.488 149.682 250.04C150.13 249.583 150.354 248.995 150.354 248.276C150.354 247.557 150.13 246.974 149.682 246.526C149.243 246.069 148.683 245.84 148.002 245.84C147.321 245.84 146.756 246.069 146.308 246.526C145.869 246.974 145.65 247.557 145.65 248.276C145.65 248.995 145.869 249.583 146.308 250.04ZM150.802 251.006C150.055 251.743 149.122 252.112 148.002 252.112C146.882 252.112 145.949 251.743 145.202 251.006C144.455 250.259 144.082 249.349 144.082 248.276C144.082 247.203 144.455 246.297 145.202 245.56C145.949 244.813 146.882 244.44 148.002 244.44C149.122 244.44 150.055 244.813 150.802 245.56C151.549 246.297 151.922 247.203 151.922 248.276C151.922 249.349 151.549 250.259 150.802 251.006ZM155.727 243.936V244.552H157.687V245.812H155.727V252H154.159V245.812H153.221V244.552H154.159V243.978C154.159 243.194 154.393 242.573 154.859 242.116C155.335 241.649 155.905 241.416 156.567 241.416C157.239 241.416 157.851 241.663 158.401 242.158L157.757 243.264C157.449 242.937 157.127 242.774 156.791 242.774C156.455 242.774 156.194 242.881 156.007 243.096C155.821 243.301 155.727 243.581 155.727 243.936ZM43.202 272H41.634V264.552H43.202V272ZM41.732 263.068C41.536 262.872 41.438 262.639 41.438 262.368C41.438 262.097 41.536 261.864 41.732 261.668C41.928 261.472 42.1613 261.374 42.432 261.374C42.7027 261.374 42.936 261.472 43.132 261.668C43.328 261.864 43.426 262.097 43.426 262.368C43.426 262.639 43.328 262.872 43.132 263.068C42.936 263.264 42.7027 263.362 42.432 263.362C42.1613 263.362 41.928 263.264 41.732 263.068ZM47.2438 267.968V272H45.6758V264.552H47.2438V265.91C47.4958 265.453 47.8411 265.093 48.2798 264.832C48.7278 264.571 49.2085 264.44 49.7218 264.44C50.5618 264.44 51.2385 264.697 51.7518 265.21C52.2745 265.723 52.5358 266.465 52.5358 267.436V272H50.9678V267.912C50.9678 266.54 50.3985 265.854 49.2598 265.854C48.7185 265.854 48.2471 266.036 47.8458 266.4C47.4445 266.755 47.2438 267.277 47.2438 267.968ZM56.7902 263.936V264.552H58.7502V265.812H56.7902V272H55.2222V265.812H54.2842V264.552H55.2222V263.978C55.2222 263.194 55.4556 262.573 55.9222 262.116C56.3982 261.649 56.9676 261.416 57.6302 261.416C58.3022 261.416 58.9136 261.663 59.4642 262.158L58.8202 263.264C58.5122 262.937 58.1902 262.774 57.8542 262.774C57.5182 262.774 57.2569 262.881 57.0702 263.096C56.8836 263.301 56.7902 263.581 56.7902 263.936ZM62.0169 270.04C62.4649 270.488 63.0295 270.712 63.7109 270.712C64.3922 270.712 64.9522 270.488 65.3909 270.04C65.8389 269.583 66.0629 268.995 66.0629 268.276C66.0629 267.557 65.8389 266.974 65.3909 266.526C64.9522 266.069 64.3922 265.84 63.7109 265.84C63.0295 265.84 62.4649 266.069 62.0169 266.526C61.5782 266.974 61.3589 267.557 61.3589 268.276C61.3589 268.995 61.5782 269.583 62.0169 270.04ZM66.5109 271.006C65.7642 271.743 64.8309 272.112 63.7109 272.112C62.5909 272.112 61.6575 271.743 60.9109 271.006C60.1642 270.259 59.7909 269.349 59.7909 268.276C59.7909 267.203 60.1642 266.297 60.9109 265.56C61.6575 264.813 62.5909 264.44 63.7109 264.44C64.8309 264.44 65.7642 264.813 66.5109 265.56C67.2575 266.297 67.6309 267.203 67.6309 268.276C67.6309 269.349 67.2575 270.259 66.5109 271.006ZM73.5197 266.022C72.745 266.022 72.1617 266.274 71.7697 266.778C71.3777 267.282 71.1817 267.959 71.1817 268.808V272H69.6137V264.552H71.1817V266.05C71.4337 265.583 71.7744 265.201 72.2037 264.902C72.6424 264.603 73.1044 264.449 73.5897 264.44L73.6037 266.022C73.5757 266.022 73.5477 266.022 73.5197 266.022ZM76.9461 267.968V272H75.3781V264.552H76.9461V265.91C77.1701 265.453 77.5061 265.093 77.9541 264.832C78.4115 264.571 78.9015 264.44 79.4241 264.44C80.6001 264.44 81.3981 264.925 81.8181 265.896C82.5555 264.925 83.4748 264.44 84.5761 264.44C85.4161 264.44 86.0928 264.697 86.6061 265.21C87.1288 265.723 87.3901 266.465 87.3901 267.436V272H85.8221V267.912C85.8221 266.54 85.2528 265.854 84.1141 265.854C83.5821 265.854 83.1155 266.027 82.7141 266.372C82.3221 266.708 82.1168 267.203 82.0981 267.856V272H80.5301V267.912C80.5301 267.203 80.4041 266.685 80.1521 266.358C79.9001 266.022 79.5035 265.854 78.9621 265.854C78.4208 265.854 77.9495 266.036 77.5481 266.4C77.1468 266.755 76.9461 267.277 76.9461 267.968ZM95.8035 272H94.3755V271.006C93.7595 271.743 92.9335 272.112 91.8975 272.112C91.1229 272.112 90.4789 271.893 89.9655 271.454C89.4615 271.015 89.2095 270.432 89.2095 269.704C89.2095 268.967 89.4802 268.416 90.0215 268.052C90.5629 267.688 91.2955 267.506 92.2195 267.506H94.2495V267.226C94.2495 266.237 93.6989 265.742 92.5975 265.742C91.9069 265.742 91.1882 265.994 90.4415 266.498L89.7415 265.518C90.6469 264.799 91.6735 264.44 92.8215 264.44C93.6989 264.44 94.4129 264.664 94.9635 265.112C95.5235 265.551 95.8035 266.246 95.8035 267.198V272ZM94.2355 269.228V268.598H92.4715C91.3422 268.598 90.7775 268.953 90.7775 269.662C90.7775 270.026 90.9175 270.306 91.1975 270.502C91.4775 270.689 91.8649 270.782 92.3595 270.782C92.8635 270.782 93.3022 270.642 93.6755 270.362C94.0489 270.082 94.2355 269.704 94.2355 269.228ZM100.036 265.812V269.592C100.036 269.947 100.13 270.231 100.316 270.446C100.503 270.651 100.764 270.754 101.1 270.754C101.436 270.754 101.758 270.591 102.066 270.264L102.71 271.37C102.16 271.865 101.548 272.112 100.876 272.112C100.214 272.112 99.6443 271.883 99.1683 271.426C98.7016 270.959 98.4683 270.334 98.4683 269.55V265.812H97.5303V264.552H98.4683V262.214H100.036V264.552H101.996V265.812H100.036ZM105.724 272H104.156V264.552H105.724V272ZM104.254 263.068C104.058 262.872 103.96 262.639 103.96 262.368C103.96 262.097 104.058 261.864 104.254 261.668C104.45 261.472 104.683 261.374 104.954 261.374C105.225 261.374 105.458 261.472 105.654 261.668C105.85 261.864 105.948 262.097 105.948 262.368C105.948 262.639 105.85 262.872 105.654 263.068C105.458 263.264 105.225 263.362 104.954 263.362C104.683 263.362 104.45 263.264 104.254 263.068ZM109.934 270.04C110.382 270.488 110.946 270.712 111.628 270.712C112.309 270.712 112.869 270.488 113.308 270.04C113.756 269.583 113.98 268.995 113.98 268.276C113.98 267.557 113.756 266.974 113.308 266.526C112.869 266.069 112.309 265.84 111.628 265.84C110.946 265.84 110.382 266.069 109.934 266.526C109.495 266.974 109.276 267.557 109.276 268.276C109.276 268.995 109.495 269.583 109.934 270.04ZM114.428 271.006C113.681 271.743 112.748 272.112 111.628 272.112C110.508 272.112 109.574 271.743 108.828 271.006C108.081 270.259 107.708 269.349 107.708 268.276C107.708 267.203 108.081 266.297 108.828 265.56C109.574 264.813 110.508 264.44 111.628 264.44C112.748 264.44 113.681 264.813 114.428 265.56C115.174 266.297 115.548 267.203 115.548 268.276C115.548 269.349 115.174 270.259 114.428 271.006ZM119.098 267.968V272H117.53V264.552H119.098V265.91C119.35 265.453 119.696 265.093 120.134 264.832C120.582 264.571 121.063 264.44 121.576 264.44C122.416 264.44 123.093 264.697 123.606 265.21C124.129 265.723 124.39 266.465 124.39 267.436V272H122.822V267.912C122.822 266.54 122.253 265.854 121.114 265.854C120.573 265.854 120.102 266.036 119.7 266.4C119.299 266.755 119.098 267.277 119.098 267.968ZM136.857 272H135.429V271.006C134.813 271.743 133.987 272.112 132.951 272.112C132.176 272.112 131.532 271.893 131.019 271.454C130.515 271.015 130.263 270.432 130.263 269.704C130.263 268.967 130.534 268.416 131.075 268.052C131.616 267.688 132.349 267.506 133.273 267.506H135.303V267.226C135.303 266.237 134.752 265.742 133.651 265.742C132.96 265.742 132.242 265.994 131.495 266.498L130.795 265.518C131.7 264.799 132.727 264.44 133.875 264.44C134.752 264.44 135.466 264.664 136.017 265.112C136.577 265.551 136.857 266.246 136.857 267.198V272ZM135.289 269.228V268.598H133.525C132.396 268.598 131.831 268.953 131.831 269.662C131.831 270.026 131.971 270.306 132.251 270.502C132.531 270.689 132.918 270.782 133.413 270.782C133.917 270.782 134.356 270.642 134.729 270.362C135.102 270.082 135.289 269.704 135.289 269.228ZM143.23 264.44C144.229 264.44 145.083 264.785 145.792 265.476C146.501 266.167 146.856 267.086 146.856 268.234C146.856 269.382 146.501 270.315 145.792 271.034C145.092 271.753 144.271 272.112 143.328 272.112C142.395 272.112 141.555 271.701 140.808 270.88V272H139.24V261.612H140.808V265.854C141.424 264.911 142.231 264.44 143.23 264.44ZM140.78 268.29C140.78 268.999 140.995 269.583 141.424 270.04C141.853 270.488 142.376 270.712 142.992 270.712C143.608 270.712 144.145 270.488 144.602 270.04C145.059 269.592 145.288 269.013 145.288 268.304C145.288 267.585 145.064 266.993 144.616 266.526C144.168 266.05 143.631 265.812 143.006 265.812C142.381 265.812 141.853 266.05 141.424 266.526C140.995 266.993 140.78 267.581 140.78 268.29ZM150.582 270.04C151.03 270.488 151.595 270.712 152.276 270.712C152.957 270.712 153.517 270.488 153.956 270.04C154.404 269.583 154.628 268.995 154.628 268.276C154.628 267.557 154.404 266.974 153.956 266.526C153.517 266.069 152.957 265.84 152.276 265.84C151.595 265.84 151.03 266.069 150.582 266.526C150.143 266.974 149.924 267.557 149.924 268.276C149.924 268.995 150.143 269.583 150.582 270.04ZM155.076 271.006C154.329 271.743 153.396 272.112 152.276 272.112C151.156 272.112 150.223 271.743 149.476 271.006C148.729 270.259 148.356 269.349 148.356 268.276C148.356 267.203 148.729 266.297 149.476 265.56C150.223 264.813 151.156 264.44 152.276 264.44C153.396 264.44 154.329 264.813 155.076 265.56C155.823 266.297 156.196 267.203 156.196 268.276C156.196 269.349 155.823 270.259 155.076 271.006ZM163.387 268.584V264.552H164.955V272H163.387V270.642C163.135 271.099 162.785 271.459 162.337 271.72C161.898 271.981 161.422 272.112 160.909 272.112C160.069 272.112 159.388 271.855 158.865 271.342C158.352 270.829 158.095 270.087 158.095 269.116V264.552H159.663V268.64C159.663 270.012 160.232 270.698 161.371 270.698C161.912 270.698 162.384 270.521 162.785 270.166C163.186 269.802 163.387 269.275 163.387 268.584ZM169.362 265.812V269.592C169.362 269.947 169.455 270.231 169.642 270.446C169.828 270.651 170.09 270.754 170.426 270.754C170.762 270.754 171.084 270.591 171.392 270.264L172.036 271.37C171.485 271.865 170.874 272.112 170.202 272.112C169.539 272.112 168.97 271.883 168.494 271.426C168.027 270.959 167.794 270.334 167.794 269.55V265.812H166.856V264.552H167.794V262.214H169.362V264.552H171.322V265.812H169.362Z" fill="#737373"/>
<defs>
<clipPath id="clip0_4001_460">
<rect width="72" height="72" fill="white" transform="translate(40.5 35)"/>
</clipPath>
<clipPath id="clip1_4001_460">
<rect width="70.9823" height="70.8" fill="white" transform="translate(41.0085 35.6001)"/>
</clipPath>
<clipPath id="clip2_4001_460">
<rect width="70.9823" height="70.8" fill="white" transform="translate(41.0085 35.6001)"/>
</clipPath>
</defs>
</svg>
