<svg width="230" height="288" viewBox="0 0 230 288" fill="none" xmlns="http://www.w3.org/2000/svg">
<rect width="230" height="288" fill="#5A54F2"/>
<g clip-path="url(#clip0_4001_479)">
<g clip-path="url(#clip1_4001_479)">
<g clip-path="url(#clip2_4001_479)">
<path d="M111.971 92.9212V86.5857H105.214V82.362H102.961V78.8423H105.214V72.5068H88.3692V74.6187H103.102V76.7305H59.4069V78.8423H100.849V82.362H54.8816C53.9111 82.362 53.1217 81.5726 53.1217 80.6022C53.1217 79.6317 53.9111 78.8423 54.8816 78.8423H57.2951V76.7305H54.8816C52.7468 76.7305 51.0099 78.4673 51.0099 80.6022C51.0099 82.7371 52.7468 84.4739 54.8816 84.4739H103.102V86.5857H66.7078V88.6975H109.859V90.8093H50.2356C46.9362 90.8093 44.2521 93.4935 44.2521 96.7928C44.2521 100.092 46.9362 102.776 50.2356 102.776H99.974V100.665H50.2357C48.1008 100.665 46.364 98.9278 46.364 96.7928C46.364 94.6579 48.1008 92.9212 50.2357 92.9212H107.607V96.4409H60.7948V98.5527H107.607V100.665H102.086V102.776H109.86V104.888H50.2357C45.7719 104.888 42.1404 101.257 42.1404 96.7928C42.1404 92.329 45.7719 88.6975 50.2357 88.6975H64.5961V86.5857H54.8817C51.5824 86.5857 48.8982 83.9015 48.8982 80.6022C48.8982 77.3028 51.5824 74.6187 54.8817 74.6187H86.2574V72.5068H54.8817C50.4179 72.5068 46.7864 76.1383 46.7864 80.6022C46.7864 82.9874 47.8239 85.1344 49.4707 86.6174C44.1987 87.0103 40.0286 91.4222 40.0286 96.7928C40.0286 102.421 44.6074 107 50.2357 107H111.971V100.665H109.719V92.9212H111.971Z" fill="white"/>
<path d="M56.5713 96.4409H58.6831V98.5527H56.5713V96.4409Z" fill="white"/>
<path d="M59.4572 66.3844L59.9274 66.6979C60.1107 66.8201 64.5487 69.6911 75.9998 69.6911C87.451 69.6911 91.8889 66.8201 92.0722 66.6979L92.5425 66.3844V48.6065L98.8779 46.4947V56.4637C97.2549 56.9247 96.0622 58.4192 96.0622 60.1879V65.4674H103.806V60.1879C103.806 58.4192 102.613 56.9247 100.99 56.4637V45.7907L104.681 44.5604L93.5915 40.8638L92.9236 42.8673L98.0027 44.5602L75.9998 51.8946L53.997 44.5604L75.9998 37.2261L90.9202 42.1996L91.5881 40.1962L75.9998 35L47.3188 44.5604L59.4572 48.6065V66.3844ZM101.694 60.1879V63.3556H98.174V60.1879C98.174 59.2174 98.9634 58.428 99.9338 58.428C100.904 58.428 101.694 59.2174 101.694 60.1879ZM61.569 49.3104L75.9998 54.1207L90.4306 49.3104V57.5833H87.826V59.6951H90.4306V61.8069H85.855V63.9188H90.4306V65.1918C89.0698 65.8545 84.6914 67.5793 75.9998 67.5793C67.3016 67.5793 62.9231 65.8518 61.569 65.1923V49.3104Z" fill="white"/>
<path d="M52.3477 96.4409H54.4595V98.5527H52.3477V96.4409Z" fill="white"/>
<path d="M81.6313 61.8071H83.7432V63.919H81.6313V61.8071Z" fill="white"/>
</g>
</g>
</g>
<path d="M48.928 136.36L46.944 136.968C46.8693 136.563 46.6667 136.195 46.336 135.864C46.0053 135.533 45.52 135.368 44.88 135.368C44.3573 135.368 43.9307 135.512 43.6 135.8C43.2693 136.077 43.104 136.413 43.104 136.808C43.104 137.501 43.5147 137.928 44.336 138.088L45.92 138.392C46.9227 138.584 47.7013 138.984 48.256 139.592C48.8107 140.2 49.088 140.915 49.088 141.736C49.088 142.675 48.7147 143.496 47.968 144.2C47.232 144.893 46.24 145.24 44.992 145.24C44.2773 145.24 43.632 145.133 43.056 144.92C42.48 144.707 42.016 144.424 41.664 144.072C41.312 143.709 41.0347 143.331 40.832 142.936C40.64 142.531 40.5227 142.115 40.48 141.688L42.528 141.144C42.5813 141.752 42.816 142.259 43.232 142.664C43.6587 143.069 44.2507 143.272 45.008 143.272C45.584 143.272 46.032 143.144 46.352 142.888C46.6827 142.632 46.848 142.296 46.848 141.88C46.848 141.549 46.7253 141.267 46.48 141.032C46.2453 140.787 45.9093 140.621 45.472 140.536L43.888 140.216C42.9707 140.024 42.2453 139.645 41.712 139.08C41.1787 138.515 40.912 137.811 40.912 136.968C40.912 135.965 41.296 135.123 42.064 134.44C42.8427 133.757 43.776 133.416 44.864 133.416C45.5147 133.416 46.096 133.507 46.608 133.688C47.12 133.869 47.5307 134.115 47.84 134.424C48.1493 134.723 48.3893 135.032 48.56 135.352C48.7307 135.672 48.8533 136.008 48.928 136.36ZM53.693 136.536C52.989 137.187 52.637 138.115 52.637 139.32C52.637 140.525 52.989 141.459 53.693 142.12C54.397 142.771 55.2237 143.096 56.173 143.096C57.133 143.096 57.965 142.771 58.669 142.12C59.373 141.459 59.725 140.525 59.725 139.32C59.725 138.115 59.373 137.187 58.669 136.536C57.965 135.875 57.133 135.544 56.173 135.544C55.2237 135.544 54.397 135.875 53.693 136.536ZM50.349 139.336C50.349 137.565 50.9197 136.136 52.061 135.048C53.2023 133.96 54.573 133.416 56.173 133.416C57.7837 133.416 59.1597 133.96 60.301 135.048C61.4423 136.136 62.013 137.565 62.013 139.336C62.013 141.096 61.4423 142.52 60.301 143.608C59.1597 144.696 57.7837 145.24 56.173 145.24C54.573 145.24 53.2023 144.696 52.061 143.608C50.9197 142.52 50.349 141.096 50.349 139.336ZM72.5223 133.656L68.8103 139.336L72.5383 145H69.8663L67.4183 141.08L64.9543 145H62.3623L66.0903 139.32L62.3783 133.656H65.0343L67.4663 137.576L69.9463 133.656H72.5223ZM90.9145 145H88.7385V137.048L85.4745 145H83.6345L80.3705 137.112V145H78.2585V133.656H81.1705L84.5785 141.848L87.9065 133.656H90.9145V145ZM92.9373 142.856C92.9373 142.184 93.1559 141.645 93.5933 141.24C94.0306 140.835 94.5959 140.579 95.2893 140.472L97.2253 140.184C97.6199 140.131 97.8173 139.944 97.8173 139.624C97.8173 139.325 97.6999 139.08 97.4653 138.888C97.2413 138.696 96.9159 138.6 96.4893 138.6C96.0413 138.6 95.6839 138.723 95.4173 138.968C95.1613 139.213 95.0173 139.517 94.9853 139.88L93.0973 139.48C93.1719 138.797 93.5079 138.195 94.1053 137.672C94.7026 137.149 95.4919 136.888 96.4733 136.888C97.6466 136.888 98.5106 137.171 99.0653 137.736C99.6199 138.291 99.8973 139.005 99.8973 139.88V143.752C99.8973 144.221 99.9293 144.637 99.9933 145H98.0413C97.9879 144.765 97.9613 144.451 97.9613 144.056C97.4599 144.835 96.6866 145.224 95.6413 145.224C94.8306 145.224 94.1746 144.989 93.6733 144.52C93.1826 144.051 92.9373 143.496 92.9373 142.856ZM96.0893 143.64C96.5906 143.64 97.0013 143.501 97.3213 143.224C97.6519 142.936 97.8173 142.467 97.8173 141.816V141.464L96.0413 141.736C95.3906 141.832 95.0653 142.163 95.0653 142.728C95.0653 142.984 95.1559 143.203 95.3373 143.384C95.5186 143.555 95.7693 143.64 96.0893 143.64ZM104.27 140.472V145H102.142V137.128H104.206V138.104C104.43 137.72 104.75 137.427 105.166 137.224C105.582 137.021 106.02 136.92 106.478 136.92C107.406 136.92 108.11 137.213 108.59 137.8C109.081 138.376 109.326 139.123 109.326 140.04V145H107.198V140.408C107.198 139.939 107.076 139.56 106.83 139.272C106.596 138.984 106.233 138.84 105.742 138.84C105.294 138.84 104.937 138.995 104.67 139.304C104.404 139.613 104.27 140.003 104.27 140.472ZM111.106 142.856C111.106 142.184 111.325 141.645 111.762 141.24C112.199 140.835 112.765 140.579 113.458 140.472L115.394 140.184C115.789 140.131 115.986 139.944 115.986 139.624C115.986 139.325 115.869 139.08 115.634 138.888C115.41 138.696 115.085 138.6 114.658 138.6C114.21 138.6 113.853 138.723 113.586 138.968C113.33 139.213 113.186 139.517 113.154 139.88L111.266 139.48C111.341 138.797 111.677 138.195 112.274 137.672C112.871 137.149 113.661 136.888 114.642 136.888C115.815 136.888 116.679 137.171 117.234 137.736C117.789 138.291 118.066 139.005 118.066 139.88V143.752C118.066 144.221 118.098 144.637 118.162 145H116.21C116.157 144.765 116.13 144.451 116.13 144.056C115.629 144.835 114.855 145.224 113.81 145.224C112.999 145.224 112.343 144.989 111.842 144.52C111.351 144.051 111.106 143.496 111.106 142.856ZM114.258 143.64C114.759 143.64 115.17 143.501 115.49 143.224C115.821 142.936 115.986 142.467 115.986 141.816V141.464L114.21 141.736C113.559 141.832 113.234 142.163 113.234 142.728C113.234 142.984 113.325 143.203 113.506 143.384C113.687 143.555 113.938 143.64 114.258 143.64ZM119.72 145.432L121.64 144.92C121.714 145.357 121.917 145.715 122.248 145.992C122.578 146.269 122.989 146.408 123.48 146.408C124.877 146.408 125.576 145.677 125.576 144.216V143.64C125.394 143.928 125.117 144.168 124.744 144.36C124.37 144.552 123.917 144.648 123.384 144.648C122.338 144.648 121.464 144.285 120.76 143.56C120.066 142.835 119.72 141.923 119.72 140.824C119.72 139.757 120.066 138.851 120.76 138.104C121.453 137.357 122.328 136.984 123.384 136.984C123.96 136.984 124.44 137.091 124.824 137.304C125.208 137.507 125.474 137.757 125.624 138.056V137.128H127.672V144.152C127.672 145.336 127.33 146.317 126.648 147.096C125.965 147.885 124.93 148.28 123.544 148.28C122.509 148.28 121.64 148.003 120.936 147.448C120.242 146.893 119.837 146.221 119.72 145.432ZM123.752 142.824C124.296 142.824 124.738 142.643 125.08 142.28C125.432 141.917 125.608 141.432 125.608 140.824C125.608 140.227 125.426 139.747 125.064 139.384C124.712 139.021 124.274 138.84 123.752 138.84C123.208 138.84 122.754 139.021 122.392 139.384C122.04 139.747 121.864 140.227 121.864 140.824C121.864 141.432 122.04 141.917 122.392 142.28C122.744 142.643 123.197 142.824 123.752 142.824ZM131.479 140.168H134.999C134.977 139.731 134.817 139.363 134.519 139.064C134.231 138.765 133.804 138.616 133.239 138.616C132.727 138.616 132.311 138.776 131.991 139.096C131.671 139.416 131.5 139.773 131.479 140.168ZM135.207 142.216L136.983 142.744C136.769 143.469 136.348 144.067 135.719 144.536C135.1 145.005 134.327 145.24 133.399 145.24C132.268 145.24 131.308 144.861 130.519 144.104C129.729 143.336 129.335 142.312 129.335 141.032C129.335 139.816 129.719 138.824 130.487 138.056C131.255 137.277 132.161 136.888 133.207 136.888C134.423 136.888 135.372 137.251 136.055 137.976C136.748 138.701 137.095 139.699 137.095 140.968C137.095 141.053 137.089 141.149 137.079 141.256C137.079 141.363 137.079 141.448 137.079 141.512L137.063 141.624H131.431C131.452 142.136 131.655 142.563 132.039 142.904C132.423 143.245 132.881 143.416 133.415 143.416C134.321 143.416 134.919 143.016 135.207 142.216ZM140.998 145H138.87V137.128H140.902V138.088C141.105 137.725 141.425 137.437 141.862 137.224C142.3 137.011 142.748 136.904 143.206 136.904C144.348 136.904 145.126 137.341 145.542 138.216C146.108 137.341 146.94 136.904 148.038 136.904C148.838 136.904 149.51 137.155 150.054 137.656C150.609 138.157 150.886 138.904 150.886 139.896V145H148.822V140.328C148.822 139.88 148.705 139.523 148.47 139.256C148.246 138.979 147.9 138.84 147.43 138.84C146.993 138.84 146.641 138.989 146.374 139.288C146.108 139.587 145.974 139.955 145.974 140.392V145H143.862V140.328C143.862 139.88 143.745 139.523 143.51 139.256C143.276 138.979 142.929 138.84 142.47 138.84C142.022 138.84 141.665 138.989 141.398 139.288C141.132 139.576 140.998 139.944 140.998 140.392V145ZM154.694 140.168H158.214C158.193 139.731 158.033 139.363 157.734 139.064C157.446 138.765 157.02 138.616 156.454 138.616C155.942 138.616 155.526 138.776 155.206 139.096C154.886 139.416 154.716 139.773 154.694 140.168ZM158.422 142.216L160.198 142.744C159.985 143.469 159.564 144.067 158.934 144.536C158.316 145.005 157.542 145.24 156.614 145.24C155.484 145.24 154.524 144.861 153.734 144.104C152.945 143.336 152.55 142.312 152.55 141.032C152.55 139.816 152.934 138.824 153.702 138.056C154.47 137.277 155.377 136.888 156.422 136.888C157.638 136.888 158.588 137.251 159.27 137.976C159.964 138.701 160.31 139.699 160.31 140.968C160.31 141.053 160.305 141.149 160.294 141.256C160.294 141.363 160.294 141.448 160.294 141.512L160.278 141.624H154.646C154.668 142.136 154.87 142.563 155.254 142.904C155.638 143.245 156.097 143.416 156.63 143.416C157.537 143.416 158.134 143.016 158.422 142.216ZM164.214 140.472V145H162.086V137.128H164.15V138.104C164.374 137.72 164.694 137.427 165.11 137.224C165.526 137.021 165.963 136.92 166.422 136.92C167.35 136.92 168.054 137.213 168.534 137.8C169.025 138.376 169.27 139.123 169.27 140.04V145H167.142V140.408C167.142 139.939 167.019 139.56 166.774 139.272C166.539 138.984 166.177 138.84 165.686 138.84C165.238 138.84 164.881 138.995 164.614 139.304C164.347 139.613 164.214 140.003 164.214 140.472ZM174.154 134.776V137.128H175.738V139.016H174.154V142.312C174.154 142.643 174.228 142.877 174.378 143.016C174.527 143.155 174.762 143.224 175.082 143.224C175.37 143.224 175.588 143.203 175.738 143.16V144.92C175.428 145.048 175.028 145.112 174.538 145.112C173.77 145.112 173.162 144.899 172.714 144.472C172.266 144.035 172.042 143.437 172.042 142.68V139.016H170.618V137.128H171.018C171.412 137.128 171.711 137.016 171.914 136.792C172.127 136.557 172.234 136.253 172.234 135.88V134.776H174.154Z" fill="white"/>
<rect x="40" y="171" width="50" height="2" fill="white"/>
<path d="M45.054 199.726V208H43.402V199.726H40.434V198.214H48.022V199.726H45.054ZM51.2829 203.968V208H49.7149V197.626H51.2829V201.91C51.5069 201.453 51.8429 201.093 52.2909 200.832C52.7482 200.571 53.2382 200.44 53.7609 200.44C54.6009 200.44 55.2775 200.697 55.7909 201.21C56.3135 201.723 56.5749 202.465 56.5749 203.436V208H55.0069V203.912C55.0069 202.54 54.4375 201.854 53.2989 201.854C52.7575 201.854 52.2862 202.036 51.8849 202.4C51.4835 202.755 51.2829 203.277 51.2829 203.968ZM65.8956 204.962H60.0576C60.095 205.503 60.3423 205.942 60.7996 206.278C61.257 206.605 61.7796 206.768 62.3676 206.768C63.301 206.768 64.0103 206.474 64.4956 205.886L65.3916 206.866C64.589 207.697 63.5436 208.112 62.2556 208.112C61.2103 208.112 60.319 207.767 59.5816 207.076C58.8536 206.376 58.4896 205.443 58.4896 204.276C58.4896 203.1 58.863 202.167 59.6096 201.476C60.3563 200.785 61.2336 200.44 62.2416 200.44C63.259 200.44 64.1223 200.748 64.8316 201.364C65.541 201.971 65.8956 202.811 65.8956 203.884V204.962ZM60.0576 203.73H64.3276C64.3276 203.105 64.1316 202.624 63.7396 202.288C63.3476 201.952 62.8623 201.784 62.2836 201.784C61.7143 201.784 61.201 201.961 60.7436 202.316C60.2863 202.661 60.0576 203.133 60.0576 203.73ZM78.7497 200.552V207.048C78.7497 208.364 78.3904 209.349 77.6717 210.002C76.9624 210.665 76.0477 210.996 74.9277 210.996C73.8077 210.996 72.7951 210.646 71.8897 209.946L72.6317 208.756C73.3597 209.307 74.0924 209.582 74.8297 209.582C75.5764 209.582 76.1644 209.391 76.5937 209.008C77.0324 208.625 77.2517 208.014 77.2517 207.174V206.222C77.0184 206.661 76.6824 207.011 76.2437 207.272C75.8144 207.533 75.3291 207.664 74.7877 207.664C73.7984 207.664 72.9864 207.319 72.3517 206.628C71.7171 205.937 71.3997 205.079 71.3997 204.052C71.3997 203.025 71.7171 202.167 72.3517 201.476C72.9864 200.785 73.7937 200.44 74.7737 200.44C75.7631 200.44 76.5657 200.846 77.1817 201.658V200.552H78.7497ZM72.9397 203.996C72.9397 204.603 73.1264 205.13 73.4997 205.578C73.8824 206.017 74.3911 206.236 75.0257 206.236C75.6697 206.236 76.1877 206.021 76.5797 205.592C76.9811 205.163 77.1817 204.631 77.1817 203.996C77.1817 203.352 76.9811 202.811 76.5797 202.372C76.1784 201.924 75.6604 201.7 75.0257 201.7C74.3911 201.7 73.8824 201.929 73.4997 202.386C73.1264 202.843 72.9397 203.38 72.9397 203.996ZM85.1279 202.022C84.3532 202.022 83.7699 202.274 83.3779 202.778C82.9859 203.282 82.7899 203.959 82.7899 204.808V208H81.2219V200.552H82.7899V202.05C83.0419 201.583 83.3826 201.201 83.8119 200.902C84.2506 200.603 84.7126 200.449 85.1979 200.44L85.2119 202.022C85.1839 202.022 85.1559 202.022 85.1279 202.022ZM92.952 208H91.524V207.006C90.908 207.743 90.082 208.112 89.046 208.112C88.2713 208.112 87.6273 207.893 87.114 207.454C86.61 207.015 86.358 206.432 86.358 205.704C86.358 204.967 86.6287 204.416 87.17 204.052C87.7113 203.688 88.444 203.506 89.368 203.506H91.398V203.226C91.398 202.237 90.8473 201.742 89.746 201.742C89.0553 201.742 88.3367 201.994 87.59 202.498L86.89 201.518C87.7953 200.799 88.822 200.44 89.97 200.44C90.8473 200.44 91.5613 200.664 92.112 201.112C92.672 201.551 92.952 202.246 92.952 203.198V208ZM91.384 205.228V204.598H89.62C88.4907 204.598 87.926 204.953 87.926 205.662C87.926 206.026 88.066 206.306 88.346 206.502C88.626 206.689 89.0133 206.782 89.508 206.782C90.012 206.782 90.4507 206.642 90.824 206.362C91.1973 206.082 91.384 205.704 91.384 205.228ZM98.3728 208.112C97.4301 208.112 96.6088 207.757 95.9088 207.048C95.2088 206.339 94.8588 205.405 94.8588 204.248C94.8588 203.091 95.2181 202.167 95.9368 201.476C96.6554 200.785 97.5094 200.44 98.4988 200.44C99.4974 200.44 100.3 200.86 100.907 201.7V197.612H102.475V208H100.907V206.88C100.328 207.701 99.4834 208.112 98.3728 208.112ZM96.4268 204.318C96.4268 205.027 96.6554 205.606 97.1128 206.054C97.5701 206.502 98.1068 206.726 98.7228 206.726C99.3388 206.726 99.8614 206.502 100.291 206.054C100.72 205.597 100.935 205.013 100.935 204.304C100.935 203.595 100.72 203.002 100.291 202.526C99.8614 202.05 99.3341 201.812 98.7088 201.812C98.0834 201.812 97.5468 202.05 97.0988 202.526C96.6508 203.002 96.4268 203.599 96.4268 204.318ZM110.149 204.584V200.552H111.717V208H110.149V206.642C109.897 207.099 109.547 207.459 109.099 207.72C108.66 207.981 108.184 208.112 107.671 208.112C106.831 208.112 106.15 207.855 105.627 207.342C105.114 206.829 104.857 206.087 104.857 205.116V200.552H106.425V204.64C106.425 206.012 106.994 206.698 108.133 206.698C108.674 206.698 109.146 206.521 109.547 206.166C109.948 205.802 110.149 205.275 110.149 204.584ZM120.226 208H118.798V207.006C118.182 207.743 117.356 208.112 116.32 208.112C115.545 208.112 114.901 207.893 114.388 207.454C113.884 207.015 113.632 206.432 113.632 205.704C113.632 204.967 113.902 204.416 114.444 204.052C114.985 203.688 115.718 203.506 116.642 203.506H118.672V203.226C118.672 202.237 118.121 201.742 117.02 201.742C116.329 201.742 115.61 201.994 114.864 202.498L114.164 201.518C115.069 200.799 116.096 200.44 117.244 200.44C118.121 200.44 118.835 200.664 119.386 201.112C119.946 201.551 120.226 202.246 120.226 203.198V208ZM118.658 205.228V204.598H116.894C115.764 204.598 115.2 204.953 115.2 205.662C115.2 206.026 115.34 206.306 115.62 206.502C115.9 206.689 116.287 206.782 116.782 206.782C117.286 206.782 117.724 206.642 118.098 206.362C118.471 206.082 118.658 205.704 118.658 205.228ZM124.177 208H122.609V197.612H124.177V208ZM42.702 228H41.134V220.552H42.702V228ZM41.232 219.068C41.036 218.872 40.938 218.639 40.938 218.368C40.938 218.097 41.036 217.864 41.232 217.668C41.428 217.472 41.6613 217.374 41.932 217.374C42.2027 217.374 42.436 217.472 42.632 217.668C42.828 217.864 42.926 218.097 42.926 218.368C42.926 218.639 42.828 218.872 42.632 219.068C42.436 219.264 42.2027 219.362 41.932 219.362C41.6613 219.362 41.428 219.264 41.232 219.068ZM46.7438 223.968V228H45.1758V220.552H46.7438V221.91C46.9958 221.453 47.3411 221.093 47.7798 220.832C48.2278 220.571 48.7085 220.44 49.2218 220.44C50.0618 220.44 50.7385 220.697 51.2518 221.21C51.7745 221.723 52.0358 222.465 52.0358 223.436V228H50.4678V223.912C50.4678 222.54 49.8985 221.854 48.7598 221.854C48.2185 221.854 47.7471 222.036 47.3458 222.4C46.9445 222.755 46.7438 223.277 46.7438 223.968ZM56.2902 219.936V220.552H58.2502V221.812H56.2902V228H54.7222V221.812H53.7842V220.552H54.7222V219.978C54.7222 219.194 54.9556 218.573 55.4222 218.116C55.8982 217.649 56.4676 217.416 57.1302 217.416C57.8022 217.416 58.4136 217.663 58.9642 218.158L58.3202 219.264C58.0122 218.937 57.6902 218.774 57.3542 218.774C57.0182 218.774 56.7569 218.881 56.5702 219.096C56.3836 219.301 56.2902 219.581 56.2902 219.936ZM61.5169 226.04C61.9649 226.488 62.5295 226.712 63.2109 226.712C63.8922 226.712 64.4522 226.488 64.8909 226.04C65.3389 225.583 65.5629 224.995 65.5629 224.276C65.5629 223.557 65.3389 222.974 64.8909 222.526C64.4522 222.069 63.8922 221.84 63.2109 221.84C62.5295 221.84 61.9649 222.069 61.5169 222.526C61.0782 222.974 60.8589 223.557 60.8589 224.276C60.8589 224.995 61.0782 225.583 61.5169 226.04ZM66.0109 227.006C65.2642 227.743 64.3309 228.112 63.2109 228.112C62.0909 228.112 61.1575 227.743 60.4109 227.006C59.6642 226.259 59.2909 225.349 59.2909 224.276C59.2909 223.203 59.6642 222.297 60.4109 221.56C61.1575 220.813 62.0909 220.44 63.2109 220.44C64.3309 220.44 65.2642 220.813 66.0109 221.56C66.7575 222.297 67.1309 223.203 67.1309 224.276C67.1309 225.349 66.7575 226.259 66.0109 227.006ZM73.0197 222.022C72.245 222.022 71.6617 222.274 71.2697 222.778C70.8777 223.282 70.6817 223.959 70.6817 224.808V228H69.1137V220.552H70.6817V222.05C70.9337 221.583 71.2744 221.201 71.7037 220.902C72.1424 220.603 72.6044 220.449 73.0897 220.44L73.1037 222.022C73.0757 222.022 73.0477 222.022 73.0197 222.022ZM76.4461 223.968V228H74.8781V220.552H76.4461V221.91C76.6701 221.453 77.0061 221.093 77.4541 220.832C77.9115 220.571 78.4015 220.44 78.9241 220.44C80.1001 220.44 80.8981 220.925 81.3181 221.896C82.0555 220.925 82.9748 220.44 84.0761 220.44C84.9161 220.44 85.5928 220.697 86.1061 221.21C86.6288 221.723 86.8901 222.465 86.8901 223.436V228H85.3221V223.912C85.3221 222.54 84.7528 221.854 83.6141 221.854C83.0821 221.854 82.6155 222.027 82.2141 222.372C81.8221 222.708 81.6168 223.203 81.5981 223.856V228H80.0301V223.912C80.0301 223.203 79.9041 222.685 79.6521 222.358C79.4001 222.022 79.0035 221.854 78.4621 221.854C77.9208 221.854 77.4495 222.036 77.0481 222.4C76.6468 222.755 76.4461 223.277 76.4461 223.968ZM95.3035 228H93.8755V227.006C93.2595 227.743 92.4335 228.112 91.3975 228.112C90.6229 228.112 89.9789 227.893 89.4655 227.454C88.9615 227.015 88.7095 226.432 88.7095 225.704C88.7095 224.967 88.9802 224.416 89.5215 224.052C90.0629 223.688 90.7955 223.506 91.7195 223.506H93.7495V223.226C93.7495 222.237 93.1989 221.742 92.0975 221.742C91.4069 221.742 90.6882 221.994 89.9415 222.498L89.2415 221.518C90.1469 220.799 91.1735 220.44 92.3215 220.44C93.1989 220.44 93.9129 220.664 94.4635 221.112C95.0235 221.551 95.3035 222.246 95.3035 223.198V228ZM93.7355 225.228V224.598H91.9715C90.8422 224.598 90.2775 224.953 90.2775 225.662C90.2775 226.026 90.4175 226.306 90.6975 226.502C90.9775 226.689 91.3649 226.782 91.8595 226.782C92.3635 226.782 92.8022 226.642 93.1755 226.362C93.5489 226.082 93.7355 225.704 93.7355 225.228ZM99.5363 221.812V225.592C99.5363 225.947 99.6296 226.231 99.8163 226.446C100.003 226.651 100.264 226.754 100.6 226.754C100.936 226.754 101.258 226.591 101.566 226.264L102.21 227.37C101.66 227.865 101.048 228.112 100.376 228.112C99.7136 228.112 99.1443 227.883 98.6683 227.426C98.2016 226.959 97.9683 226.334 97.9683 225.55V221.812H97.0303V220.552H97.9683V218.214H99.5363V220.552H101.496V221.812H99.5363ZM105.224 228H103.656V220.552H105.224V228ZM103.754 219.068C103.558 218.872 103.46 218.639 103.46 218.368C103.46 218.097 103.558 217.864 103.754 217.668C103.95 217.472 104.183 217.374 104.454 217.374C104.725 217.374 104.958 217.472 105.154 217.668C105.35 217.864 105.448 218.097 105.448 218.368C105.448 218.639 105.35 218.872 105.154 219.068C104.958 219.264 104.725 219.362 104.454 219.362C104.183 219.362 103.95 219.264 103.754 219.068ZM109.434 226.04C109.882 226.488 110.446 226.712 111.128 226.712C111.809 226.712 112.369 226.488 112.808 226.04C113.256 225.583 113.48 224.995 113.48 224.276C113.48 223.557 113.256 222.974 112.808 222.526C112.369 222.069 111.809 221.84 111.128 221.84C110.446 221.84 109.882 222.069 109.434 222.526C108.995 222.974 108.776 223.557 108.776 224.276C108.776 224.995 108.995 225.583 109.434 226.04ZM113.928 227.006C113.181 227.743 112.248 228.112 111.128 228.112C110.008 228.112 109.074 227.743 108.328 227.006C107.581 226.259 107.208 225.349 107.208 224.276C107.208 223.203 107.581 222.297 108.328 221.56C109.074 220.813 110.008 220.44 111.128 220.44C112.248 220.44 113.181 220.813 113.928 221.56C114.674 222.297 115.048 223.203 115.048 224.276C115.048 225.349 114.674 226.259 113.928 227.006ZM118.598 223.968V228H117.03V220.552H118.598V221.91C118.85 221.453 119.196 221.093 119.634 220.832C120.082 220.571 120.563 220.44 121.076 220.44C121.916 220.44 122.593 220.697 123.106 221.21C123.629 221.723 123.89 222.465 123.89 223.436V228H122.322V223.912C122.322 222.54 121.753 221.854 120.614 221.854C120.073 221.854 119.602 222.036 119.2 222.4C118.799 222.755 118.598 223.277 118.598 223.968ZM136.357 228H134.929V227.006C134.313 227.743 133.487 228.112 132.451 228.112C131.676 228.112 131.032 227.893 130.519 227.454C130.015 227.015 129.763 226.432 129.763 225.704C129.763 224.967 130.034 224.416 130.575 224.052C131.116 223.688 131.849 223.506 132.773 223.506H134.803V223.226C134.803 222.237 134.252 221.742 133.151 221.742C132.46 221.742 131.742 221.994 130.995 222.498L130.295 221.518C131.2 220.799 132.227 220.44 133.375 220.44C134.252 220.44 134.966 220.664 135.517 221.112C136.077 221.551 136.357 222.246 136.357 223.198V228ZM134.789 225.228V224.598H133.025C131.896 224.598 131.331 224.953 131.331 225.662C131.331 226.026 131.471 226.306 131.751 226.502C132.031 226.689 132.418 226.782 132.913 226.782C133.417 226.782 133.856 226.642 134.229 226.362C134.602 226.082 134.789 225.704 134.789 225.228ZM142.73 220.44C143.729 220.44 144.583 220.785 145.292 221.476C146.001 222.167 146.356 223.086 146.356 224.234C146.356 225.382 146.001 226.315 145.292 227.034C144.592 227.753 143.771 228.112 142.828 228.112C141.895 228.112 141.055 227.701 140.308 226.88V228H138.74V217.612H140.308V221.854C140.924 220.911 141.731 220.44 142.73 220.44ZM140.28 224.29C140.28 224.999 140.495 225.583 140.924 226.04C141.353 226.488 141.876 226.712 142.492 226.712C143.108 226.712 143.645 226.488 144.102 226.04C144.559 225.592 144.788 225.013 144.788 224.304C144.788 223.585 144.564 222.993 144.116 222.526C143.668 222.05 143.131 221.812 142.506 221.812C141.881 221.812 141.353 222.05 140.924 222.526C140.495 222.993 140.28 223.581 140.28 224.29ZM150.082 226.04C150.53 226.488 151.095 226.712 151.776 226.712C152.457 226.712 153.017 226.488 153.456 226.04C153.904 225.583 154.128 224.995 154.128 224.276C154.128 223.557 153.904 222.974 153.456 222.526C153.017 222.069 152.457 221.84 151.776 221.84C151.095 221.84 150.53 222.069 150.082 222.526C149.643 222.974 149.424 223.557 149.424 224.276C149.424 224.995 149.643 225.583 150.082 226.04ZM154.576 227.006C153.829 227.743 152.896 228.112 151.776 228.112C150.656 228.112 149.723 227.743 148.976 227.006C148.229 226.259 147.856 225.349 147.856 224.276C147.856 223.203 148.229 222.297 148.976 221.56C149.723 220.813 150.656 220.44 151.776 220.44C152.896 220.44 153.829 220.813 154.576 221.56C155.323 222.297 155.696 223.203 155.696 224.276C155.696 225.349 155.323 226.259 154.576 227.006ZM162.887 224.584V220.552H164.455V228H162.887V226.642C162.635 227.099 162.285 227.459 161.837 227.72C161.398 227.981 160.922 228.112 160.409 228.112C159.569 228.112 158.888 227.855 158.365 227.342C157.852 226.829 157.595 226.087 157.595 225.116V220.552H159.163V224.64C159.163 226.012 159.732 226.698 160.871 226.698C161.412 226.698 161.884 226.521 162.285 226.166C162.686 225.802 162.887 225.275 162.887 224.584ZM168.862 221.812V225.592C168.862 225.947 168.955 226.231 169.142 226.446C169.328 226.651 169.59 226.754 169.926 226.754C170.262 226.754 170.584 226.591 170.892 226.264L171.536 227.37C170.985 227.865 170.374 228.112 169.702 228.112C169.039 228.112 168.47 227.883 167.994 227.426C167.527 226.959 167.294 226.334 167.294 225.55V221.812H166.356V220.552H167.294V218.214H168.862V220.552H170.822V221.812H168.862ZM47.168 248H45.74V247.006C45.124 247.743 44.298 248.112 43.262 248.112C42.4873 248.112 41.8433 247.893 41.33 247.454C40.826 247.015 40.574 246.432 40.574 245.704C40.574 244.967 40.8447 244.416 41.386 244.052C41.9273 243.688 42.66 243.506 43.584 243.506H45.614V243.226C45.614 242.237 45.0633 241.742 43.962 241.742C43.2713 241.742 42.5527 241.994 41.806 242.498L41.106 241.518C42.0113 240.799 43.038 240.44 44.186 240.44C45.0633 240.44 45.7773 240.664 46.328 241.112C46.888 241.551 47.168 242.246 47.168 243.198V248ZM45.6 245.228V244.598H43.836C42.7067 244.598 42.142 244.953 42.142 245.662C42.142 246.026 42.282 246.306 42.562 246.502C42.842 246.689 43.2293 246.782 43.724 246.782C44.228 246.782 44.6667 246.642 45.04 246.362C45.4133 246.082 45.6 245.704 45.6 245.228ZM51.4008 241.812V245.592C51.4008 245.947 51.4941 246.231 51.6808 246.446C51.8674 246.651 52.1288 246.754 52.4648 246.754C52.8008 246.754 53.1228 246.591 53.4308 246.264L54.0748 247.37C53.5241 247.865 52.9128 248.112 52.2408 248.112C51.5781 248.112 51.0088 247.883 50.5328 247.426C50.0661 246.959 49.8328 246.334 49.8328 245.55V241.812H48.8948V240.552H49.8328V238.214H51.4008V240.552H53.3608V241.812H51.4008ZM57.2016 246.04C57.6496 246.488 58.2143 246.712 58.8956 246.712C59.577 246.712 60.137 246.488 60.5756 246.04C61.0236 245.583 61.2476 244.995 61.2476 244.276C61.2476 243.557 61.0236 242.974 60.5756 242.526C60.137 242.069 59.577 241.84 58.8956 241.84C58.2143 241.84 57.6496 242.069 57.2016 242.526C56.763 242.974 56.5436 243.557 56.5436 244.276C56.5436 244.995 56.763 245.583 57.2016 246.04ZM61.6956 247.006C60.949 247.743 60.0156 248.112 58.8956 248.112C57.7756 248.112 56.8423 247.743 56.0956 247.006C55.349 246.259 54.9756 245.349 54.9756 244.276C54.9756 243.203 55.349 242.297 56.0956 241.56C56.8423 240.813 57.7756 240.44 58.8956 240.44C60.0156 240.44 60.949 240.813 61.6956 241.56C62.4423 242.297 62.8156 243.203 62.8156 244.276C62.8156 245.349 62.4423 246.259 61.6956 247.006ZM66.3665 243.968V248H64.7985V240.552H66.3665V241.91C66.5905 241.453 66.9265 241.093 67.3745 240.832C67.8318 240.571 68.3218 240.44 68.8445 240.44C70.0205 240.44 70.8185 240.925 71.2385 241.896C71.9758 240.925 72.8951 240.44 73.9965 240.44C74.8365 240.44 75.5131 240.697 76.0265 241.21C76.5491 241.723 76.8105 242.465 76.8105 243.436V248H75.2425V243.912C75.2425 242.54 74.6731 241.854 73.5345 241.854C73.0025 241.854 72.5358 242.027 72.1345 242.372C71.7425 242.708 71.5371 243.203 71.5185 243.856V248H69.9505V243.912C69.9505 243.203 69.8245 242.685 69.5725 242.358C69.3205 242.022 68.9238 241.854 68.3825 241.854C67.8411 241.854 67.3698 242.036 66.9685 242.4C66.5671 242.755 66.3665 243.277 66.3665 243.968ZM80.7579 248H79.1899V240.552H80.7579V248ZM79.2879 239.068C79.0919 238.872 78.9939 238.639 78.9939 238.368C78.9939 238.097 79.0919 237.864 79.2879 237.668C79.4839 237.472 79.7172 237.374 79.9879 237.374C80.2585 237.374 80.4919 237.472 80.6879 237.668C80.8839 237.864 80.9819 238.097 80.9819 238.368C80.9819 238.639 80.8839 238.872 80.6879 239.068C80.4919 239.264 80.2585 239.362 79.9879 239.362C79.7172 239.362 79.4839 239.264 79.2879 239.068ZM86.5357 248.112C85.4997 248.112 84.6083 247.762 83.8617 247.062C83.115 246.353 82.7417 245.429 82.7417 244.29C82.7417 243.151 83.129 242.227 83.9037 241.518C84.6877 240.799 85.6397 240.44 86.7597 240.44C87.8797 240.44 88.827 240.827 89.6017 241.602L88.6777 242.736C88.0337 242.176 87.385 241.896 86.7317 241.896C86.0783 241.896 85.509 242.115 85.0237 242.554C84.5477 242.983 84.3097 243.543 84.3097 244.234C84.3097 244.915 84.5477 245.494 85.0237 245.97C85.4997 246.446 86.083 246.684 86.7737 246.684C87.4737 246.684 88.1317 246.367 88.7477 245.732L89.6717 246.74C88.7663 247.655 87.721 248.112 86.5357 248.112ZM99.5299 240.44C100.529 240.44 101.383 240.785 102.092 241.476C102.801 242.167 103.156 243.086 103.156 244.234C103.156 245.382 102.801 246.315 102.092 247.034C101.392 247.753 100.571 248.112 99.6279 248.112C98.6945 248.112 97.8545 247.701 97.1079 246.88V248H95.5399V237.612H97.1079V241.854C97.7239 240.911 98.5312 240.44 99.5299 240.44ZM97.0799 244.29C97.0799 244.999 97.2945 245.583 97.7239 246.04C98.1532 246.488 98.6759 246.712 99.2919 246.712C99.9079 246.712 100.445 246.488 100.902 246.04C101.359 245.592 101.588 245.013 101.588 244.304C101.588 243.585 101.364 242.993 100.916 242.526C100.468 242.05 99.9312 241.812 99.3059 241.812C98.6805 241.812 98.1532 242.05 97.7239 242.526C97.2945 242.993 97.0799 243.581 97.0799 244.29ZM112.076 244.962H106.238C106.275 245.503 106.523 245.942 106.98 246.278C107.437 246.605 107.96 246.768 108.548 246.768C109.481 246.768 110.191 246.474 110.676 245.886L111.572 246.866C110.769 247.697 109.724 248.112 108.436 248.112C107.391 248.112 106.499 247.767 105.762 247.076C105.034 246.376 104.67 245.443 104.67 244.276C104.67 243.1 105.043 242.167 105.79 241.476C106.537 240.785 107.414 240.44 108.422 240.44C109.439 240.44 110.303 240.748 111.012 241.364C111.721 241.971 112.076 242.811 112.076 243.884V244.962ZM106.238 243.73H110.508C110.508 243.105 110.312 242.624 109.92 242.288C109.528 241.952 109.043 241.784 108.464 241.784C107.895 241.784 107.381 241.961 106.924 242.316C106.467 242.661 106.238 243.133 106.238 243.73ZM115.568 243.968V248H114V237.626H115.568V241.91C115.792 241.453 116.128 241.093 116.576 240.832C117.034 240.571 117.524 240.44 118.046 240.44C118.886 240.44 119.563 240.697 120.076 241.21C120.599 241.723 120.86 242.465 120.86 243.436V248H119.292V243.912C119.292 242.54 118.723 241.854 117.584 241.854C117.043 241.854 116.572 242.036 116.17 242.4C115.769 242.755 115.568 243.277 115.568 243.968ZM129.285 248H127.857V247.006C127.241 247.743 126.415 248.112 125.379 248.112C124.605 248.112 123.961 247.893 123.447 247.454C122.943 247.015 122.691 246.432 122.691 245.704C122.691 244.967 122.962 244.416 123.503 244.052C124.045 243.688 124.777 243.506 125.701 243.506H127.731V243.226C127.731 242.237 127.181 241.742 126.079 241.742C125.389 241.742 124.67 241.994 123.923 242.498L123.223 241.518C124.129 240.799 125.155 240.44 126.303 240.44C127.181 240.44 127.895 240.664 128.445 241.112C129.005 241.551 129.285 242.246 129.285 243.198V248ZM127.717 245.228V244.598H125.953C124.824 244.598 124.259 244.953 124.259 245.662C124.259 246.026 124.399 246.306 124.679 246.502C124.959 246.689 125.347 246.782 125.841 246.782C126.345 246.782 126.784 246.642 127.157 246.362C127.531 246.082 127.717 245.704 127.717 245.228ZM133.56 248L130.564 240.552H132.188L134.456 246.18L136.724 240.552H138.348L135.352 248H133.56ZM141.366 248H139.798V240.552H141.366V248ZM139.896 239.068C139.7 238.872 139.602 238.639 139.602 238.368C139.602 238.097 139.7 237.864 139.896 237.668C140.092 237.472 140.325 237.374 140.596 237.374C140.866 237.374 141.1 237.472 141.296 237.668C141.492 237.864 141.59 238.097 141.59 238.368C141.59 238.639 141.492 238.872 141.296 239.068C141.1 239.264 140.866 239.362 140.596 239.362C140.325 239.362 140.092 239.264 139.896 239.068ZM145.575 246.04C146.023 246.488 146.588 246.712 147.269 246.712C147.951 246.712 148.511 246.488 148.949 246.04C149.397 245.583 149.621 244.995 149.621 244.276C149.621 243.557 149.397 242.974 148.949 242.526C148.511 242.069 147.951 241.84 147.269 241.84C146.588 241.84 146.023 242.069 145.575 242.526C145.137 242.974 144.917 243.557 144.917 244.276C144.917 244.995 145.137 245.583 145.575 246.04ZM150.069 247.006C149.323 247.743 148.389 248.112 147.269 248.112C146.149 248.112 145.216 247.743 144.469 247.006C143.723 246.259 143.349 245.349 143.349 244.276C143.349 243.203 143.723 242.297 144.469 241.56C145.216 240.813 146.149 240.44 147.269 240.44C148.389 240.44 149.323 240.813 150.069 241.56C150.816 242.297 151.189 243.203 151.189 244.276C151.189 245.349 150.816 246.259 150.069 247.006ZM158.38 244.584V240.552H159.948V248H158.38V246.642C158.128 247.099 157.778 247.459 157.33 247.72C156.892 247.981 156.416 248.112 155.902 248.112C155.062 248.112 154.381 247.855 153.858 247.342C153.345 246.829 153.088 246.087 153.088 245.116V240.552H154.656V244.64C154.656 246.012 155.226 246.698 156.364 246.698C156.906 246.698 157.377 246.521 157.778 246.166C158.18 245.802 158.38 245.275 158.38 244.584ZM166.329 242.022C165.554 242.022 164.971 242.274 164.579 242.778C164.187 243.282 163.991 243.959 163.991 244.808V248H162.423V240.552H163.991V242.05C164.243 241.583 164.584 241.201 165.013 240.902C165.452 240.603 165.914 240.449 166.399 240.44L166.413 242.022C166.385 242.022 166.357 242.022 166.329 242.022ZM167.643 247.804C167.447 247.599 167.349 247.351 167.349 247.062C167.349 246.773 167.447 246.53 167.643 246.334C167.848 246.129 168.095 246.026 168.385 246.026C168.674 246.026 168.921 246.129 169.127 246.334C169.332 246.53 169.435 246.773 169.435 247.062C169.435 247.351 169.332 247.599 169.127 247.804C168.921 248.009 168.674 248.112 168.385 248.112C168.095 248.112 167.848 248.009 167.643 247.804ZM171.766 247.804C171.57 247.599 171.472 247.351 171.472 247.062C171.472 246.773 171.57 246.53 171.766 246.334C171.972 246.129 172.219 246.026 172.508 246.026C172.798 246.026 173.045 246.129 173.25 246.334C173.456 246.53 173.558 246.773 173.558 247.062C173.558 247.351 173.456 247.599 173.25 247.804C173.045 248.009 172.798 248.112 172.508 248.112C172.219 248.112 171.972 248.009 171.766 247.804ZM175.89 247.804C175.694 247.599 175.596 247.351 175.596 247.062C175.596 246.773 175.694 246.53 175.89 246.334C176.096 246.129 176.343 246.026 176.632 246.026C176.922 246.026 177.169 246.129 177.374 246.334C177.58 246.53 177.682 246.773 177.682 247.062C177.682 247.351 177.58 247.599 177.374 247.804C177.169 248.009 176.922 248.112 176.632 248.112C176.343 248.112 176.096 248.009 175.89 247.804Z" fill="white"/>
<defs>
<clipPath id="clip0_4001_479">
<rect width="72" height="72" fill="white" transform="translate(40 35)"/>
</clipPath>
<clipPath id="clip1_4001_479">
<rect width="72" height="72" fill="white" transform="translate(40 35)"/>
</clipPath>
<clipPath id="clip2_4001_479">
<rect width="71.9428" height="72" fill="white" transform="translate(40.0286 35)"/>
</clipPath>
</defs>
</svg>
