<svg width="230" height="288" viewBox="0 0 230 288" fill="none" xmlns="http://www.w3.org/2000/svg">
<rect width="230" height="288" fill="white"/>
<g clip-path="url(#clip0_4001_427)">
<g clip-path="url(#clip1_4001_427)">
<g clip-path="url(#clip2_4001_427)">
<g clip-path="url(#clip3_4001_427)">
<g clip-path="url(#clip4_4001_427)">
<path d="M110.8 63.8H90.4V60.2C90.4 59.816 90.2163 59.4551 89.9056 59.2292L77.2 49.9892V45.8H90.4C91.0627 45.8 91.6 45.2627 91.6 44.6V37.4C91.6 36.7373 91.0627 36.2 90.4 36.2H77.2C77.2 35.5373 76.6627 35 76 35C75.3373 35 74.8 35.5373 74.8 36.2V49.9892L62.0944 59.2292C61.7838 59.4551 61.6 59.816 61.6 60.2V63.8H41.2C40.5373 63.8 40 64.3373 40 65V105.8C40 106.463 40.5373 107 41.2 107H110.8C111.463 107 112 106.463 112 105.8V65C112 64.3373 111.463 63.8 110.8 63.8ZM77.2 38.6H89.2V43.4H77.2V38.6ZM61.6 104.6H42.4V66.2H61.6V104.6ZM80.8 104.6H71.2V92.6H80.8V104.6ZM88 104.6H83.2V91.4C83.2 90.7373 82.6627 90.2 82 90.2H70C69.3373 90.2 68.8 90.7373 68.8 91.4V104.6H64V60.8108L76 52.0832L88 60.8108V104.6ZM109.6 104.6H90.4V66.2H109.6V104.6Z" fill="#8D5CF6"/>
<path d="M50.8 69.7998H46V72.1998H50.8V69.7998Z" fill="#8D5CF6"/>
<path d="M58 69.7998H53.2V72.1998H58V69.7998Z" fill="#8D5CF6"/>
<path d="M50.8 74.6001H46V77.0001H50.8V74.6001Z" fill="#8D5CF6"/>
<path d="M58 74.6001H53.2V77.0001H58V74.6001Z" fill="#8D5CF6"/>
<path d="M50.8 79.3999H46V81.7999H50.8V79.3999Z" fill="#8D5CF6"/>
<path d="M58 79.3999H53.2V81.7999H58V79.3999Z" fill="#8D5CF6"/>
<path d="M50.8 84.2002H46V86.6002H50.8V84.2002Z" fill="#8D5CF6"/>
<path d="M58 84.2002H53.2V86.6002H58V84.2002Z" fill="#8D5CF6"/>
<path d="M50.8 89H46V91.4H50.8V89Z" fill="#8D5CF6"/>
<path d="M58 89H53.2V91.4H58V89Z" fill="#8D5CF6"/>
<path d="M98.8 69.7998H94V72.1998H98.8V69.7998Z" fill="#8D5CF6"/>
<path d="M106 69.7998H101.2V72.1998H106V69.7998Z" fill="#8D5CF6"/>
<path d="M98.8 74.6001H94V77.0001H98.8V74.6001Z" fill="#8D5CF6"/>
<path d="M106 74.6001H101.2V77.0001H106V74.6001Z" fill="#8D5CF6"/>
<path d="M98.8 79.3999H94V81.7999H98.8V79.3999Z" fill="#8D5CF6"/>
<path d="M106 79.3999H101.2V81.7999H106V79.3999Z" fill="#8D5CF6"/>
<path d="M98.8 84.2002H94V86.6002H98.8V84.2002Z" fill="#8D5CF6"/>
<path d="M106 84.2002H101.2V86.6002H106V84.2002Z" fill="#8D5CF6"/>
<path d="M98.8 89H94V91.4H98.8V89Z" fill="#8D5CF6"/>
<path d="M106 89H101.2V91.4H106V89Z" fill="#8D5CF6"/>
<path d="M67.6001 71.0001C67.6053 75.637 71.3631 79.3948 76.0001 79.4001C80.6393 79.4001 84.4001 75.6393 84.4001 71.0001C84.4001 66.3609 80.6393 62.6001 76.0001 62.6001C71.3609 62.6001 67.6001 66.3609 67.6001 71.0001ZM82.0001 71.0001C82.0001 74.3137 79.3137 77.0001 76.0001 77.0001C72.6864 77.0001 70.0001 74.3137 70.0001 71.0001C70.004 67.6881 72.6881 65.004 76.0001 65.0001C79.3137 65.0001 82.0001 67.6864 82.0001 71.0001Z" fill="#8D5CF6"/>
<path d="M74.7999 69.8002H72.3999V72.2002H77.1999V66.2002H74.7999V69.8002Z" fill="#8D5CF6"/>
</g>
</g>
</g>
</g>
</g>
<path d="M46.896 145L44.672 140.632H43.52V145H41.296V133.656H45.728C46.816 133.656 47.6907 133.987 48.352 134.648C49.0133 135.309 49.344 136.141 49.344 137.144C49.344 137.933 49.1253 138.616 48.688 139.192C48.2613 139.757 47.6747 140.147 46.928 140.36L49.36 145H46.896ZM43.52 138.728H45.312C45.8667 138.728 46.2987 138.584 46.608 138.296C46.928 138.008 47.088 137.629 47.088 137.16C47.088 136.68 46.928 136.296 46.608 136.008C46.2987 135.72 45.8667 135.576 45.312 135.576H43.52V138.728ZM53.364 145H51.236V137.128H53.364V145ZM50.98 134.552C50.98 134.189 51.108 133.88 51.364 133.624C51.62 133.357 51.9293 133.224 52.292 133.224C52.6547 133.224 52.964 133.352 53.22 133.608C53.476 133.864 53.604 134.179 53.604 134.552C53.604 134.904 53.476 135.208 53.22 135.464C52.964 135.72 52.6547 135.848 52.292 135.848C51.9293 135.848 51.62 135.72 51.364 135.464C51.108 135.208 50.98 134.904 50.98 134.552ZM55.0702 142.808L56.8942 142.408C56.9156 142.749 57.0489 143.037 57.2943 143.272C57.5502 143.496 57.8969 143.608 58.3342 143.608C58.6649 143.608 58.9209 143.533 59.1023 143.384C59.2836 143.235 59.3742 143.048 59.3742 142.824C59.3742 142.429 59.0916 142.173 58.5262 142.056L57.4862 141.816C56.7502 141.656 56.1956 141.368 55.8222 140.952C55.4596 140.536 55.2782 140.04 55.2782 139.464C55.2782 138.749 55.5556 138.141 56.1102 137.64C56.6756 137.139 57.3796 136.888 58.2222 136.888C58.7556 136.888 59.2249 136.968 59.6302 137.128C60.0356 137.277 60.3503 137.475 60.5743 137.72C60.7983 137.955 60.9689 138.195 61.0863 138.44C61.2036 138.685 61.2783 138.925 61.3103 139.16L59.5343 139.56C59.4916 139.283 59.3636 139.037 59.1502 138.824C58.9476 138.611 58.6436 138.504 58.2383 138.504C57.9609 138.504 57.7209 138.579 57.5182 138.728C57.3262 138.877 57.2302 139.064 57.2302 139.288C57.2302 139.672 57.4702 139.907 57.9502 139.992L59.0703 140.232C59.8276 140.392 60.4036 140.685 60.7983 141.112C61.2036 141.539 61.4062 142.051 61.4062 142.648C61.4062 143.352 61.1396 143.96 60.6063 144.472C60.0729 144.984 59.3209 145.24 58.3503 145.24C57.7956 145.24 57.2996 145.16 56.8622 145C56.4249 144.829 56.0836 144.616 55.8382 144.36C55.6036 144.093 55.4222 143.832 55.2942 143.576C55.1769 143.309 55.1022 143.053 55.0702 142.808ZM70.8492 137.128L67.6972 140.44L70.9132 145H68.3052L66.2252 141.992L65.3452 142.92V145H63.2172V133.416H65.3452V140.056L68.0652 137.128H70.8492ZM89.1239 145H86.9479V137.048L83.6839 145H81.8439L78.5799 137.112V145H76.4679V133.656H79.3799L82.7879 141.848L86.1159 133.656H89.1239V145ZM91.1466 142.856C91.1466 142.184 91.3653 141.645 91.8026 141.24C92.24 140.835 92.8053 140.579 93.4986 140.472L95.4346 140.184C95.8293 140.131 96.0266 139.944 96.0266 139.624C96.0266 139.325 95.9093 139.08 95.6746 138.888C95.4506 138.696 95.1253 138.6 94.6986 138.6C94.2506 138.6 93.8933 138.723 93.6266 138.968C93.3706 139.213 93.2266 139.517 93.1946 139.88L91.3066 139.48C91.3813 138.797 91.7173 138.195 92.3146 137.672C92.912 137.149 93.7013 136.888 94.6826 136.888C95.856 136.888 96.72 137.171 97.2746 137.736C97.8293 138.291 98.1066 139.005 98.1066 139.88V143.752C98.1066 144.221 98.1386 144.637 98.2026 145H96.2506C96.1973 144.765 96.1706 144.451 96.1706 144.056C95.6693 144.835 94.896 145.224 93.8506 145.224C93.04 145.224 92.384 144.989 91.8826 144.52C91.392 144.051 91.1466 143.496 91.1466 142.856ZM94.2986 143.64C94.8 143.64 95.2106 143.501 95.5306 143.224C95.8613 142.936 96.0266 142.467 96.0266 141.816V141.464L94.2506 141.736C93.6 141.832 93.2746 142.163 93.2746 142.728C93.2746 142.984 93.3653 143.203 93.5466 143.384C93.728 143.555 93.9786 143.64 94.2986 143.64ZM102.48 140.472V145H100.352V137.128H102.416V138.104C102.64 137.72 102.96 137.427 103.376 137.224C103.792 137.021 104.229 136.92 104.688 136.92C105.616 136.92 106.32 137.213 106.8 137.8C107.29 138.376 107.536 139.123 107.536 140.04V145H105.408V140.408C105.408 139.939 105.285 139.56 105.04 139.272C104.805 138.984 104.442 138.84 103.952 138.84C103.504 138.84 103.146 138.995 102.88 139.304C102.613 139.613 102.48 140.003 102.48 140.472ZM109.315 142.856C109.315 142.184 109.534 141.645 109.971 141.24C110.409 140.835 110.974 140.579 111.667 140.472L113.603 140.184C113.998 140.131 114.195 139.944 114.195 139.624C114.195 139.325 114.078 139.08 113.843 138.888C113.619 138.696 113.294 138.6 112.867 138.6C112.419 138.6 112.062 138.723 111.795 138.968C111.539 139.213 111.395 139.517 111.363 139.88L109.475 139.48C109.55 138.797 109.886 138.195 110.483 137.672C111.081 137.149 111.87 136.888 112.851 136.888C114.025 136.888 114.889 137.171 115.443 137.736C115.998 138.291 116.275 139.005 116.275 139.88V143.752C116.275 144.221 116.307 144.637 116.371 145H114.419C114.366 144.765 114.339 144.451 114.339 144.056C113.838 144.835 113.065 145.224 112.019 145.224C111.209 145.224 110.553 144.989 110.051 144.52C109.561 144.051 109.315 143.496 109.315 142.856ZM112.467 143.64C112.969 143.64 113.379 143.501 113.699 143.224C114.03 142.936 114.195 142.467 114.195 141.816V141.464L112.419 141.736C111.769 141.832 111.443 142.163 111.443 142.728C111.443 142.984 111.534 143.203 111.715 143.384C111.897 143.555 112.147 143.64 112.467 143.64ZM117.929 145.432L119.849 144.92C119.924 145.357 120.126 145.715 120.457 145.992C120.788 146.269 121.198 146.408 121.689 146.408C123.086 146.408 123.785 145.677 123.785 144.216V143.64C123.604 143.928 123.326 144.168 122.953 144.36C122.58 144.552 122.126 144.648 121.593 144.648C120.548 144.648 119.673 144.285 118.969 143.56C118.276 142.835 117.929 141.923 117.929 140.824C117.929 139.757 118.276 138.851 118.969 138.104C119.662 137.357 120.537 136.984 121.593 136.984C122.169 136.984 122.649 137.091 123.033 137.304C123.417 137.507 123.684 137.757 123.833 138.056V137.128H125.881V144.152C125.881 145.336 125.54 146.317 124.857 147.096C124.174 147.885 123.14 148.28 121.753 148.28C120.718 148.28 119.849 148.003 119.145 147.448C118.452 146.893 118.046 146.221 117.929 145.432ZM121.961 142.824C122.505 142.824 122.948 142.643 123.289 142.28C123.641 141.917 123.817 141.432 123.817 140.824C123.817 140.227 123.636 139.747 123.273 139.384C122.921 139.021 122.484 138.84 121.961 138.84C121.417 138.84 120.964 139.021 120.601 139.384C120.249 139.747 120.073 140.227 120.073 140.824C120.073 141.432 120.249 141.917 120.601 142.28C120.953 142.643 121.406 142.824 121.961 142.824ZM129.688 140.168H133.208C133.187 139.731 133.027 139.363 132.728 139.064C132.44 138.765 132.013 138.616 131.448 138.616C130.936 138.616 130.52 138.776 130.2 139.096C129.88 139.416 129.709 139.773 129.688 140.168ZM133.416 142.216L135.192 142.744C134.979 143.469 134.557 144.067 133.928 144.536C133.309 145.005 132.536 145.24 131.608 145.24C130.477 145.24 129.517 144.861 128.728 144.104C127.939 143.336 127.544 142.312 127.544 141.032C127.544 139.816 127.928 138.824 128.696 138.056C129.464 137.277 130.371 136.888 131.416 136.888C132.632 136.888 133.581 137.251 134.264 137.976C134.957 138.701 135.304 139.699 135.304 140.968C135.304 141.053 135.299 141.149 135.288 141.256C135.288 141.363 135.288 141.448 135.288 141.512L135.272 141.624H129.64C129.661 142.136 129.864 142.563 130.248 142.904C130.632 143.245 131.091 143.416 131.624 143.416C132.531 143.416 133.128 143.016 133.416 142.216ZM139.208 145H137.08V137.128H139.112V138.088C139.314 137.725 139.634 137.437 140.072 137.224C140.509 137.011 140.957 136.904 141.416 136.904C142.557 136.904 143.336 137.341 143.752 138.216C144.317 137.341 145.149 136.904 146.248 136.904C147.048 136.904 147.72 137.155 148.264 137.656C148.818 138.157 149.096 138.904 149.096 139.896V145H147.032V140.328C147.032 139.88 146.914 139.523 146.68 139.256C146.456 138.979 146.109 138.84 145.64 138.84C145.202 138.84 144.85 138.989 144.584 139.288C144.317 139.587 144.184 139.955 144.184 140.392V145H142.072V140.328C142.072 139.88 141.954 139.523 141.72 139.256C141.485 138.979 141.138 138.84 140.68 138.84C140.232 138.84 139.874 138.989 139.608 139.288C139.341 139.576 139.208 139.944 139.208 140.392V145ZM152.904 140.168H156.424C156.402 139.731 156.242 139.363 155.944 139.064C155.656 138.765 155.229 138.616 154.664 138.616C154.152 138.616 153.736 138.776 153.416 139.096C153.096 139.416 152.925 139.773 152.904 140.168ZM156.632 142.216L158.408 142.744C158.194 143.469 157.773 144.067 157.144 144.536C156.525 145.005 155.752 145.24 154.824 145.24C153.693 145.24 152.733 144.861 151.944 144.104C151.154 143.336 150.76 142.312 150.76 141.032C150.76 139.816 151.144 138.824 151.912 138.056C152.68 137.277 153.586 136.888 154.632 136.888C155.848 136.888 156.797 137.251 157.48 137.976C158.173 138.701 158.52 139.699 158.52 140.968C158.52 141.053 158.514 141.149 158.504 141.256C158.504 141.363 158.504 141.448 158.504 141.512L158.488 141.624H152.856C152.877 142.136 153.08 142.563 153.464 142.904C153.848 143.245 154.306 143.416 154.84 143.416C155.746 143.416 156.344 143.016 156.632 142.216ZM162.423 140.472V145H160.295V137.128H162.359V138.104C162.583 137.72 162.903 137.427 163.319 137.224C163.735 137.021 164.173 136.92 164.631 136.92C165.559 136.92 166.263 137.213 166.743 137.8C167.234 138.376 167.479 139.123 167.479 140.04V145H165.351V140.408C165.351 139.939 165.229 139.56 164.983 139.272C164.749 138.984 164.386 138.84 163.895 138.84C163.447 138.84 163.09 138.995 162.823 139.304C162.557 139.613 162.423 140.003 162.423 140.472ZM172.363 134.776V137.128H173.947V139.016H172.363V142.312C172.363 142.643 172.438 142.877 172.587 143.016C172.736 143.155 172.971 143.224 173.291 143.224C173.579 143.224 173.798 143.203 173.947 143.16V144.92C173.638 145.048 173.238 145.112 172.747 145.112C171.979 145.112 171.371 144.899 170.923 144.472C170.475 144.035 170.251 143.437 170.251 142.68V139.016H168.827V137.128H169.227C169.622 137.128 169.92 137.016 170.123 136.792C170.336 136.557 170.443 136.253 170.443 135.88V134.776H172.363Z" fill="#252B42"/>
<rect x="40" y="171" width="50" height="2" fill="#E74040"/>
<path d="M45.054 199.726V208H43.402V199.726H40.434V198.214H48.022V199.726H45.054ZM51.2829 203.968V208H49.7149V197.626H51.2829V201.91C51.5069 201.453 51.8429 201.093 52.2909 200.832C52.7482 200.571 53.2382 200.44 53.7609 200.44C54.6009 200.44 55.2775 200.697 55.7909 201.21C56.3135 201.723 56.5749 202.465 56.5749 203.436V208H55.0069V203.912C55.0069 202.54 54.4375 201.854 53.2989 201.854C52.7575 201.854 52.2862 202.036 51.8849 202.4C51.4835 202.755 51.2829 203.277 51.2829 203.968ZM65.8956 204.962H60.0576C60.095 205.503 60.3423 205.942 60.7996 206.278C61.257 206.605 61.7796 206.768 62.3676 206.768C63.301 206.768 64.0103 206.474 64.4956 205.886L65.3916 206.866C64.589 207.697 63.5436 208.112 62.2556 208.112C61.2103 208.112 60.319 207.767 59.5816 207.076C58.8536 206.376 58.4896 205.443 58.4896 204.276C58.4896 203.1 58.863 202.167 59.6096 201.476C60.3563 200.785 61.2336 200.44 62.2416 200.44C63.259 200.44 64.1223 200.748 64.8316 201.364C65.541 201.971 65.8956 202.811 65.8956 203.884V204.962ZM60.0576 203.73H64.3276C64.3276 203.105 64.1316 202.624 63.7396 202.288C63.3476 201.952 62.8623 201.784 62.2836 201.784C61.7143 201.784 61.201 201.961 60.7436 202.316C60.2863 202.661 60.0576 203.133 60.0576 203.73ZM78.7497 200.552V207.048C78.7497 208.364 78.3904 209.349 77.6717 210.002C76.9624 210.665 76.0477 210.996 74.9277 210.996C73.8077 210.996 72.7951 210.646 71.8897 209.946L72.6317 208.756C73.3597 209.307 74.0924 209.582 74.8297 209.582C75.5764 209.582 76.1644 209.391 76.5937 209.008C77.0324 208.625 77.2517 208.014 77.2517 207.174V206.222C77.0184 206.661 76.6824 207.011 76.2437 207.272C75.8144 207.533 75.3291 207.664 74.7877 207.664C73.7984 207.664 72.9864 207.319 72.3517 206.628C71.7171 205.937 71.3997 205.079 71.3997 204.052C71.3997 203.025 71.7171 202.167 72.3517 201.476C72.9864 200.785 73.7937 200.44 74.7737 200.44C75.7631 200.44 76.5657 200.846 77.1817 201.658V200.552H78.7497ZM72.9397 203.996C72.9397 204.603 73.1264 205.13 73.4997 205.578C73.8824 206.017 74.3911 206.236 75.0257 206.236C75.6697 206.236 76.1877 206.021 76.5797 205.592C76.9811 205.163 77.1817 204.631 77.1817 203.996C77.1817 203.352 76.9811 202.811 76.5797 202.372C76.1784 201.924 75.6604 201.7 75.0257 201.7C74.3911 201.7 73.8824 201.929 73.4997 202.386C73.1264 202.843 72.9397 203.38 72.9397 203.996ZM85.1279 202.022C84.3532 202.022 83.7699 202.274 83.3779 202.778C82.9859 203.282 82.7899 203.959 82.7899 204.808V208H81.2219V200.552H82.7899V202.05C83.0419 201.583 83.3826 201.201 83.8119 200.902C84.2506 200.603 84.7126 200.449 85.1979 200.44L85.2119 202.022C85.1839 202.022 85.1559 202.022 85.1279 202.022ZM92.952 208H91.524V207.006C90.908 207.743 90.082 208.112 89.046 208.112C88.2713 208.112 87.6273 207.893 87.114 207.454C86.61 207.015 86.358 206.432 86.358 205.704C86.358 204.967 86.6287 204.416 87.17 204.052C87.7113 203.688 88.444 203.506 89.368 203.506H91.398V203.226C91.398 202.237 90.8473 201.742 89.746 201.742C89.0553 201.742 88.3367 201.994 87.59 202.498L86.89 201.518C87.7953 200.799 88.822 200.44 89.97 200.44C90.8473 200.44 91.5613 200.664 92.112 201.112C92.672 201.551 92.952 202.246 92.952 203.198V208ZM91.384 205.228V204.598H89.62C88.4907 204.598 87.926 204.953 87.926 205.662C87.926 206.026 88.066 206.306 88.346 206.502C88.626 206.689 89.0133 206.782 89.508 206.782C90.012 206.782 90.4507 206.642 90.824 206.362C91.1973 206.082 91.384 205.704 91.384 205.228ZM98.3728 208.112C97.4301 208.112 96.6088 207.757 95.9088 207.048C95.2088 206.339 94.8588 205.405 94.8588 204.248C94.8588 203.091 95.2181 202.167 95.9368 201.476C96.6554 200.785 97.5094 200.44 98.4988 200.44C99.4974 200.44 100.3 200.86 100.907 201.7V197.612H102.475V208H100.907V206.88C100.328 207.701 99.4834 208.112 98.3728 208.112ZM96.4268 204.318C96.4268 205.027 96.6554 205.606 97.1128 206.054C97.5701 206.502 98.1068 206.726 98.7228 206.726C99.3388 206.726 99.8614 206.502 100.291 206.054C100.72 205.597 100.935 205.013 100.935 204.304C100.935 203.595 100.72 203.002 100.291 202.526C99.8614 202.05 99.3341 201.812 98.7088 201.812C98.0834 201.812 97.5468 202.05 97.0988 202.526C96.6508 203.002 96.4268 203.599 96.4268 204.318ZM110.149 204.584V200.552H111.717V208H110.149V206.642C109.897 207.099 109.547 207.459 109.099 207.72C108.66 207.981 108.184 208.112 107.671 208.112C106.831 208.112 106.15 207.855 105.627 207.342C105.114 206.829 104.857 206.087 104.857 205.116V200.552H106.425V204.64C106.425 206.012 106.994 206.698 108.133 206.698C108.674 206.698 109.146 206.521 109.547 206.166C109.948 205.802 110.149 205.275 110.149 204.584ZM120.226 208H118.798V207.006C118.182 207.743 117.356 208.112 116.32 208.112C115.545 208.112 114.901 207.893 114.388 207.454C113.884 207.015 113.632 206.432 113.632 205.704C113.632 204.967 113.902 204.416 114.444 204.052C114.985 203.688 115.718 203.506 116.642 203.506H118.672V203.226C118.672 202.237 118.121 201.742 117.02 201.742C116.329 201.742 115.61 201.994 114.864 202.498L114.164 201.518C115.069 200.799 116.096 200.44 117.244 200.44C118.121 200.44 118.835 200.664 119.386 201.112C119.946 201.551 120.226 202.246 120.226 203.198V208ZM118.658 205.228V204.598H116.894C115.764 204.598 115.2 204.953 115.2 205.662C115.2 206.026 115.34 206.306 115.62 206.502C115.9 206.689 116.287 206.782 116.782 206.782C117.286 206.782 117.724 206.642 118.098 206.362C118.471 206.082 118.658 205.704 118.658 205.228ZM124.177 208H122.609V197.612H124.177V208ZM47.168 228H45.74V227.006C45.124 227.743 44.298 228.112 43.262 228.112C42.4873 228.112 41.8433 227.893 41.33 227.454C40.826 227.015 40.574 226.432 40.574 225.704C40.574 224.967 40.8447 224.416 41.386 224.052C41.9273 223.688 42.66 223.506 43.584 223.506H45.614V223.226C45.614 222.237 45.0633 221.742 43.962 221.742C43.2713 221.742 42.5527 221.994 41.806 222.498L41.106 221.518C42.0113 220.799 43.038 220.44 44.186 220.44C45.0633 220.44 45.7773 220.664 46.328 221.112C46.888 221.551 47.168 222.246 47.168 223.198V228ZM45.6 225.228V224.598H43.836C42.7067 224.598 42.142 224.953 42.142 225.662C42.142 226.026 42.282 226.306 42.562 226.502C42.842 226.689 43.2293 226.782 43.724 226.782C44.228 226.782 44.6667 226.642 45.04 226.362C45.4133 226.082 45.6 225.704 45.6 225.228ZM52.8548 228.112C51.8188 228.112 50.9275 227.762 50.1808 227.062C49.4341 226.353 49.0608 225.429 49.0608 224.29C49.0608 223.151 49.4481 222.227 50.2228 221.518C51.0068 220.799 51.9588 220.44 53.0788 220.44C54.1988 220.44 55.1461 220.827 55.9208 221.602L54.9968 222.736C54.3528 222.176 53.7041 221.896 53.0508 221.896C52.3975 221.896 51.8281 222.115 51.3428 222.554C50.8668 222.983 50.6288 223.543 50.6288 224.234C50.6288 224.915 50.8668 225.494 51.3428 225.97C51.8188 226.446 52.4021 226.684 53.0928 226.684C53.7928 226.684 54.4508 226.367 55.0668 225.732L55.9908 226.74C55.0855 227.655 54.0401 228.112 52.8548 228.112ZM61.1212 228.112C60.0852 228.112 59.1939 227.762 58.4472 227.062C57.7005 226.353 57.3272 225.429 57.3272 224.29C57.3272 223.151 57.7145 222.227 58.4892 221.518C59.2732 220.799 60.2252 220.44 61.3452 220.44C62.4652 220.44 63.4125 220.827 64.1872 221.602L63.2632 222.736C62.6192 222.176 61.9705 221.896 61.3172 221.896C60.6639 221.896 60.0945 222.115 59.6092 222.554C59.1332 222.983 58.8952 223.543 58.8952 224.234C58.8952 224.915 59.1332 225.494 59.6092 225.97C60.0852 226.446 60.6685 226.684 61.3592 226.684C62.0592 226.684 62.7172 226.367 63.3332 225.732L64.2572 226.74C63.3519 227.655 62.3065 228.112 61.1212 228.112ZM71.2916 224.584V220.552H72.8596V228H71.2916V226.642C71.0396 227.099 70.6896 227.459 70.2416 227.72C69.8029 227.981 69.3269 228.112 68.8136 228.112C67.9736 228.112 67.2923 227.855 66.7696 227.342C66.2563 226.829 65.9996 226.087 65.9996 225.116V220.552H67.5676V224.64C67.5676 226.012 68.1369 226.698 69.2756 226.698C69.8169 226.698 70.2883 226.521 70.6896 226.166C71.0909 225.802 71.2916 225.275 71.2916 224.584ZM76.9024 223.968V228H75.3344V220.552H76.9024V221.91C77.1264 221.453 77.4624 221.093 77.9104 220.832C78.3677 220.571 78.8577 220.44 79.3804 220.44C80.5564 220.44 81.3544 220.925 81.7744 221.896C82.5117 220.925 83.4311 220.44 84.5324 220.44C85.3724 220.44 86.0491 220.697 86.5624 221.21C87.0851 221.723 87.3464 222.465 87.3464 223.436V228H85.7784V223.912C85.7784 222.54 85.2091 221.854 84.0704 221.854C83.5384 221.854 83.0717 222.027 82.6704 222.372C82.2784 222.708 82.0731 223.203 82.0544 223.856V228H80.4864V223.912C80.4864 223.203 80.3604 222.685 80.1084 222.358C79.8564 222.022 79.4597 221.854 78.9184 221.854C78.3771 221.854 77.9057 222.036 77.5044 222.4C77.1031 222.755 76.9024 223.277 76.9024 223.968ZM94.9338 224.584V220.552H96.5018V228H94.9338V226.642C94.6818 227.099 94.3318 227.459 93.8838 227.72C93.4451 227.981 92.9691 228.112 92.4558 228.112C91.6158 228.112 90.9345 227.855 90.4118 227.342C89.8985 226.829 89.6418 226.087 89.6418 225.116V220.552H91.2098V224.64C91.2098 226.012 91.7791 226.698 92.9178 226.698C93.4591 226.698 93.9305 226.521 94.3318 226.166C94.7331 225.802 94.9338 225.275 94.9338 224.584ZM100.545 228H98.9766V217.612H100.545V228ZM109.052 228H107.624V227.006C107.008 227.743 106.182 228.112 105.146 228.112C104.372 228.112 103.728 227.893 103.214 227.454C102.71 227.015 102.458 226.432 102.458 225.704C102.458 224.967 102.729 224.416 103.27 224.052C103.812 223.688 104.544 223.506 105.468 223.506H107.498V223.226C107.498 222.237 106.948 221.742 105.846 221.742C105.156 221.742 104.437 221.994 103.69 222.498L102.99 221.518C103.896 220.799 104.922 220.44 106.07 220.44C106.948 220.44 107.662 220.664 108.212 221.112C108.772 221.551 109.052 222.246 109.052 223.198V228ZM107.484 225.228V224.598H105.72C104.591 224.598 104.026 224.953 104.026 225.662C104.026 226.026 104.166 226.306 104.446 226.502C104.726 226.689 105.114 226.782 105.608 226.782C106.112 226.782 106.551 226.642 106.924 226.362C107.298 226.082 107.484 225.704 107.484 225.228ZM113.285 221.812V225.592C113.285 225.947 113.378 226.231 113.565 226.446C113.752 226.651 114.013 226.754 114.349 226.754C114.685 226.754 115.007 226.591 115.315 226.264L115.959 227.37C115.408 227.865 114.797 228.112 114.125 228.112C113.462 228.112 112.893 227.883 112.417 227.426C111.95 226.959 111.717 226.334 111.717 225.55V221.812H110.779V220.552H111.717V218.214H113.285V220.552H115.245V221.812H113.285ZM118.973 228H117.405V220.552H118.973V228ZM117.503 219.068C117.307 218.872 117.209 218.639 117.209 218.368C117.209 218.097 117.307 217.864 117.503 217.668C117.699 217.472 117.932 217.374 118.203 217.374C118.473 217.374 118.707 217.472 118.903 217.668C119.099 217.864 119.197 218.097 119.197 218.368C119.197 218.639 119.099 218.872 118.903 219.068C118.707 219.264 118.473 219.362 118.203 219.362C117.932 219.362 117.699 219.264 117.503 219.068ZM123.183 226.04C123.631 226.488 124.195 226.712 124.877 226.712C125.558 226.712 126.118 226.488 126.557 226.04C127.005 225.583 127.229 224.995 127.229 224.276C127.229 223.557 127.005 222.974 126.557 222.526C126.118 222.069 125.558 221.84 124.877 221.84C124.195 221.84 123.631 222.069 123.183 222.526C122.744 222.974 122.525 223.557 122.525 224.276C122.525 224.995 122.744 225.583 123.183 226.04ZM127.677 227.006C126.93 227.743 125.997 228.112 124.877 228.112C123.757 228.112 122.823 227.743 122.077 227.006C121.33 226.259 120.957 225.349 120.957 224.276C120.957 223.203 121.33 222.297 122.077 221.56C122.823 220.813 123.757 220.44 124.877 220.44C125.997 220.44 126.93 220.813 127.677 221.56C128.423 222.297 128.797 223.203 128.797 224.276C128.797 225.349 128.423 226.259 127.677 227.006ZM132.347 223.968V228H130.779V220.552H132.347V221.91C132.599 221.453 132.945 221.093 133.383 220.832C133.831 220.571 134.312 220.44 134.825 220.44C135.665 220.44 136.342 220.697 136.855 221.21C137.378 221.723 137.639 222.465 137.639 223.436V228H136.071V223.912C136.071 222.54 135.502 221.854 134.363 221.854C133.822 221.854 133.351 222.036 132.949 222.4C132.548 222.755 132.347 223.277 132.347 223.968ZM145.808 226.04C146.256 226.488 146.821 226.712 147.502 226.712C148.183 226.712 148.743 226.488 149.182 226.04C149.63 225.583 149.854 224.995 149.854 224.276C149.854 223.557 149.63 222.974 149.182 222.526C148.743 222.069 148.183 221.84 147.502 221.84C146.821 221.84 146.256 222.069 145.808 222.526C145.369 222.974 145.15 223.557 145.15 224.276C145.15 224.995 145.369 225.583 145.808 226.04ZM150.302 227.006C149.555 227.743 148.622 228.112 147.502 228.112C146.382 228.112 145.449 227.743 144.702 227.006C143.955 226.259 143.582 225.349 143.582 224.276C143.582 223.203 143.955 222.297 144.702 221.56C145.449 220.813 146.382 220.44 147.502 220.44C148.622 220.44 149.555 220.813 150.302 221.56C151.049 222.297 151.422 223.203 151.422 224.276C151.422 225.349 151.049 226.259 150.302 227.006ZM155.227 219.936V220.552H157.187V221.812H155.227V228H153.659V221.812H152.721V220.552H153.659V219.978C153.659 219.194 153.893 218.573 154.359 218.116C154.835 217.649 155.405 217.416 156.067 217.416C156.739 217.416 157.351 217.663 157.901 218.158L157.257 219.264C156.949 218.937 156.627 218.774 156.291 218.774C155.955 218.774 155.694 218.881 155.507 219.096C155.321 219.301 155.227 219.581 155.227 219.936ZM42.702 248H41.134V240.552H42.702V248ZM41.232 239.068C41.036 238.872 40.938 238.639 40.938 238.368C40.938 238.097 41.036 237.864 41.232 237.668C41.428 237.472 41.6613 237.374 41.932 237.374C42.2027 237.374 42.436 237.472 42.632 237.668C42.828 237.864 42.926 238.097 42.926 238.368C42.926 238.639 42.828 238.872 42.632 239.068C42.436 239.264 42.2027 239.362 41.932 239.362C41.6613 239.362 41.428 239.264 41.232 239.068ZM46.7438 243.968V248H45.1758V240.552H46.7438V241.91C46.9958 241.453 47.3411 241.093 47.7798 240.832C48.2278 240.571 48.7085 240.44 49.2218 240.44C50.0618 240.44 50.7385 240.697 51.2518 241.21C51.7745 241.723 52.0358 242.465 52.0358 243.436V248H50.4678V243.912C50.4678 242.54 49.8985 241.854 48.7598 241.854C48.2185 241.854 47.7471 242.036 47.3458 242.4C46.9445 242.755 46.7438 243.277 46.7438 243.968ZM56.2902 239.936V240.552H58.2502V241.812H56.2902V248H54.7222V241.812H53.7842V240.552H54.7222V239.978C54.7222 239.194 54.9556 238.573 55.4222 238.116C55.8982 237.649 56.4676 237.416 57.1302 237.416C57.8022 237.416 58.4136 237.663 58.9642 238.158L58.3202 239.264C58.0122 238.937 57.6902 238.774 57.3542 238.774C57.0182 238.774 56.7569 238.881 56.5702 239.096C56.3836 239.301 56.2902 239.581 56.2902 239.936ZM61.5169 246.04C61.9649 246.488 62.5295 246.712 63.2109 246.712C63.8922 246.712 64.4522 246.488 64.8909 246.04C65.3389 245.583 65.5629 244.995 65.5629 244.276C65.5629 243.557 65.3389 242.974 64.8909 242.526C64.4522 242.069 63.8922 241.84 63.2109 241.84C62.5295 241.84 61.9649 242.069 61.5169 242.526C61.0782 242.974 60.8589 243.557 60.8589 244.276C60.8589 244.995 61.0782 245.583 61.5169 246.04ZM66.0109 247.006C65.2642 247.743 64.3309 248.112 63.2109 248.112C62.0909 248.112 61.1575 247.743 60.4109 247.006C59.6642 246.259 59.2909 245.349 59.2909 244.276C59.2909 243.203 59.6642 242.297 60.4109 241.56C61.1575 240.813 62.0909 240.44 63.2109 240.44C64.3309 240.44 65.2642 240.813 66.0109 241.56C66.7575 242.297 67.1309 243.203 67.1309 244.276C67.1309 245.349 66.7575 246.259 66.0109 247.006ZM73.0197 242.022C72.245 242.022 71.6617 242.274 71.2697 242.778C70.8777 243.282 70.6817 243.959 70.6817 244.808V248H69.1137V240.552H70.6817V242.05C70.9337 241.583 71.2744 241.201 71.7037 240.902C72.1424 240.603 72.6044 240.449 73.0897 240.44L73.1037 242.022C73.0757 242.022 73.0477 242.022 73.0197 242.022ZM76.4461 243.968V248H74.8781V240.552H76.4461V241.91C76.6701 241.453 77.0061 241.093 77.4541 240.832C77.9115 240.571 78.4015 240.44 78.9241 240.44C80.1001 240.44 80.8981 240.925 81.3181 241.896C82.0555 240.925 82.9748 240.44 84.0761 240.44C84.9161 240.44 85.5928 240.697 86.1061 241.21C86.6288 241.723 86.8901 242.465 86.8901 243.436V248H85.3221V243.912C85.3221 242.54 84.7528 241.854 83.6141 241.854C83.0821 241.854 82.6155 242.027 82.2141 242.372C81.8221 242.708 81.6168 243.203 81.5981 243.856V248H80.0301V243.912C80.0301 243.203 79.9041 242.685 79.6521 242.358C79.4001 242.022 79.0035 241.854 78.4621 241.854C77.9208 241.854 77.4495 242.036 77.0481 242.4C76.6468 242.755 76.4461 243.277 76.4461 243.968ZM95.3035 248H93.8755V247.006C93.2595 247.743 92.4335 248.112 91.3975 248.112C90.6229 248.112 89.9789 247.893 89.4655 247.454C88.9615 247.015 88.7095 246.432 88.7095 245.704C88.7095 244.967 88.9802 244.416 89.5215 244.052C90.0629 243.688 90.7955 243.506 91.7195 243.506H93.7495V243.226C93.7495 242.237 93.1989 241.742 92.0975 241.742C91.4069 241.742 90.6882 241.994 89.9415 242.498L89.2415 241.518C90.1469 240.799 91.1735 240.44 92.3215 240.44C93.1989 240.44 93.9129 240.664 94.4635 241.112C95.0235 241.551 95.3035 242.246 95.3035 243.198V248ZM93.7355 245.228V244.598H91.9715C90.8422 244.598 90.2775 244.953 90.2775 245.662C90.2775 246.026 90.4175 246.306 90.6975 246.502C90.9775 246.689 91.3649 246.782 91.8595 246.782C92.3635 246.782 92.8022 246.642 93.1755 246.362C93.5489 246.082 93.7355 245.704 93.7355 245.228ZM99.5363 241.812V245.592C99.5363 245.947 99.6296 246.231 99.8163 246.446C100.003 246.651 100.264 246.754 100.6 246.754C100.936 246.754 101.258 246.591 101.566 246.264L102.21 247.37C101.66 247.865 101.048 248.112 100.376 248.112C99.7136 248.112 99.1443 247.883 98.6683 247.426C98.2016 246.959 97.9683 246.334 97.9683 245.55V241.812H97.0303V240.552H97.9683V238.214H99.5363V240.552H101.496V241.812H99.5363ZM105.224 248H103.656V240.552H105.224V248ZM103.754 239.068C103.558 238.872 103.46 238.639 103.46 238.368C103.46 238.097 103.558 237.864 103.754 237.668C103.95 237.472 104.183 237.374 104.454 237.374C104.725 237.374 104.958 237.472 105.154 237.668C105.35 237.864 105.448 238.097 105.448 238.368C105.448 238.639 105.35 238.872 105.154 239.068C104.958 239.264 104.725 239.362 104.454 239.362C104.183 239.362 103.95 239.264 103.754 239.068ZM109.434 246.04C109.882 246.488 110.446 246.712 111.128 246.712C111.809 246.712 112.369 246.488 112.808 246.04C113.256 245.583 113.48 244.995 113.48 244.276C113.48 243.557 113.256 242.974 112.808 242.526C112.369 242.069 111.809 241.84 111.128 241.84C110.446 241.84 109.882 242.069 109.434 242.526C108.995 242.974 108.776 243.557 108.776 244.276C108.776 244.995 108.995 245.583 109.434 246.04ZM113.928 247.006C113.181 247.743 112.248 248.112 111.128 248.112C110.008 248.112 109.074 247.743 108.328 247.006C107.581 246.259 107.208 245.349 107.208 244.276C107.208 243.203 107.581 242.297 108.328 241.56C109.074 240.813 110.008 240.44 111.128 240.44C112.248 240.44 113.181 240.813 113.928 241.56C114.674 242.297 115.048 243.203 115.048 244.276C115.048 245.349 114.674 246.259 113.928 247.006ZM118.598 243.968V248H117.03V240.552H118.598V241.91C118.85 241.453 119.196 241.093 119.634 240.832C120.082 240.571 120.563 240.44 121.076 240.44C121.916 240.44 122.593 240.697 123.106 241.21C123.629 241.723 123.89 242.465 123.89 243.436V248H122.322V243.912C122.322 242.54 121.753 241.854 120.614 241.854C120.073 241.854 119.602 242.036 119.2 242.4C118.799 242.755 118.598 243.277 118.598 243.968ZM136.357 248H134.929V247.006C134.313 247.743 133.487 248.112 132.451 248.112C131.676 248.112 131.032 247.893 130.519 247.454C130.015 247.015 129.763 246.432 129.763 245.704C129.763 244.967 130.034 244.416 130.575 244.052C131.116 243.688 131.849 243.506 132.773 243.506H134.803V243.226C134.803 242.237 134.252 241.742 133.151 241.742C132.46 241.742 131.742 241.994 130.995 242.498L130.295 241.518C131.2 240.799 132.227 240.44 133.375 240.44C134.252 240.44 134.966 240.664 135.517 241.112C136.077 241.551 136.357 242.246 136.357 243.198V248ZM134.789 245.228V244.598H133.025C131.896 244.598 131.331 244.953 131.331 245.662C131.331 246.026 131.471 246.306 131.751 246.502C132.031 246.689 132.418 246.782 132.913 246.782C133.417 246.782 133.856 246.642 134.229 246.362C134.602 246.082 134.789 245.704 134.789 245.228ZM142.73 240.44C143.729 240.44 144.583 240.785 145.292 241.476C146.001 242.167 146.356 243.086 146.356 244.234C146.356 245.382 146.001 246.315 145.292 247.034C144.592 247.753 143.771 248.112 142.828 248.112C141.895 248.112 141.055 247.701 140.308 246.88V248H138.74V237.612H140.308V241.854C140.924 240.911 141.731 240.44 142.73 240.44ZM140.28 244.29C140.28 244.999 140.495 245.583 140.924 246.04C141.353 246.488 141.876 246.712 142.492 246.712C143.108 246.712 143.645 246.488 144.102 246.04C144.559 245.592 144.788 245.013 144.788 244.304C144.788 243.585 144.564 242.993 144.116 242.526C143.668 242.05 143.131 241.812 142.506 241.812C141.881 241.812 141.353 242.05 140.924 242.526C140.495 242.993 140.28 243.581 140.28 244.29ZM150.082 246.04C150.53 246.488 151.095 246.712 151.776 246.712C152.457 246.712 153.017 246.488 153.456 246.04C153.904 245.583 154.128 244.995 154.128 244.276C154.128 243.557 153.904 242.974 153.456 242.526C153.017 242.069 152.457 241.84 151.776 241.84C151.095 241.84 150.53 242.069 150.082 242.526C149.643 242.974 149.424 243.557 149.424 244.276C149.424 244.995 149.643 245.583 150.082 246.04ZM154.576 247.006C153.829 247.743 152.896 248.112 151.776 248.112C150.656 248.112 149.723 247.743 148.976 247.006C148.229 246.259 147.856 245.349 147.856 244.276C147.856 243.203 148.229 242.297 148.976 241.56C149.723 240.813 150.656 240.44 151.776 240.44C152.896 240.44 153.829 240.813 154.576 241.56C155.323 242.297 155.696 243.203 155.696 244.276C155.696 245.349 155.323 246.259 154.576 247.006ZM162.887 244.584V240.552H164.455V248H162.887V246.642C162.635 247.099 162.285 247.459 161.837 247.72C161.398 247.981 160.922 248.112 160.409 248.112C159.569 248.112 158.888 247.855 158.365 247.342C157.852 246.829 157.595 246.087 157.595 245.116V240.552H159.163V244.64C159.163 246.012 159.732 246.698 160.871 246.698C161.412 246.698 161.884 246.521 162.285 246.166C162.686 245.802 162.887 245.275 162.887 244.584ZM168.862 241.812V245.592C168.862 245.947 168.955 246.231 169.142 246.446C169.328 246.651 169.59 246.754 169.926 246.754C170.262 246.754 170.584 246.591 170.892 246.264L171.536 247.37C170.985 247.865 170.374 248.112 169.702 248.112C169.039 248.112 168.47 247.883 167.994 247.426C167.527 246.959 167.294 246.334 167.294 245.55V241.812H166.356V240.552H167.294V238.214H168.862V240.552H170.822V241.812H168.862Z" fill="#737373"/>
<defs>
<clipPath id="clip0_4001_427">
<rect width="72" height="72" fill="white" transform="translate(40 35)"/>
</clipPath>
<clipPath id="clip1_4001_427">
<rect width="72" height="72" fill="white" transform="translate(40 35)"/>
</clipPath>
<clipPath id="clip2_4001_427">
<rect width="72" height="72" fill="white" transform="translate(40 35)"/>
</clipPath>
<clipPath id="clip3_4001_427">
<rect width="72" height="72" fill="white" transform="translate(40 35)"/>
</clipPath>
<clipPath id="clip4_4001_427">
<rect width="72" height="72" fill="white" transform="translate(40 35)"/>
</clipPath>
</defs>
</svg>
