<svg xmlns="http://www.w3.org/2000/svg" viewBox="0 0 62.7 73"><defs><style>.cls-1{fill:#00aa75;}.cls-2{fill:#06d6a0;}.cls-3{fill:#073b4c;}.cls-4{fill:#ffb229;}.cls-5{fill:#ffd166;}.cls-6{fill:#d82356;}.cls-7{fill:#ef476f;}</style></defs><title>Ros</title><g id="Capa_2" data-name="Capa 2"><g id="Layer_1" data-name="Layer 1"><g id="Ros"><path class="cls-1" d="M51.2,51.2c-6.4,6.6-13.5,3.7-14.3-1.7-.6-3.6,2.6-9.4,10.6-11,9-1.8,15.2,5.1,15.2,5.1S57.6,44.5,51.2,51.2Z"/><path class="cls-2" d="M50.2,50.2c6.1-6.3,11-7.5,11.5-7.6-2.1-1.8-7.4-5.5-14.2-4.1-8.1,1.7-11.2,7.4-10.6,11a6.33,6.33,0,0,0,1.4,3.1C41.1,54.8,45.9,54.8,50.2,50.2Z"/><path class="cls-3" d="M31.4,73a.94.94,0,0,1-1-1V41a1,1,0,0,1,2,0V72A1,1,0,0,1,31.4,73Z"/><path class="cls-3" d="M31.4,64a.37.37,0,0,1-.3-.1,1,1,0,0,1-.6-1.3c.2-.6,5.5-15.3,18.6-19.8a1,1,0,1,1,.7,1.9C37.6,48.9,32.5,63.1,32.4,63.3A1,1,0,0,1,31.4,64Z"/><path class="cls-1" d="M11.5,50.2c6.4,6.6,13.5,3.7,14.3-1.7.6-3.6-2.6-9.4-10.6-11C6.2,35.7,0,42.6,0,42.6S5.1,43.5,11.5,50.2Z"/><path class="cls-2" d="M15.2,37.5C8.4,36.1,3.2,39.7,1,41.6c.5.1,5.4,1.3,11.5,7.6,4.4,4.6,9.1,4.6,11.9,2.4a6.77,6.77,0,0,0,1.4-3.1C26.4,44.9,23.2,39.1,15.2,37.5Z"/><path class="cls-3" d="M31.4,63a1,1,0,0,1-.9-.7c-.1-.1-5.2-14.4-17.4-18.6a1,1,0,0,1,.7-1.9C26.9,46.3,32.2,61,32.4,61.6a1,1,0,0,1-.6,1.3A.76.76,0,0,1,31.4,63Z"/><path class="cls-1" d="M31.4,41h0a4,4,0,0,1-4-4h0v-.8h8V37h0A4,4,0,0,1,31.4,41Z"/><path class="cls-2" d="M31.4,40h0a4,4,0,0,1-4-4h0v-.8h8V36h0A4,4,0,0,1,31.4,40Z"/><circle class="cls-4" cx="31.4" cy="7" r="7"/><circle class="cls-5" cx="31.4" cy="7" r="5"/><path class="cls-6" d="M16.4,27h15V13a10,10,0,0,0-10-10h-5Z"/><path class="cls-7" d="M19.4,3h-3V27h13V13A10,10,0,0,0,19.4,3Z"/><path class="cls-7" d="M46.4,28h-22V20a16,16,0,0,1,16-16h6Z"/><path class="cls-6" d="M46.4,28h-22V20a16,16,0,0,1,16-16h6Z"/><path class="cls-7" d="M42.4,4a16,16,0,0,0-16,16v8h20V4Z"/><path class="cls-6" d="M21.4,9h-8V19a18.05,18.05,0,0,0,18,18h0V19A10,10,0,0,0,21.4,9Z"/><path class="cls-7" d="M29.4,36.9V19a10,10,0,0,0-10-10h-6V19A18,18,0,0,0,29.4,36.9Z"/><path class="cls-6" d="M45.4,9a20.06,20.06,0,0,0-20,20v7a17.18,17.18,0,0,0,6,1h0a18.05,18.05,0,0,0,18-18V9Z"/><path class="cls-7" d="M47.4,9a20.06,20.06,0,0,0-20,20v7.5a17.52,17.52,0,0,0,4,.5h0a18.05,18.05,0,0,0,18-18V9Z"/></g></g></g></svg>